%TF.GenerationSoftware,KiCad,Pcbnew,8.0.4*%
%TF.CreationDate,2024-10-07T15:12:12-07:00*%
%TF.ProjectId,KSS_V50,4b53535f-5635-4302-9e6b-696361645f70,rev?*%
%TF.SameCoordinates,Original*%
%TF.FileFunction,Soldermask,Bot*%
%TF.FilePolarity,Negative*%
%FSLAX46Y46*%
G04 Gerber Fmt 4.6, Leading zero omitted, Abs format (unit mm)*
G04 Created by KiCad (PCBNEW 8.0.4) date 2024-10-07 15:12:12*
%MOMM*%
%LPD*%
G01*
G04 APERTURE LIST*
G04 Aperture macros list*
%AMRoundRect*
0 Rectangle with rounded corners*
0 $1 Rounding radius*
0 $2 $3 $4 $5 $6 $7 $8 $9 X,Y pos of 4 corners*
0 Add a 4 corners polygon primitive as box body*
4,1,4,$2,$3,$4,$5,$6,$7,$8,$9,$2,$3,0*
0 Add four circle primitives for the rounded corners*
1,1,$1+$1,$2,$3*
1,1,$1+$1,$4,$5*
1,1,$1+$1,$6,$7*
1,1,$1+$1,$8,$9*
0 Add four rect primitives between the rounded corners*
20,1,$1+$1,$2,$3,$4,$5,0*
20,1,$1+$1,$4,$5,$6,$7,0*
20,1,$1+$1,$6,$7,$8,$9,0*
20,1,$1+$1,$8,$9,$2,$3,0*%
%AMFreePoly0*
4,1,6,1.000000,0.000000,0.500000,-0.750000,-0.500000,-0.750000,-0.500000,0.750000,0.500000,0.750000,1.000000,0.000000,1.000000,0.000000,$1*%
%AMFreePoly1*
4,1,6,0.500000,-0.750000,-0.650000,-0.750000,-0.150000,0.000000,-0.650000,0.750000,0.500000,0.750000,0.500000,-0.750000,0.500000,-0.750000,$1*%
G04 Aperture macros list end*
%ADD10C,3.000000*%
%ADD11RoundRect,0.200000X0.275000X-0.200000X0.275000X0.200000X-0.275000X0.200000X-0.275000X-0.200000X0*%
%ADD12RoundRect,0.200000X-0.200000X-0.275000X0.200000X-0.275000X0.200000X0.275000X-0.200000X0.275000X0*%
%ADD13C,1.000000*%
%ADD14RoundRect,0.225000X0.225000X0.250000X-0.225000X0.250000X-0.225000X-0.250000X0.225000X-0.250000X0*%
%ADD15RoundRect,0.200000X-0.275000X0.200000X-0.275000X-0.200000X0.275000X-0.200000X0.275000X0.200000X0*%
%ADD16RoundRect,0.200000X0.200000X0.275000X-0.200000X0.275000X-0.200000X-0.275000X0.200000X-0.275000X0*%
%ADD17RoundRect,0.125000X-0.537500X-0.125000X0.537500X-0.125000X0.537500X0.125000X-0.537500X0.125000X0*%
%ADD18RoundRect,0.100000X0.225000X0.100000X-0.225000X0.100000X-0.225000X-0.100000X0.225000X-0.100000X0*%
%ADD19RoundRect,0.250000X0.475000X-0.250000X0.475000X0.250000X-0.475000X0.250000X-0.475000X-0.250000X0*%
%ADD20RoundRect,0.225000X-0.225000X-0.250000X0.225000X-0.250000X0.225000X0.250000X-0.225000X0.250000X0*%
%ADD21RoundRect,0.225000X-0.250000X0.225000X-0.250000X-0.225000X0.250000X-0.225000X0.250000X0.225000X0*%
%ADD22RoundRect,0.250000X0.250000X0.475000X-0.250000X0.475000X-0.250000X-0.475000X0.250000X-0.475000X0*%
%ADD23RoundRect,0.250000X-0.325000X-0.650000X0.325000X-0.650000X0.325000X0.650000X-0.325000X0.650000X0*%
%ADD24RoundRect,0.225000X0.250000X-0.225000X0.250000X0.225000X-0.250000X0.225000X-0.250000X-0.225000X0*%
%ADD25RoundRect,0.070000X0.355000X-0.070000X0.355000X0.070000X-0.355000X0.070000X-0.355000X-0.070000X0*%
%ADD26RoundRect,0.070000X0.305000X-0.070000X0.305000X0.070000X-0.305000X0.070000X-0.305000X-0.070000X0*%
%ADD27RoundRect,0.085000X-0.265000X-0.085000X0.265000X-0.085000X0.265000X0.085000X-0.265000X0.085000X0*%
%ADD28R,1.600000X0.550000*%
%ADD29R,1.500000X1.500000*%
%ADD30FreePoly0,180.000000*%
%ADD31FreePoly0,0.000000*%
%ADD32RoundRect,0.150000X0.512500X0.150000X-0.512500X0.150000X-0.512500X-0.150000X0.512500X-0.150000X0*%
%ADD33RoundRect,0.812500X1.687500X-0.812500X1.687500X0.812500X-1.687500X0.812500X-1.687500X-0.812500X0*%
%ADD34RoundRect,0.075000X0.225000X0.675000X-0.225000X0.675000X-0.225000X-0.675000X0.225000X-0.675000X0*%
%ADD35RoundRect,0.187500X0.812500X0.562500X-0.812500X0.562500X-0.812500X-0.562500X0.812500X-0.562500X0*%
%ADD36FreePoly1,0.000000*%
%ADD37RoundRect,0.150000X-0.200000X0.150000X-0.200000X-0.150000X0.200000X-0.150000X0.200000X0.150000X0*%
%ADD38RoundRect,0.050000X0.375000X0.050000X-0.375000X0.050000X-0.375000X-0.050000X0.375000X-0.050000X0*%
%ADD39RoundRect,0.050000X0.050000X0.375000X-0.050000X0.375000X-0.050000X-0.375000X0.050000X-0.375000X0*%
%ADD40R,1.650000X1.650000*%
%ADD41RoundRect,0.150000X0.150000X-0.512500X0.150000X0.512500X-0.150000X0.512500X-0.150000X-0.512500X0*%
%ADD42RoundRect,0.125000X-0.825000X-0.125000X0.825000X-0.125000X0.825000X0.125000X-0.825000X0.125000X0*%
%ADD43RoundRect,0.125000X0.125000X-0.537500X0.125000X0.537500X-0.125000X0.537500X-0.125000X-0.537500X0*%
%ADD44RoundRect,0.250000X-0.475000X0.250000X-0.475000X-0.250000X0.475000X-0.250000X0.475000X0.250000X0*%
%ADD45RoundRect,0.100000X0.637500X0.100000X-0.637500X0.100000X-0.637500X-0.100000X0.637500X-0.100000X0*%
G04 APERTURE END LIST*
D10*
%TO.C,SC5*%
X173500000Y-91900000D03*
X173500000Y-108900000D03*
%TD*%
%TO.C,SC6*%
X196800000Y-91900000D03*
X196800000Y-108900000D03*
%TD*%
%TO.C,SC2*%
X103600000Y-91900000D03*
X103600000Y-108900000D03*
%TD*%
%TO.C,SC7*%
X220100000Y-91900000D03*
X220100000Y-108900000D03*
%TD*%
%TO.C,SC4*%
X150200000Y-91900000D03*
X150200000Y-108900000D03*
%TD*%
%TO.C,SC3*%
X126900000Y-91900000D03*
X126900000Y-108900000D03*
%TD*%
%TO.C,SC1*%
X80300000Y-91900000D03*
X80300000Y-108900000D03*
%TD*%
D11*
%TO.C,R25*%
X167600000Y-103025000D03*
X167600000Y-101375000D03*
%TD*%
D12*
%TO.C,R6*%
X104075000Y-100600000D03*
X105725000Y-100600000D03*
%TD*%
D13*
%TO.C,J5*%
X155100000Y-103650000D03*
X153900000Y-103650000D03*
X152700000Y-103650000D03*
X151500000Y-103650000D03*
%TD*%
D14*
%TO.C,C21*%
X138425000Y-108200000D03*
X136875000Y-108200000D03*
%TD*%
D15*
%TO.C,R37*%
X170000000Y-94595000D03*
X170000000Y-96245000D03*
%TD*%
D16*
%TO.C,R46*%
X169915000Y-105630000D03*
X168265000Y-105630000D03*
%TD*%
%TO.C,R42*%
X167845000Y-110220000D03*
X166195000Y-110220000D03*
%TD*%
D14*
%TO.C,C26*%
X160725000Y-108450000D03*
X159175000Y-108450000D03*
%TD*%
D16*
%TO.C,R45*%
X147565000Y-105360000D03*
X145915000Y-105360000D03*
%TD*%
D17*
%TO.C,U4*%
X91575000Y-93300000D03*
X91575000Y-92650000D03*
X91575000Y-92000000D03*
X91575000Y-91350000D03*
X93850000Y-91350000D03*
X93850000Y-92000000D03*
X93850000Y-92650000D03*
X93850000Y-93300000D03*
%TD*%
D16*
%TO.C,R43*%
X147645000Y-106940000D03*
X145995000Y-106940000D03*
%TD*%
D14*
%TO.C,C32*%
X94900000Y-101682500D03*
X93350000Y-101682500D03*
%TD*%
D18*
%TO.C,U15*%
X135750000Y-94400000D03*
X135750000Y-95050000D03*
X135750000Y-95700000D03*
X133850000Y-95700000D03*
X133850000Y-94400000D03*
%TD*%
D12*
%TO.C,R23*%
X150375000Y-96010000D03*
X152025000Y-96010000D03*
%TD*%
%TO.C,R21*%
X150365000Y-97550000D03*
X152015000Y-97550000D03*
%TD*%
D19*
%TO.C,C20*%
X143300000Y-102700000D03*
X143300000Y-100800000D03*
%TD*%
D20*
%TO.C,C13*%
X79050000Y-95750000D03*
X80600000Y-95750000D03*
%TD*%
D21*
%TO.C,C14*%
X95725000Y-91325000D03*
X95725000Y-92875000D03*
%TD*%
D22*
%TO.C,C17*%
X93250000Y-109900000D03*
X91350000Y-109900000D03*
%TD*%
D11*
%TO.C,R38*%
X139300000Y-92625000D03*
X139300000Y-90975000D03*
%TD*%
%TO.C,R9*%
X125350000Y-104225000D03*
X125350000Y-102575000D03*
%TD*%
D23*
%TO.C,C2*%
X130225000Y-106800000D03*
X133175000Y-106800000D03*
%TD*%
D16*
%TO.C,R44*%
X169935000Y-107230000D03*
X168285000Y-107230000D03*
%TD*%
D15*
%TO.C,R30*%
X168400000Y-91150000D03*
X168400000Y-92800000D03*
%TD*%
D24*
%TO.C,C31*%
X90875000Y-98582500D03*
X90875000Y-97032500D03*
%TD*%
D14*
%TO.C,C22*%
X138425000Y-106350000D03*
X136875000Y-106350000D03*
%TD*%
%TO.C,C12*%
X126975000Y-101050000D03*
X125425000Y-101050000D03*
%TD*%
D25*
%TO.C,U3*%
X78175000Y-100950000D03*
D26*
X78125000Y-100450000D03*
X78125000Y-99950000D03*
X79275000Y-99950000D03*
X79275000Y-100450000D03*
X79275000Y-100950000D03*
%TD*%
D23*
%TO.C,C3*%
X130225000Y-104300000D03*
X133175000Y-104300000D03*
%TD*%
D21*
%TO.C,C8*%
X102600000Y-99075000D03*
X102600000Y-100625000D03*
%TD*%
%TO.C,C39*%
X146400000Y-94625000D03*
X146400000Y-96175000D03*
%TD*%
D11*
%TO.C,R5*%
X99700000Y-98846474D03*
X99700000Y-97196474D03*
%TD*%
D23*
%TO.C,C4*%
X130225000Y-101750000D03*
X133175000Y-101750000D03*
%TD*%
D16*
%TO.C,R41*%
X145525000Y-110050000D03*
X143875000Y-110050000D03*
%TD*%
D27*
%TO.C,U5*%
X91200000Y-108150000D03*
X91200000Y-107650000D03*
X91200000Y-107150000D03*
X92700000Y-107150000D03*
X92700000Y-107650000D03*
X92700000Y-108150000D03*
%TD*%
D24*
%TO.C,C24*%
X163600000Y-102975000D03*
X163600000Y-101425000D03*
%TD*%
D28*
%TO.C,L2*%
X94600000Y-106725000D03*
X94600000Y-108175000D03*
%TD*%
D23*
%TO.C,C7*%
X106675000Y-107850000D03*
X109625000Y-107850000D03*
%TD*%
D29*
%TO.C,JP3*%
X180700000Y-100950000D03*
X178300000Y-100950000D03*
D30*
X181500000Y-100950000D03*
D31*
X177500000Y-100950000D03*
%TD*%
D13*
%TO.C,J2*%
X75750000Y-99900000D03*
X74550000Y-99900000D03*
X73350000Y-99900000D03*
X72150000Y-99900000D03*
%TD*%
D16*
%TO.C,R18*%
X74275000Y-106250000D03*
X72625000Y-106250000D03*
%TD*%
D11*
%TO.C,R8*%
X127050000Y-104225000D03*
X127050000Y-102575000D03*
%TD*%
D32*
%TO.C,U8*%
X228487500Y-108000000D03*
X228487500Y-108950000D03*
X228487500Y-109900000D03*
X226212500Y-109900000D03*
X226212500Y-108950000D03*
X226212500Y-108000000D03*
%TD*%
D24*
%TO.C,C23*%
X224364883Y-109917093D03*
X224364883Y-108367093D03*
%TD*%
D21*
%TO.C,C36*%
X137400000Y-90975000D03*
X137400000Y-92525000D03*
%TD*%
D11*
%TO.C,R20*%
X139500000Y-102775000D03*
X139500000Y-101125000D03*
%TD*%
D13*
%TO.C,J3*%
X224800000Y-99350000D03*
X226000000Y-99350000D03*
X227200000Y-99350000D03*
X228400000Y-99350000D03*
%TD*%
D18*
%TO.C,U13*%
X135750000Y-91000000D03*
X135750000Y-91650000D03*
X135750000Y-92300000D03*
X133850000Y-92300000D03*
X133850000Y-91000000D03*
%TD*%
D24*
%TO.C,C9*%
X106360000Y-92955000D03*
X106360000Y-91405000D03*
%TD*%
D33*
%TO.C,L1*%
X117200000Y-108950000D03*
X117200000Y-94450000D03*
%TD*%
D13*
%TO.C,J1*%
X77240000Y-91780000D03*
X76040000Y-91780000D03*
%TD*%
D32*
%TO.C,U11*%
X95087500Y-97987500D03*
X95087500Y-98937500D03*
X95087500Y-99887500D03*
X92812500Y-99887500D03*
X92812500Y-98937500D03*
X92812500Y-97987500D03*
%TD*%
D16*
%TO.C,R32*%
X102625000Y-106225000D03*
X100975000Y-106225000D03*
%TD*%
D18*
%TO.C,U12*%
X144650000Y-91325000D03*
X144650000Y-91975000D03*
X144650000Y-92625000D03*
X142750000Y-92625000D03*
X142750000Y-91325000D03*
%TD*%
D12*
%TO.C,R34*%
X154925000Y-92750000D03*
X156575000Y-92750000D03*
%TD*%
D21*
%TO.C,C34*%
X141150000Y-91075000D03*
X141150000Y-92625000D03*
%TD*%
%TO.C,C33*%
X168400000Y-94620000D03*
X168400000Y-96170000D03*
%TD*%
D13*
%TO.C,J4*%
X73940000Y-91740000D03*
X72740000Y-91740000D03*
%TD*%
D34*
%TO.C,SW2*%
X156320000Y-109510000D03*
X155020000Y-109510000D03*
D35*
X155020000Y-106510000D03*
D34*
X153720000Y-109510000D03*
%TD*%
D29*
%TO.C,JP2*%
X180650000Y-103600000D03*
X178250000Y-103600000D03*
D30*
X181450000Y-103600000D03*
D31*
X177450000Y-103600000D03*
%TD*%
D11*
%TO.C,R19*%
X145300000Y-102775000D03*
X145300000Y-101125000D03*
%TD*%
D12*
%TO.C,R22*%
X150375000Y-94480000D03*
X152025000Y-94480000D03*
%TD*%
D32*
%TO.C,Q5*%
X112127500Y-91440000D03*
X112127500Y-93340000D03*
X109852500Y-92390000D03*
%TD*%
D31*
%TO.C,JP1*%
X96875000Y-109150000D03*
D36*
X98325000Y-109150000D03*
%TD*%
D29*
%TO.C,JP5*%
X191350000Y-100950000D03*
X188950000Y-100950000D03*
D30*
X192150000Y-100950000D03*
D31*
X188150000Y-100950000D03*
%TD*%
D16*
%TO.C,R11*%
X80650000Y-97450000D03*
X79000000Y-97450000D03*
%TD*%
D32*
%TO.C,Q1*%
X85262500Y-97825000D03*
X85262500Y-99725000D03*
X82987500Y-98775000D03*
%TD*%
D11*
%TO.C,R26*%
X161800000Y-103025000D03*
X161800000Y-101375000D03*
%TD*%
D37*
%TO.C,D1*%
X130500000Y-92275000D03*
X130500000Y-90875000D03*
%TD*%
D21*
%TO.C,C35*%
X146400000Y-91275000D03*
X146400000Y-92825000D03*
%TD*%
D31*
%TO.C,JP8*%
X97675000Y-106350000D03*
D36*
X99125000Y-106350000D03*
%TD*%
D11*
%TO.C,R10*%
X84462500Y-93050000D03*
X84462500Y-91400000D03*
%TD*%
%TO.C,R12*%
X77305000Y-97400000D03*
X77305000Y-95750000D03*
%TD*%
D13*
%TO.C,J6*%
X155100000Y-101900000D03*
X153900000Y-101900000D03*
X152700000Y-101900000D03*
X151500000Y-101900000D03*
%TD*%
D38*
%TO.C,U7*%
X143550000Y-105530000D03*
X143550000Y-105930000D03*
X143550000Y-106330000D03*
X143550000Y-106730000D03*
X143550000Y-107130000D03*
D39*
X142900000Y-107780000D03*
X142500000Y-107780000D03*
X142100000Y-107780000D03*
X141700000Y-107780000D03*
X141300000Y-107780000D03*
D38*
X140650000Y-107130000D03*
X140650000Y-106730000D03*
X140650000Y-106330000D03*
X140650000Y-105930000D03*
X140650000Y-105530000D03*
D39*
X141300000Y-104880000D03*
X141700000Y-104880000D03*
X142100000Y-104880000D03*
X142500000Y-104880000D03*
X142900000Y-104880000D03*
D40*
X142100000Y-106330000D03*
%TD*%
D14*
%TO.C,C27*%
X160725000Y-106600000D03*
X159175000Y-106600000D03*
%TD*%
D15*
%TO.C,R14*%
X87100000Y-101975000D03*
X87100000Y-103625000D03*
%TD*%
D24*
%TO.C,C15*%
X89287500Y-93000000D03*
X89287500Y-91450000D03*
%TD*%
D32*
%TO.C,Q2*%
X85300000Y-101725000D03*
X85300000Y-103625000D03*
X83025000Y-102675000D03*
%TD*%
D16*
%TO.C,R27*%
X158745000Y-103070000D03*
X157095000Y-103070000D03*
%TD*%
D24*
%TO.C,C10*%
X99700000Y-95750000D03*
X99700000Y-94200000D03*
%TD*%
D12*
%TO.C,R15*%
X86062500Y-92975000D03*
X87712500Y-92975000D03*
%TD*%
D41*
%TO.C,Q6*%
X137030000Y-100517500D03*
X135130000Y-100517500D03*
X136080000Y-98242500D03*
%TD*%
D42*
%TO.C,U10*%
X158700000Y-97075000D03*
X158700000Y-96425000D03*
X158700000Y-95775000D03*
X158700000Y-95125000D03*
X158700000Y-94475000D03*
X158700000Y-93825000D03*
X158700000Y-93175000D03*
X158700000Y-92525000D03*
X158700000Y-91875000D03*
X158700000Y-91225000D03*
X165700000Y-91225000D03*
X165700000Y-91875000D03*
X165700000Y-92525000D03*
X165700000Y-93175000D03*
X165700000Y-93825000D03*
X165700000Y-94475000D03*
X165700000Y-95125000D03*
X165700000Y-95775000D03*
X165700000Y-96425000D03*
X165700000Y-97075000D03*
%TD*%
D12*
%TO.C,R3*%
X104087500Y-99050000D03*
X105737500Y-99050000D03*
%TD*%
D15*
%TO.C,R13*%
X87100000Y-98075000D03*
X87100000Y-99725000D03*
%TD*%
D12*
%TO.C,R33*%
X135295000Y-102410000D03*
X136945000Y-102410000D03*
%TD*%
D16*
%TO.C,R24*%
X227662500Y-106300000D03*
X226012500Y-106300000D03*
%TD*%
D12*
%TO.C,R17*%
X90975000Y-105650000D03*
X92625000Y-105650000D03*
%TD*%
D24*
%TO.C,C19*%
X141300000Y-102725000D03*
X141300000Y-101175000D03*
%TD*%
D43*
%TO.C,U2*%
X127215000Y-99052500D03*
X126565000Y-99052500D03*
X125915000Y-99052500D03*
X125265000Y-99052500D03*
X125265000Y-96777500D03*
X125915000Y-96777500D03*
X126565000Y-96777500D03*
X127215000Y-96777500D03*
%TD*%
D11*
%TO.C,R36*%
X90825000Y-101807500D03*
X90825000Y-100157500D03*
%TD*%
D12*
%TO.C,R16*%
X86062500Y-91375000D03*
X87712500Y-91375000D03*
%TD*%
D16*
%TO.C,R29*%
X158745000Y-101520000D03*
X157095000Y-101520000D03*
%TD*%
%TO.C,R47*%
X115565000Y-91400000D03*
X113915000Y-91400000D03*
%TD*%
D11*
%TO.C,R7*%
X98150000Y-95800000D03*
X98150000Y-94150000D03*
%TD*%
D12*
%TO.C,R35*%
X154925000Y-91150000D03*
X156575000Y-91150000D03*
%TD*%
D21*
%TO.C,C37*%
X132150000Y-90925000D03*
X132150000Y-92475000D03*
%TD*%
D44*
%TO.C,C16*%
X89500000Y-107700000D03*
X89500000Y-109600000D03*
%TD*%
D32*
%TO.C,U6*%
X75100000Y-107950000D03*
X75100000Y-108900000D03*
X75100000Y-109850000D03*
X72825000Y-109850000D03*
X72825000Y-108900000D03*
X72825000Y-107950000D03*
%TD*%
D24*
%TO.C,C30*%
X156500000Y-97575000D03*
X156500000Y-96025000D03*
%TD*%
D19*
%TO.C,C29*%
X97000000Y-104200000D03*
X97000000Y-102300000D03*
%TD*%
D45*
%TO.C,U1*%
X107600000Y-95225000D03*
X107600000Y-95875000D03*
X107600000Y-96525000D03*
X107600000Y-97175000D03*
X101875000Y-97175000D03*
X101875000Y-96525000D03*
X101875000Y-95875000D03*
X101875000Y-95225000D03*
%TD*%
D23*
%TO.C,C6*%
X106675000Y-105450000D03*
X109625000Y-105450000D03*
%TD*%
D21*
%TO.C,C41*%
X132150000Y-94325000D03*
X132150000Y-95875000D03*
%TD*%
D19*
%TO.C,C28*%
X99050000Y-104200000D03*
X99050000Y-102300000D03*
%TD*%
D21*
%TO.C,C38*%
X141150000Y-94625000D03*
X141150000Y-96175000D03*
%TD*%
D15*
%TO.C,R2*%
X107600000Y-98975000D03*
X107600000Y-100625000D03*
%TD*%
D23*
%TO.C,C1*%
X130225000Y-109300000D03*
X133175000Y-109300000D03*
%TD*%
D14*
%TO.C,C11*%
X126750000Y-95000000D03*
X125200000Y-95000000D03*
%TD*%
D24*
%TO.C,C18*%
X76925000Y-109875000D03*
X76925000Y-108325000D03*
%TD*%
D16*
%TO.C,R1*%
X127075000Y-105800000D03*
X125425000Y-105800000D03*
%TD*%
D18*
%TO.C,U14*%
X144650000Y-94650000D03*
X144650000Y-95300000D03*
X144650000Y-95950000D03*
X142750000Y-95950000D03*
X142750000Y-94650000D03*
%TD*%
D19*
%TO.C,C25*%
X165600000Y-102950000D03*
X165600000Y-101050000D03*
%TD*%
D16*
%TO.C,R28*%
X158735000Y-99960000D03*
X157085000Y-99960000D03*
%TD*%
D29*
%TO.C,JP4*%
X191300000Y-103600000D03*
X188900000Y-103600000D03*
D30*
X192100000Y-103600000D03*
D31*
X188100000Y-103600000D03*
%TD*%
D15*
%TO.C,R4*%
X107940000Y-91345000D03*
X107940000Y-92995000D03*
%TD*%
D21*
%TO.C,C40*%
X137400000Y-94375000D03*
X137400000Y-95925000D03*
%TD*%
D23*
%TO.C,C5*%
X106675000Y-103050000D03*
X109625000Y-103050000D03*
%TD*%
D38*
%TO.C,U9*%
X165850000Y-105780000D03*
X165850000Y-106180000D03*
X165850000Y-106580000D03*
X165850000Y-106980000D03*
X165850000Y-107380000D03*
D39*
X165200000Y-108030000D03*
X164800000Y-108030000D03*
X164400000Y-108030000D03*
X164000000Y-108030000D03*
X163600000Y-108030000D03*
D38*
X162950000Y-107380000D03*
X162950000Y-106980000D03*
X162950000Y-106580000D03*
X162950000Y-106180000D03*
X162950000Y-105780000D03*
D39*
X163600000Y-105130000D03*
X164000000Y-105130000D03*
X164400000Y-105130000D03*
X164800000Y-105130000D03*
X165200000Y-105130000D03*
D40*
X164400000Y-106580000D03*
%TD*%
D15*
%TO.C,R31*%
X170000000Y-91175000D03*
X170000000Y-92825000D03*
%TD*%
M02*
