%TF.GenerationSoftware,KiCad,Pcbnew,8.0.8*%
%TF.CreationDate,2025-01-27T20:20:51-05:00*%
%TF.ProjectId,KSS_V50,4b53535f-5635-4302-9e6b-696361645f70,rev?*%
%TF.SameCoordinates,Original*%
%TF.FileFunction,Copper,L1,Top*%
%TF.FilePolarity,Positive*%
%FSLAX46Y46*%
G04 Gerber Fmt 4.6, Leading zero omitted, Abs format (unit mm)*
G04 Created by KiCad (PCBNEW 8.0.8) date 2025-01-27 20:20:51*
%MOMM*%
%LPD*%
G01*
G04 APERTURE LIST*
G04 Aperture macros list*
%AMRoundRect*
0 Rectangle with rounded corners*
0 $1 Rounding radius*
0 $2 $3 $4 $5 $6 $7 $8 $9 X,Y pos of 4 corners*
0 Add a 4 corners polygon primitive as box body*
4,1,4,$2,$3,$4,$5,$6,$7,$8,$9,$2,$3,0*
0 Add four circle primitives for the rounded corners*
1,1,$1+$1,$2,$3*
1,1,$1+$1,$4,$5*
1,1,$1+$1,$6,$7*
1,1,$1+$1,$8,$9*
0 Add four rect primitives between the rounded corners*
20,1,$1+$1,$2,$3,$4,$5,0*
20,1,$1+$1,$4,$5,$6,$7,0*
20,1,$1+$1,$6,$7,$8,$9,0*
20,1,$1+$1,$8,$9,$2,$3,0*%
G04 Aperture macros list end*
%TA.AperFunction,ComponentPad*%
%ADD10C,3.000000*%
%TD*%
%TA.AperFunction,ComponentPad*%
%ADD11R,1.700000X1.700000*%
%TD*%
%TA.AperFunction,ComponentPad*%
%ADD12O,1.700000X1.700000*%
%TD*%
%TA.AperFunction,ComponentPad*%
%ADD13RoundRect,0.250000X-0.625000X0.350000X-0.625000X-0.350000X0.625000X-0.350000X0.625000X0.350000X0*%
%TD*%
%TA.AperFunction,ComponentPad*%
%ADD14O,1.750000X1.200000*%
%TD*%
%TA.AperFunction,ComponentPad*%
%ADD15C,6.200000*%
%TD*%
%TA.AperFunction,ViaPad*%
%ADD16C,0.635000*%
%TD*%
%TA.AperFunction,ViaPad*%
%ADD17C,0.600000*%
%TD*%
%TA.AperFunction,Conductor*%
%ADD18C,0.508000*%
%TD*%
%TA.AperFunction,Conductor*%
%ADD19C,1.016000*%
%TD*%
%TA.AperFunction,Conductor*%
%ADD20C,0.203200*%
%TD*%
%TA.AperFunction,Conductor*%
%ADD21C,0.203000*%
%TD*%
%TA.AperFunction,Conductor*%
%ADD22C,0.254000*%
%TD*%
G04 APERTURE END LIST*
D10*
%TO.P,SC7,1,+*%
%TO.N,/MPPT/Solar_Cell_Out*%
X222982400Y-87274400D03*
%TO.P,SC7,2,-*%
%TO.N,GND*%
X231982400Y-87274400D03*
%TD*%
%TO.P,SC4,1,+*%
%TO.N,/MPPT/Solar_Cell_Out*%
X156478400Y-87279200D03*
%TO.P,SC4,2,-*%
%TO.N,GND*%
X165478400Y-87279200D03*
%TD*%
%TO.P,SC2,1,+*%
%TO.N,/MPPT/Solar_Cell_Out*%
X112230000Y-87274400D03*
%TO.P,SC2,2,-*%
%TO.N,GND*%
X121230000Y-87274400D03*
%TD*%
%TO.P,SC3,1,+*%
%TO.N,/MPPT/Solar_Cell_Out*%
X134357600Y-87279200D03*
%TO.P,SC3,2,-*%
%TO.N,GND*%
X143357600Y-87279200D03*
%TD*%
%TO.P,SC6,1,+*%
%TO.N,/MPPT/Solar_Cell_Out*%
X200782800Y-87279200D03*
%TO.P,SC6,2,-*%
%TO.N,GND*%
X209782800Y-87279200D03*
%TD*%
%TO.P,SC1,1,+*%
%TO.N,/MPPT/Solar_Cell_Out*%
X90081200Y-87274400D03*
%TO.P,SC1,2,-*%
%TO.N,GND*%
X99081200Y-87274400D03*
%TD*%
%TO.P,SC5,1,+*%
%TO.N,/MPPT/Solar_Cell_Out*%
X178634000Y-87274400D03*
%TO.P,SC5,2,-*%
%TO.N,GND*%
X187634000Y-87274400D03*
%TD*%
D11*
%TO.P,J5,1,Pin_1*%
%TO.N,+V_PROG_EXT*%
X116915000Y-100775000D03*
D12*
%TO.P,J5,2,Pin_2*%
%TO.N,/MCU_Prog_Comm/RX_PROG_EXT*%
X114375000Y-100775000D03*
%TO.P,J5,3,Pin_3*%
%TO.N,/MCU_Prog_Comm/TX_PROG_EXT*%
X111835000Y-100775000D03*
%TO.P,J5,4,Pin_4*%
%TO.N,/MCU_Prog_Comm/RX_COMM_EXT*%
X109295000Y-100775000D03*
%TO.P,J5,5,Pin_5*%
%TO.N,/MCU_Prog_Comm/TX_COMM_EXT*%
X106755000Y-100775000D03*
%TO.P,J5,6,Pin_6*%
%TO.N,GND*%
X104215000Y-100775000D03*
%TO.P,J5,7,Pin_7*%
%TO.N,+V_BAT*%
X101675000Y-100775000D03*
%TD*%
D13*
%TO.P,J1,1,Pin_1*%
%TO.N,Net-(J1-Pin_1)*%
X135421200Y-92827600D03*
D14*
%TO.P,J1,2,Pin_2*%
%TO.N,Net-(J1-Pin_2)*%
X135421200Y-94827600D03*
%TD*%
D15*
%TO.P,H2,1*%
%TO.N,N/C*%
X229050000Y-93175000D03*
%TD*%
%TO.P,H1,1*%
%TO.N,N/C*%
X121950000Y-100675000D03*
%TD*%
D16*
%TO.N,GND*%
X150295600Y-100446000D03*
X165700000Y-97800000D03*
X115235600Y-109738000D03*
X145095600Y-108646000D03*
X91948000Y-104978200D03*
X229805500Y-111173700D03*
X91948000Y-111048800D03*
X156650000Y-94650000D03*
X117225000Y-103300000D03*
X164400000Y-106580000D03*
X147497800Y-101295200D03*
X151095600Y-106526000D03*
X147895600Y-105246000D03*
X168600000Y-101400000D03*
X149645600Y-108846000D03*
X119430800Y-91516200D03*
X142443200Y-109423200D03*
X133223000Y-107721400D03*
X112344200Y-108585000D03*
X163600000Y-100500000D03*
X193500000Y-100950000D03*
X87884000Y-108508800D03*
X158300000Y-106600000D03*
X162950000Y-108900000D03*
X142316200Y-104495600D03*
X108650100Y-106049456D03*
X137429972Y-100584000D03*
X128745200Y-103301800D03*
X155295600Y-101346000D03*
X152295600Y-100046000D03*
X133063000Y-101025000D03*
X182850000Y-100950000D03*
X132301000Y-101025000D03*
X137845800Y-108889800D03*
X116035600Y-109738000D03*
X158300000Y-108450000D03*
X120802400Y-95173800D03*
X116835600Y-109738000D03*
X133825000Y-101025000D03*
X160900000Y-105400000D03*
D17*
X153450000Y-88025000D03*
D16*
X167690800Y-96570800D03*
X165600000Y-100100000D03*
X144995600Y-106896000D03*
X160850000Y-101350000D03*
X98831400Y-108241800D03*
D17*
%TO.N,/MPPT/Solar_Cell_Out*%
X140875000Y-87100000D03*
D16*
%TO.N,+2.5V*%
X171100000Y-90650000D03*
X123215400Y-108153200D03*
X101935222Y-105671500D03*
X123952000Y-107772200D03*
X165600000Y-102100000D03*
X112293400Y-109601000D03*
X108585000Y-105308400D03*
X152298400Y-102031800D03*
X123215400Y-107365800D03*
X98806000Y-109804200D03*
X158200000Y-98200000D03*
D17*
%TO.N,+V_BAT*%
X120650000Y-111404400D03*
X125825000Y-103000000D03*
X135864600Y-109067600D03*
X101675000Y-94450000D03*
X133502400Y-92837000D03*
X131546600Y-103022400D03*
X133756400Y-103022400D03*
%TO.N,Net-(U3-BAT)*%
X124525000Y-97775000D03*
X128575000Y-99450000D03*
%TO.N,+V_PROG_EXT*%
X113700000Y-111175000D03*
%TO.N,Net-(JP6-B)*%
X136750000Y-86825000D03*
X138582400Y-100380800D03*
%TO.N,Net-(J1-Pin_2)*%
X126325000Y-94200000D03*
X128650000Y-98240800D03*
%TO.N,Net-(U3-V-)*%
X128525000Y-100250000D03*
X121625000Y-96826600D03*
D16*
%TO.N,/Motor_Driver_1/DIR*%
X160180900Y-96400000D03*
X159861800Y-104600000D03*
D17*
X147600000Y-99325000D03*
%TO.N,/Motor_Driver_1/EN*%
X154750000Y-94400000D03*
D16*
X155745600Y-108946000D03*
X163200000Y-93150000D03*
D17*
X145796000Y-105410000D03*
D16*
%TO.N,/Motor_Driver_1/STEP*%
X163760000Y-98300000D03*
D17*
X153949400Y-99771200D03*
D16*
X163850000Y-96300000D03*
X153745600Y-107946000D03*
%TO.N,/Motor_Driver_2/DIR*%
X168400000Y-100200000D03*
X161950000Y-92450000D03*
X160900000Y-99700000D03*
X168050000Y-104500000D03*
%TO.N,/Motor_Driver_2/EN*%
X160470000Y-103600000D03*
X164080000Y-109990000D03*
X161550000Y-110019100D03*
X162350000Y-95100000D03*
X168580000Y-109619100D03*
%TO.N,/Motor_Driver_2/STEP*%
X167300000Y-99100000D03*
X162900000Y-99100000D03*
X167300000Y-107950000D03*
X163100000Y-94400000D03*
D17*
%TO.N,/MCU/MODE_SW_1*%
X160850000Y-92500000D03*
X153400000Y-92500000D03*
%TO.N,/SCL*%
X123418600Y-93218000D03*
D16*
X160700000Y-90847500D03*
D17*
X123367800Y-90551000D03*
D16*
X142505300Y-107665600D03*
D17*
X143103600Y-91059000D03*
%TO.N,Net-(U11-OUT)*%
X122174000Y-112877600D03*
X126800000Y-101976300D03*
X97459800Y-112141000D03*
D16*
X164850000Y-98350000D03*
%TO.N,/MCU/MCU_UPDI*%
X164025000Y-94175000D03*
D17*
X118200000Y-94875000D03*
X113775000Y-110050000D03*
%TO.N,/MCU/HALL_IN_1*%
X144627600Y-92024200D03*
D16*
X162748559Y-91871578D03*
D17*
X96088200Y-113385600D03*
X144068800Y-113207800D03*
%TO.N,/MCU/HALL_IN_2*%
X209931000Y-109829600D03*
D16*
X161550000Y-97850000D03*
X182100000Y-97400000D03*
X209950000Y-97200000D03*
D17*
%TO.N,/MCU_Prog_Comm/RX_PROG_EXT*%
X112575000Y-107650000D03*
X107233552Y-107650448D03*
%TO.N,/MCU_Prog_Comm/TX_PROG_EXT*%
X104063800Y-105654000D03*
X105416600Y-101733400D03*
%TO.N,/MCU_Prog_Comm/RX_COMM_EXT*%
X101475000Y-107275000D03*
X103022400Y-96164400D03*
X110425000Y-96325000D03*
%TO.N,/MCU_Prog_Comm/TX_COMM_EXT*%
X109700000Y-111785400D03*
X104525000Y-112000000D03*
%TO.N,/Motor_Driver_1/MS1*%
X156083000Y-110667800D03*
D16*
X179700000Y-106450000D03*
%TO.N,/Motor_Driver_1/MS2*%
X178900000Y-98800000D03*
X152014700Y-109096000D03*
D17*
X151075000Y-99900000D03*
D16*
%TO.N,/Motor_Driver_2/MS1*%
X190150000Y-105850000D03*
X177900000Y-109600000D03*
X190200000Y-109350000D03*
%TO.N,/Motor_Driver_2/MS2*%
X170050000Y-109100000D03*
X185050000Y-99000000D03*
X184750000Y-108250000D03*
D17*
%TO.N,/SDA*%
X119100600Y-92456000D03*
X142163800Y-106476800D03*
X161874200Y-90551000D03*
X141274800Y-91440000D03*
%TO.N,/MCU/MCU_RX*%
X109347000Y-97510600D03*
D16*
X161550000Y-96300000D03*
D17*
X109169200Y-110464600D03*
%TO.N,/MCU/MCU_TX*%
X103555800Y-97002600D03*
D16*
X163900000Y-95000000D03*
D17*
X103403400Y-110439200D03*
%TO.N,/Motor_Driver_1/OB2*%
X94267500Y-99982500D03*
X94200000Y-103325000D03*
D16*
X148895600Y-105246000D03*
%TO.N,/Motor_Driver_1/OA2*%
X153295600Y-105296000D03*
D17*
X98975000Y-97104200D03*
X99075000Y-103075000D03*
%TO.N,/Motor_Driver_1/OB1*%
X94925000Y-103875000D03*
X95046800Y-98806000D03*
D16*
X150012400Y-104089200D03*
D17*
%TO.N,/Motor_Driver_1/OA1*%
X99425000Y-95402400D03*
X99900000Y-102700000D03*
D16*
X152395600Y-104046000D03*
%TO.N,/Motor_Driver_2/OB2*%
X162150000Y-105350000D03*
D17*
X226009200Y-97688400D03*
X226009200Y-105029000D03*
%TO.N,/Motor_Driver_2/OA2*%
X224002600Y-103428800D03*
D16*
X166550000Y-105400000D03*
D17*
X224002600Y-100634800D03*
%TO.N,/Motor_Driver_2/OB1*%
X225069400Y-98958400D03*
X225069400Y-104292400D03*
D16*
X163100000Y-104100000D03*
%TO.N,/Motor_Driver_2/OA1*%
X165700000Y-104100000D03*
D17*
X219846400Y-102600000D03*
%TO.N,+2.5V_FILT*%
X92506800Y-108762800D03*
X128778000Y-111556800D03*
X124900000Y-94125000D03*
%TO.N,/MCU/MPPT_SHDN*%
X160121600Y-93180000D03*
X136855200Y-110032800D03*
X137668000Y-93573600D03*
%TO.N,/VIO_MOT*%
X211201000Y-113207800D03*
X178892200Y-111531400D03*
X146825000Y-98025000D03*
X146227800Y-114274600D03*
D16*
X146253200Y-109728000D03*
D17*
X159715200Y-109651800D03*
X97002600Y-114472550D03*
X154950000Y-96675000D03*
X188493400Y-112903000D03*
%TO.N,/MCU/MOT_STBY*%
X152501600Y-97274200D03*
X153650000Y-94200000D03*
D16*
X164110000Y-93280000D03*
%TD*%
D18*
%TO.N,GND*%
X143511800Y-87125000D02*
X143357600Y-87279200D01*
D19*
%TO.N,/MPPT/Solar_Cell_Out*%
X198679600Y-89382400D02*
X180742000Y-89382400D01*
X140925000Y-89387200D02*
X138684000Y-89387200D01*
X92189200Y-89382400D02*
X90081200Y-87274400D01*
X178634000Y-87274400D02*
X176398800Y-89509600D01*
X220751400Y-89458800D02*
X202962400Y-89458800D01*
X140925000Y-89387200D02*
X140925000Y-87150000D01*
X154370400Y-89387200D02*
X140925000Y-89387200D01*
X138684000Y-89387200D02*
X136465600Y-89387200D01*
X222935800Y-87274400D02*
X220751400Y-89458800D01*
X132254400Y-89382400D02*
X114338000Y-89382400D01*
X134357600Y-87279200D02*
X132254400Y-89382400D01*
X110122000Y-89382400D02*
X92189200Y-89382400D01*
X140925000Y-87150000D02*
X140875000Y-87100000D01*
X136465600Y-89387200D02*
X134357600Y-87279200D01*
X222982400Y-87274400D02*
X222935800Y-87274400D01*
X156478400Y-87279200D02*
X154370400Y-89387200D01*
X180742000Y-89382400D02*
X178634000Y-87274400D01*
X112230000Y-87274400D02*
X110122000Y-89382400D01*
X114338000Y-89382400D02*
X112230000Y-87274400D01*
X202962400Y-89458800D02*
X200782800Y-87279200D01*
X176398800Y-89509600D02*
X158708800Y-89509600D01*
X200782800Y-87279200D02*
X198679600Y-89382400D01*
X158708800Y-89509600D02*
X156478400Y-87279200D01*
D18*
%TO.N,+V_BAT*%
X120500000Y-93475000D02*
X121700000Y-92275000D01*
X121700000Y-92275000D02*
X133050000Y-92275000D01*
X133050000Y-92275000D02*
X133502400Y-92727400D01*
X133502400Y-92727400D02*
X133502400Y-92837000D01*
X133756400Y-103022400D02*
X131546600Y-103022400D01*
X126194700Y-102630300D02*
X131154500Y-102630300D01*
X125825000Y-103000000D02*
X126194700Y-102630300D01*
X101675000Y-94450000D02*
X102650000Y-93475000D01*
X131154500Y-102630300D02*
X131546600Y-103022400D01*
X102650000Y-93475000D02*
X120500000Y-93475000D01*
D20*
%TO.N,Net-(U3-BAT)*%
X128750000Y-99450000D02*
X128575000Y-99450000D01*
X124525000Y-97775000D02*
X125925000Y-97775000D01*
X126175000Y-100125000D02*
X127125000Y-101075000D01*
X125925000Y-97775000D02*
X126175000Y-98025000D01*
X129175000Y-100825000D02*
X129175000Y-99875000D01*
X128925000Y-101075000D02*
X129175000Y-100825000D01*
X126175000Y-98025000D02*
X126175000Y-100125000D01*
X127125000Y-101075000D02*
X128925000Y-101075000D01*
X129175000Y-99875000D02*
X128750000Y-99450000D01*
%TO.N,Net-(U3-V-)*%
X127351600Y-97351600D02*
X127351600Y-99901600D01*
X121625000Y-96826600D02*
X121948400Y-97150000D01*
X127150000Y-97150000D02*
X127351600Y-97351600D01*
X127700000Y-100250000D02*
X128525000Y-100250000D01*
X127351600Y-99901600D02*
X127700000Y-100250000D01*
X121948400Y-97150000D02*
X127150000Y-97150000D01*
%TO.N,/Motor_Driver_1/DIR*%
X154500000Y-100650000D02*
X154100000Y-101050000D01*
X159861800Y-104600000D02*
X159861800Y-101611800D01*
X149325000Y-101050000D02*
X147600000Y-99325000D01*
X158900000Y-100650000D02*
X154500000Y-100650000D01*
X159861800Y-101611800D02*
X158900000Y-100650000D01*
X154100000Y-101050000D02*
X149325000Y-101050000D01*
%TO.N,/Motor_Driver_1/EN*%
X163200000Y-93150000D02*
X162971210Y-93150000D01*
X155016200Y-105918000D02*
X146304000Y-105918000D01*
X162971210Y-93150000D02*
X162014210Y-94107000D01*
X162014210Y-94107000D02*
X155043000Y-94107000D01*
X155043000Y-94107000D02*
X154750000Y-94400000D01*
X155745600Y-108946000D02*
X155745600Y-106647400D01*
X155745600Y-106647400D02*
X155016200Y-105918000D01*
X146304000Y-105918000D02*
X145796000Y-105410000D01*
D21*
%TO.N,/Motor_Driver_2/EN*%
X168209100Y-109990000D02*
X164080000Y-109990000D01*
X168580000Y-109619100D02*
X168209100Y-109990000D01*
D20*
%TO.N,/MCU/MODE_SW_1*%
X160850000Y-92500000D02*
X153400000Y-92500000D01*
%TO.N,/SCL*%
X153032800Y-90982800D02*
X152754500Y-90704500D01*
X152601000Y-90551000D02*
X143941800Y-90551000D01*
X143941800Y-90551000D02*
X123367800Y-90551000D01*
X160242500Y-90390000D02*
X156066200Y-90390000D01*
X156066200Y-90390000D02*
X155473400Y-90982800D01*
X143941800Y-90551000D02*
X143103600Y-90551000D01*
X152754500Y-90704500D02*
X152601000Y-90551000D01*
X143103600Y-90551000D02*
X143103600Y-91059000D01*
X152754500Y-90704500D02*
X152700000Y-90650000D01*
X155473400Y-90982800D02*
X153032800Y-90982800D01*
X160700000Y-90847500D02*
X160242500Y-90390000D01*
%TO.N,Net-(U11-OUT)*%
X137693319Y-98602800D02*
X147952800Y-98602800D01*
X122097800Y-112801400D02*
X98120200Y-112801400D01*
X98120200Y-112801400D02*
X97459800Y-112141000D01*
X126800000Y-101976300D02*
X126880900Y-102057200D01*
X126880900Y-102057200D02*
X131861081Y-102057200D01*
X162353219Y-97780900D02*
X164280900Y-97780900D01*
X132072981Y-102269100D02*
X134027019Y-102269100D01*
X148250000Y-98900000D02*
X161234119Y-98900000D01*
X164280900Y-97780900D02*
X164850000Y-98350000D01*
X131861081Y-102057200D02*
X132072981Y-102269100D01*
X122174000Y-112877600D02*
X122097800Y-112801400D01*
X147952800Y-98602800D02*
X148250000Y-98900000D01*
X134027019Y-102269100D02*
X137693319Y-98602800D01*
X161234119Y-98900000D02*
X162353219Y-97780900D01*
%TO.N,/MCU/MCU_UPDI*%
X118375000Y-95050000D02*
X119575000Y-95050000D01*
X162800000Y-93750000D02*
X163600000Y-93750000D01*
X138770600Y-95200000D02*
X161350000Y-95200000D01*
X120217900Y-95692900D02*
X138277700Y-95692900D01*
X119575000Y-95050000D02*
X120217900Y-95692900D01*
X161350000Y-95200000D02*
X162800000Y-93750000D01*
X118200000Y-94875000D02*
X118375000Y-95050000D01*
X163600000Y-93750000D02*
X164025000Y-94175000D01*
X138277700Y-95692900D02*
X138770600Y-95200000D01*
%TO.N,/MCU/HALL_IN_1*%
X144901800Y-91750000D02*
X144627600Y-92024200D01*
X144068800Y-113207800D02*
X143891000Y-113385600D01*
X143891000Y-113385600D02*
X96088200Y-113385600D01*
X162626981Y-91750000D02*
X144901800Y-91750000D01*
X162748559Y-91871578D02*
X162626981Y-91750000D01*
%TO.N,/MCU/HALL_IN_2*%
X181900000Y-97600000D02*
X182100000Y-97400000D01*
X166797059Y-97230000D02*
X167167059Y-97600000D01*
X167167059Y-97600000D02*
X181900000Y-97600000D01*
X161550000Y-97850000D02*
X162170000Y-97230000D01*
X162170000Y-97230000D02*
X166797059Y-97230000D01*
%TO.N,/MCU_Prog_Comm/RX_PROG_EXT*%
X107233552Y-107650448D02*
X107836304Y-108253200D01*
X109865916Y-108253200D02*
X110469116Y-107650000D01*
X110469116Y-107650000D02*
X112575000Y-107650000D01*
X107836304Y-108253200D02*
X109865916Y-108253200D01*
%TO.N,/MCU_Prog_Comm/TX_PROG_EXT*%
X111425000Y-102050000D02*
X111835000Y-101640000D01*
X111835000Y-101640000D02*
X111835000Y-100775000D01*
X105733200Y-102050000D02*
X111425000Y-102050000D01*
X105416600Y-101733400D02*
X105733200Y-102050000D01*
%TO.N,/MCU_Prog_Comm/RX_COMM_EXT*%
X110425000Y-96325000D02*
X110264400Y-96164400D01*
X109250000Y-101275000D02*
X109245000Y-101270000D01*
X110264400Y-96164400D02*
X103022400Y-96164400D01*
X109245000Y-101270000D02*
X109245000Y-100325000D01*
X109250000Y-101525000D02*
X109250000Y-101275000D01*
%TO.N,/MCU_Prog_Comm/TX_COMM_EXT*%
X109700000Y-111785400D02*
X109173000Y-112312400D01*
X109173000Y-112312400D02*
X104837400Y-112312400D01*
X104837400Y-112312400D02*
X104525000Y-112000000D01*
D22*
%TO.N,/Motor_Driver_1/MS1*%
X169200000Y-107650000D02*
X169200000Y-110070000D01*
X156115200Y-110700000D02*
X156083000Y-110667800D01*
X169200000Y-110070000D02*
X168570000Y-110700000D01*
X179250000Y-106000000D02*
X170850000Y-106000000D01*
X156150000Y-110700000D02*
X156115200Y-110700000D01*
X170850000Y-106000000D02*
X169200000Y-107650000D01*
X168570000Y-110700000D02*
X156150000Y-110700000D01*
X179700000Y-106450000D02*
X179250000Y-106000000D01*
D20*
%TO.N,/Motor_Driver_1/MS2*%
X161664518Y-99669600D02*
X161502659Y-99831459D01*
X165353219Y-98580900D02*
X164264519Y-99669600D01*
X151075000Y-99900000D02*
X151705400Y-99269600D01*
X164264519Y-99669600D02*
X161664518Y-99669600D01*
X178900000Y-98800000D02*
X178680900Y-98580900D01*
X161575656Y-99758463D02*
X161502659Y-99831459D01*
X151705400Y-99269600D02*
X154184400Y-99269600D01*
X154184400Y-99269600D02*
X155133900Y-100219100D01*
X161115019Y-100219100D02*
X161502659Y-99831459D01*
X155133900Y-100219100D02*
X161115019Y-100219100D01*
X178680900Y-98580900D02*
X165353219Y-98580900D01*
%TO.N,/Motor_Driver_2/MS1*%
X178100000Y-109400000D02*
X177900000Y-109600000D01*
X190150000Y-109400000D02*
X178100000Y-109400000D01*
X190200000Y-109350000D02*
X190150000Y-109400000D01*
%TO.N,/Motor_Driver_2/MS2*%
X176150000Y-108250000D02*
X174500000Y-106600000D01*
X184750000Y-108250000D02*
X176150000Y-108250000D01*
X172550000Y-106600000D02*
X170050000Y-109100000D01*
X174500000Y-106600000D02*
X172550000Y-106600000D01*
%TO.N,/SDA*%
X161058600Y-91366600D02*
X144091400Y-91366600D01*
X144091400Y-91366600D02*
X143738600Y-91719400D01*
X141274800Y-91440000D02*
X120241119Y-91440000D01*
X141554200Y-91719400D02*
X141274800Y-91440000D01*
X119225119Y-92456000D02*
X119100600Y-92456000D01*
X120241119Y-91440000D02*
X119225119Y-92456000D01*
X143738600Y-91719400D02*
X141554200Y-91719400D01*
X161874200Y-90551000D02*
X161058600Y-91366600D01*
%TO.N,/MCU/MCU_RX*%
X158410400Y-95910400D02*
X159600000Y-97100000D01*
X143687800Y-95986600D02*
X143764000Y-95910400D01*
X160500000Y-97100000D02*
X161300000Y-96300000D01*
X159600000Y-97100000D02*
X160500000Y-97100000D01*
X161300000Y-96300000D02*
X161550000Y-96300000D01*
X142163400Y-95986600D02*
X143687800Y-95986600D01*
X141825000Y-96325000D02*
X142163400Y-95986600D01*
X109347000Y-97510600D02*
X114564400Y-97510600D01*
X115750000Y-96325000D02*
X141825000Y-96325000D01*
X114564400Y-97510600D02*
X115750000Y-96325000D01*
X143764000Y-95910400D02*
X158410400Y-95910400D01*
%TO.N,/MCU/MCU_TX*%
X162019881Y-95504000D02*
X139369800Y-95504000D01*
X114422400Y-97002600D02*
X103555800Y-97002600D01*
X115425000Y-96000000D02*
X114422400Y-97002600D01*
X139369800Y-95504000D02*
X138873800Y-96000000D01*
X138873800Y-96000000D02*
X115425000Y-96000000D01*
X163900000Y-95000000D02*
X163750000Y-95000000D01*
X163130900Y-95619100D02*
X162134981Y-95619100D01*
X163750000Y-95000000D02*
X163130900Y-95619100D01*
X162134981Y-95619100D02*
X162019881Y-95504000D01*
D18*
%TO.N,/Motor_Driver_1/OB2*%
X141554200Y-105232200D02*
X142925800Y-105232200D01*
X138325700Y-104574500D02*
X140896500Y-104574500D01*
X108305600Y-107797600D02*
X109677200Y-107797600D01*
X143583500Y-104574500D02*
X148224100Y-104574500D01*
X148224100Y-104574500D02*
X148895600Y-105246000D01*
X142925800Y-105232200D02*
X143583500Y-104574500D01*
X95125104Y-105000000D02*
X105508000Y-105000000D01*
X94200000Y-103325000D02*
X94200000Y-104074896D01*
X136398000Y-106502200D02*
X138325700Y-104574500D01*
X109677200Y-107797600D02*
X110972600Y-106502200D01*
X94200000Y-104074896D02*
X95125104Y-105000000D01*
X140896500Y-104574500D02*
X141554200Y-105232200D01*
X110972600Y-106502200D02*
X136398000Y-106502200D01*
X105508000Y-105000000D02*
X108305600Y-107797600D01*
%TO.N,/Motor_Driver_1/OA2*%
X113378500Y-104971500D02*
X135528500Y-104971500D01*
X135528500Y-104971500D02*
X137550000Y-102950000D01*
X107796400Y-104546400D02*
X112953400Y-104546400D01*
X150349955Y-102950000D02*
X152695955Y-105296000D01*
X99075000Y-103075000D02*
X99450000Y-103450000D01*
X99450000Y-103450000D02*
X106700000Y-103450000D01*
X112953400Y-104546400D02*
X113378500Y-104971500D01*
X152695955Y-105296000D02*
X153295600Y-105296000D01*
X137550000Y-102950000D02*
X150349955Y-102950000D01*
X106700000Y-103450000D02*
X107796400Y-104546400D01*
%TO.N,/Motor_Driver_1/OB1*%
X140800000Y-103850000D02*
X140825900Y-103824100D01*
X105901000Y-104250000D02*
X108701000Y-107050000D01*
X94925000Y-103875000D02*
X95300000Y-104250000D01*
X95300000Y-104250000D02*
X105901000Y-104250000D01*
X110632600Y-105750000D02*
X135950000Y-105750000D01*
X149747300Y-103824100D02*
X150012400Y-104089200D01*
X137850000Y-103850000D02*
X140800000Y-103850000D01*
X108701000Y-107050000D02*
X109332600Y-107050000D01*
X140825900Y-103824100D02*
X149747300Y-103824100D01*
X135950000Y-105750000D02*
X137850000Y-103850000D01*
X109332600Y-107050000D02*
X110632600Y-105750000D01*
%TO.N,/Motor_Driver_1/OA1*%
X108356400Y-103886000D02*
X113334800Y-103886000D01*
X135033800Y-104216200D02*
X137100000Y-102150000D01*
X150499600Y-102150000D02*
X152395600Y-104046000D01*
X113334800Y-103886000D02*
X113665000Y-104216200D01*
X99950000Y-102650000D02*
X107120400Y-102650000D01*
X113665000Y-104216200D02*
X135033800Y-104216200D01*
X107120400Y-102650000D02*
X108356400Y-103886000D01*
X99900000Y-102700000D02*
X99950000Y-102650000D01*
X137100000Y-102150000D02*
X150499600Y-102150000D01*
%TO.N,/Motor_Driver_2/OB2*%
X163300000Y-107650000D02*
X162150000Y-106500000D01*
X225880200Y-105158000D02*
X226009200Y-105029000D01*
X224142000Y-105158000D02*
X170092000Y-105158000D01*
X166650000Y-107100000D02*
X166100000Y-107650000D01*
X170092000Y-105158000D02*
X168150000Y-107100000D01*
X162150000Y-106500000D02*
X162150000Y-105350000D01*
X224142000Y-105158000D02*
X225880200Y-105158000D01*
X166100000Y-107650000D02*
X163300000Y-107650000D01*
X168150000Y-107100000D02*
X166650000Y-107100000D01*
%TO.N,/Motor_Driver_2/OA2*%
X166550000Y-105400000D02*
X166550000Y-104300000D01*
X222900000Y-103450000D02*
X223981400Y-103450000D01*
X223981400Y-103450000D02*
X224002600Y-103428800D01*
X167400000Y-103450000D02*
X222900000Y-103450000D01*
X166550000Y-104300000D02*
X167400000Y-103450000D01*
%TO.N,/Motor_Driver_2/OB1*%
X163600000Y-104100000D02*
X165800000Y-106300000D01*
X165800000Y-106300000D02*
X167700000Y-106300000D01*
X225061800Y-104300000D02*
X225069400Y-104292400D01*
X163100000Y-104100000D02*
X163600000Y-104100000D01*
X169700000Y-104300000D02*
X223400000Y-104300000D01*
X167700000Y-106300000D02*
X169700000Y-104300000D01*
X223400000Y-104300000D02*
X225061800Y-104300000D01*
%TO.N,/Motor_Driver_2/OA1*%
X165700000Y-104100000D02*
X167200000Y-102600000D01*
X167200000Y-102600000D02*
X219846400Y-102600000D01*
X219862400Y-102616000D02*
X219846400Y-102600000D01*
D22*
%TO.N,+2.5V_FILT*%
X113318091Y-112090200D02*
X112486291Y-111258400D01*
X112486291Y-111258400D02*
X95002400Y-111258400D01*
X128778000Y-111556800D02*
X128244600Y-112090200D01*
X128244600Y-112090200D02*
X113318091Y-112090200D01*
X95002400Y-111258400D02*
X92506800Y-108762800D01*
D20*
%TO.N,/MCU/MPPT_SHDN*%
X152575319Y-93116400D02*
X152118119Y-93573600D01*
X160058000Y-93116400D02*
X152575319Y-93116400D01*
X160121600Y-93180000D02*
X160058000Y-93116400D01*
X152118119Y-93573600D02*
X137668000Y-93573600D01*
D18*
%TO.N,/VIO_MOT*%
X146825000Y-98025000D02*
X153575000Y-98025000D01*
X153575000Y-98025000D02*
X154925000Y-96675000D01*
D22*
X188493400Y-112903000D02*
X188798200Y-113207800D01*
D18*
X159599500Y-109767500D02*
X159715200Y-109651800D01*
X146253200Y-109728000D02*
X146292700Y-109767500D01*
D22*
X97002600Y-114472550D02*
X100276211Y-114472550D01*
X177901600Y-111607600D02*
X148132800Y-111607600D01*
X100474161Y-114274600D02*
X146227800Y-114274600D01*
X148132800Y-111607600D02*
X146253200Y-109728000D01*
X188798200Y-113207800D02*
X211201000Y-113207800D01*
X177977800Y-111531400D02*
X177901600Y-111607600D01*
D18*
X154925000Y-96675000D02*
X154950000Y-96675000D01*
X146292700Y-109767500D02*
X159599500Y-109767500D01*
D22*
X100276211Y-114472550D02*
X100474161Y-114274600D01*
X178892200Y-111531400D02*
X177977800Y-111531400D01*
D20*
%TO.N,/MCU/MOT_STBY*%
X162950000Y-92350000D02*
X163850000Y-92350000D01*
X154168400Y-93681600D02*
X161618400Y-93681600D01*
X153650000Y-94200000D02*
X154168400Y-93681600D01*
X164110000Y-92610000D02*
X164110000Y-93280000D01*
X163850000Y-92350000D02*
X164110000Y-92610000D01*
X161618400Y-93681600D02*
X162950000Y-92350000D01*
%TD*%
M02*
