M48
; DRILL file {KiCad 8.0.4} date 2024-10-07T15:12:19-0700
; FORMAT={-:-/ absolute / inch / decimal}
; #@! TF.CreationDate,2024-10-07T15:12:19-07:00
; #@! TF.GenerationSoftware,Kicad,Pcbnew,8.0.4
; #@! TF.FileFunction,Plated,1,4,PTH
FMAT,2
INCH
; #@! TA.AperFunction,Plated,PTH,ViaDrill
T1C0.0120
; #@! TA.AperFunction,Plated,PTH,ComponentDrill
T2C0.0256
; #@! TA.AperFunction,Plated,PTH,ComponentDrill
T3C0.0787
%
G90
G05
T1
X2.8593Y-4.1457
X2.9122Y-3.8606
X2.9134Y-4.2244
X2.9154Y-4.3366
X3.0039Y-3.7697
X3.0285Y-4.2244
X3.0888Y-3.8799
X3.0984Y-4.0061
X3.1417Y-3.8819
X3.1654Y-3.9665
X3.189Y-3.8819
X3.2067Y-3.6969
X3.25Y-3.6752
X3.2677Y-3.8583
X3.2677Y-4.0098
X3.2697Y-3.7539
X3.3346Y-4.2303
X3.3898Y-4.3051
X3.3957Y-3.7126
X3.4272Y-4.3484
X3.4724Y-3.9744
X3.4724Y-4.0059
X3.4764Y-3.9272
X3.4961Y-4.3465
X3.5118Y-3.7795
X3.5276Y-4.3465
X3.5551Y-3.572
X3.5591Y-4.3465
X3.5782Y-3.7849
X3.6213Y-3.9799
X3.6866Y-4.163
X3.7539Y-3.7717
X3.815Y-3.6614
X3.8189Y-3.878
X3.8209Y-3.9902
X3.8268Y-3.563
X3.8406Y-3.9291
X3.9252Y-3.6713
X3.9272Y-4.2972
X4.0492Y-4.0155
X4.1476Y-3.7224
X4.1476Y-4.1732
X4.1866Y-3.5619
X4.3031Y-3.7776
X4.3169Y-4.3031
X4.3209Y-3.9882
X4.3228Y-3.8602
X4.3563Y-4.1398
X4.3602Y-4.0571
X4.3894Y-3.5681
X4.3996Y-4.2992
X4.7795Y-3.9409
X4.8272Y-4.3232
X4.8878Y-3.7539
X4.8895Y-3.811
X4.9035Y-3.9311
X5.0709Y-3.9626
X5.0709Y-3.998
X5.0709Y-4.0315
X5.1024Y-3.565
X5.124Y-3.6732
X5.1378Y-3.876
X5.165Y-3.9028
X5.2008Y-4.0059
X5.2008Y-4.1063
X5.2008Y-4.2047
X5.2008Y-4.3031
X5.2028Y-3.6752
X5.2028Y-3.811
X5.2697Y-3.7402
X5.2697Y-3.7933
X5.2913Y-4.0181
X5.2941Y-3.8283
X5.3024Y-4.3504
X5.3051Y-3.5689
X5.3543Y-4.2008
X5.3571Y-4.3386
X5.3583Y-4.2697
X5.3681Y-3.9157
X5.4094Y-3.6772
X5.4094Y-3.815
X5.4114Y-4.2992
X5.4488Y-3.6772
X5.4547Y-3.9803
X5.4685Y-4.1358
X5.4843Y-3.7224
X5.5079Y-4.1358
X5.5374Y-4.2776
X5.5433Y-4.0886
X5.5571Y-3.6831
X5.5571Y-3.8228
X5.563Y-3.9469
X5.5945Y-4.1862
X5.6307Y-4.2874
X5.6417Y-3.9311
X5.6457Y-4.0886
X5.6476Y-3.748
X5.6535Y-3.8287
X5.6535Y-4.2598
X5.6555Y-3.5748
X5.6555Y-3.7776
X5.6614Y-4.0098
X5.6811Y-4.1378
X5.6969Y-3.8287
X5.6988Y-4.2421
X5.7283Y-3.7065
X5.7309Y-3.5644
X5.7382Y-4.0984
X5.7598Y-3.9823
X5.7776Y-4.2815
X5.798Y-4.3063
X5.8012Y-3.7874
X5.8051Y-3.6614
X5.8209Y-3.563
X5.8228Y-3.7161
X5.8343Y-4.0933
X5.8433Y-3.8185
X5.8563Y-3.8976
X5.8614Y-3.9858
X5.8642Y-4.0689
X5.8878Y-4.1055
X5.9157Y-3.8807
X6.0118Y-3.5689
X6.0398Y-3.7197
X6.0441Y-4.2118
X6.0535Y-3.8079
X6.061Y-3.5619
X6.0906Y-3.811
X6.1181Y-3.8425
X6.1323Y-3.6784
X6.1488Y-3.9717
X6.1843Y-4.1453
X6.2008Y-4.2945
X6.2102Y-4.3307
X6.2323Y-4.1969
X6.2323Y-4.2697
X6.2938Y-4.1181
X6.3063Y-3.7953
X6.3087Y-3.6595
X6.3177Y-4.0787
X6.3268Y-3.5767
X6.3327Y-3.9902
X6.3346Y-3.9252
X6.3346Y-4.1496
X6.3417Y-3.6602
X6.3602Y-3.7913
X6.3602Y-3.8524
X6.3602Y-4.3315
X6.378Y-3.6606
X6.3839Y-4.1476
X6.3917Y-3.7441
X6.4134Y-3.9016
X6.4138Y-3.6634
X6.4154Y-4.2874
X6.4213Y-3.7165
X6.4213Y-4.0984
X6.4409Y-3.9567
X6.4472Y-3.8701
X6.4508Y-3.7913
X6.4528Y-3.7402
X6.4577Y-3.7077
X6.4598Y-4.3303
X6.461Y-3.6724
X6.4724Y-4.1961
X6.4902Y-3.872
X6.5197Y-3.9409
X6.5197Y-4.0197
X6.5236Y-3.8504
X6.5236Y-4.0984
X6.5571Y-4.1496
X6.5866Y-3.9016
X6.5866Y-4.25
X6.6161Y-4.1142
X6.6299Y-3.9449
X6.637Y-4.3157
X6.6378Y-3.9921
X6.6437Y-3.8209
X6.6949Y-4.2953
X6.7169Y-3.9551
X6.7362Y-3.5689
X6.7835Y-3.815
X6.9331Y-3.9744
X7.0039Y-4.315
X7.0433Y-3.8898
X7.0748Y-4.1909
X7.1693Y-3.8346
X7.1988Y-3.9744
X7.2736Y-4.2618
X7.2854Y-3.8976
X7.3524Y-3.9744
X7.4862Y-4.1673
X7.4882Y-4.3051
X7.6181Y-3.9744
X8.2657Y-3.8268
X8.7244Y-3.9193
X8.7677Y-4.3268
X8.7756Y-3.8602
X8.7972Y-4.2657
X8.8366Y-4.1929
X8.8976Y-4.1457
X8.9921Y-4.3536
X9.0138Y-4.1791
T2
X2.8406Y-3.9331
X2.8638Y-3.6118
X2.8878Y-3.9331
X2.911Y-3.6118
X2.935Y-3.9331
X2.9823Y-3.9331
X2.9937Y-3.6134
X3.0409Y-3.6134
X5.9646Y-4.0118
X5.9646Y-4.0807
X6.0118Y-4.0118
X6.0118Y-4.0807
X6.0591Y-4.0118
X6.0591Y-4.0807
X6.1063Y-4.0118
X6.1063Y-4.0807
X8.8504Y-3.9114
X8.8976Y-3.9114
X8.9449Y-3.9114
X8.9921Y-3.9114
T3
X3.1614Y-3.6181
X3.1614Y-4.2874
X4.0787Y-3.6181
X4.0787Y-4.2874
X4.9961Y-3.6181
X4.9961Y-4.2874
X5.9134Y-3.6181
X5.9134Y-4.2874
X6.8307Y-3.6181
X6.8307Y-4.2874
X7.748Y-3.6181
X7.748Y-4.2874
X8.6654Y-3.6181
X8.6654Y-4.2874
M30
