%TF.GenerationSoftware,KiCad,Pcbnew,8.0.4*%
%TF.CreationDate,2024-10-07T15:12:12-07:00*%
%TF.ProjectId,KSS_V50,4b53535f-5635-4302-9e6b-696361645f70,rev?*%
%TF.SameCoordinates,Original*%
%TF.FileFunction,Legend,Top*%
%TF.FilePolarity,Positive*%
%FSLAX46Y46*%
G04 Gerber Fmt 4.6, Leading zero omitted, Abs format (unit mm)*
G04 Created by KiCad (PCBNEW 8.0.4) date 2024-10-07 15:12:12*
%MOMM*%
%LPD*%
G01*
G04 APERTURE LIST*
%ADD10C,0.100000*%
G04 APERTURE END LIST*
D10*
X173103884Y-95291466D02*
X173865789Y-95291466D01*
X173484836Y-95672419D02*
X173484836Y-94910514D01*
X173103884Y-105991466D02*
X173865789Y-105991466D01*
X196403884Y-95291466D02*
X197165789Y-95291466D01*
X196784836Y-95672419D02*
X196784836Y-94910514D01*
X196403884Y-105991466D02*
X197165789Y-105991466D01*
X103203884Y-105991466D02*
X103965789Y-105991466D01*
X103203884Y-95291466D02*
X103965789Y-95291466D01*
X103584836Y-95672419D02*
X103584836Y-94910514D01*
X219703884Y-105991466D02*
X220465789Y-105991466D01*
X219703884Y-95291466D02*
X220465789Y-95291466D01*
X220084836Y-95672419D02*
X220084836Y-94910514D01*
X149803884Y-105991466D02*
X150565789Y-105991466D01*
X149803884Y-95291466D02*
X150565789Y-95291466D01*
X150184836Y-95672419D02*
X150184836Y-94910514D01*
X126503884Y-95291466D02*
X127265789Y-95291466D01*
X126884836Y-95672419D02*
X126884836Y-94910514D01*
X126503884Y-105991466D02*
X127265789Y-105991466D01*
X79903884Y-105991466D02*
X80665789Y-105991466D01*
X79903884Y-95291466D02*
X80665789Y-95291466D01*
X80284836Y-95672419D02*
X80284836Y-94910514D01*
%TO.C,SC5*%
X162000000Y-95400000D02*
X162000000Y-105400000D01*
X185000000Y-95400000D02*
X185000000Y-105400000D01*
%TO.C,SC6*%
X185300000Y-95400000D02*
X185300000Y-105400000D01*
X208300000Y-95400000D02*
X208300000Y-105400000D01*
%TO.C,SC2*%
X92100000Y-95400000D02*
X92100000Y-105400000D01*
X115100000Y-95400000D02*
X115100000Y-105400000D01*
%TO.C,SC7*%
X208600000Y-95400000D02*
X208600000Y-105400000D01*
X231600000Y-95400000D02*
X231600000Y-105400000D01*
%TO.C,SC4*%
X138700000Y-95400000D02*
X138700000Y-105400000D01*
X161700000Y-95400000D02*
X161700000Y-105400000D01*
%TO.C,SC3*%
X115400000Y-95400000D02*
X115400000Y-105400000D01*
X138400000Y-95400000D02*
X138400000Y-105400000D01*
%TO.C,SC1*%
X68800000Y-95400000D02*
X68800000Y-105400000D01*
X91800000Y-95400000D02*
X91800000Y-105400000D01*
%TD*%
M02*
