M48
; DRILL file {KiCad 8.0.8} date 2025-01-27T20:20:59-0500
; FORMAT={-:-/ absolute / inch / decimal}
; #@! TF.CreationDate,2025-01-27T20:20:59-05:00
; #@! TF.GenerationSoftware,Kicad,Pcbnew,8.0.8
; #@! TF.FileFunction,Plated,1,4,PTH
FMAT,2
INCH
; #@! TA.AperFunction,Plated,PTH,ViaDrill
T1C0.0118
; #@! TA.AperFunction,Plated,PTH,ViaDrill
T2C0.0120
; #@! TA.AperFunction,Plated,PTH,ComponentDrill
T3C0.0295
; #@! TA.AperFunction,Plated,PTH,ComponentDrill
T4C0.0394
; #@! TA.AperFunction,Plated,PTH,ComponentDrill
T5C0.0787
; #@! TA.AperFunction,Plated,PTH,ComponentDrill
T6C0.1457
%
G90
G05
T1
X3.642Y-4.282
X3.7087Y-4.0679
X3.7113Y-3.9363
X3.7372Y-4.0896
X3.742Y-3.89
X3.783Y-4.464
X3.819Y-4.5068
X3.837Y-4.415
X3.8967Y-3.823
X3.9006Y-4.0581
X3.9144Y-3.756
X3.9331Y-4.0433
X3.9951Y-4.2234
X4.003Y-3.7185
X4.056Y-3.786
X4.071Y-4.348
X4.077Y-3.819
X4.097Y-4.1596
X4.1152Y-4.4094
X4.1503Y-4.0053
X4.2218Y-4.2382
X4.298Y-4.349
X4.305Y-3.839
X4.3189Y-4.401
X4.3474Y-3.7923
X4.4321Y-4.2382
X4.4764Y-4.377
X4.4793Y-4.3327
X4.6535Y-3.7352
X4.689Y-3.64
X4.75Y-4.386
X4.7884Y-3.8121
X4.81Y-4.444
X4.857Y-3.565
X4.859Y-3.67
X4.9026Y-3.8494
X4.9173Y-3.7057
X4.9537Y-4.0551
X4.9734Y-3.7087
X4.9921Y-4.0148
X5.06Y-3.9469
X5.062Y-3.9154
X5.065Y-3.8677
X5.07Y-4.392
X5.179Y-4.056
X5.256Y-3.655
X5.266Y-4.056
X5.349Y-4.294
X5.3839Y-3.4183
X5.388Y-4.332
X5.42Y-3.684
X5.456Y-3.952
X5.5463Y-3.4291
X5.562Y-3.6
X5.597Y-4.192
X5.634Y-3.585
X5.672Y-4.457
X5.694Y-3.623
X5.74Y-4.15
X5.757Y-4.499
X5.7805Y-3.8593
X5.811Y-3.9104
X5.9478Y-3.9331
X6.004Y-3.8297
X6.0394Y-3.6417
X6.0413Y-3.4656
X6.0492Y-3.7087
X6.061Y-3.928
X6.0925Y-3.7165
X6.1004Y-3.8061
X6.145Y-4.357
X6.288Y-4.317
X6.304Y-3.6685
X6.3327Y-3.6417
X6.373Y-3.565
X7.043Y-4.391
X7.421Y-4.445
X8.265Y-4.324
X8.315Y-4.457
X8.6554Y-4.0394
X8.819Y-3.962
X8.819Y-4.072
X8.861Y-3.896
X8.861Y-4.106
X8.898Y-3.846
X8.898Y-4.135
T2
X3.46Y-4.272
X3.62Y-4.133
X3.62Y-4.372
X3.89Y-4.323
X3.891Y-4.2615
X4.0132Y-4.1603
X4.275Y-4.146
X4.2776Y-4.1752
X4.421Y-4.315
X4.423Y-4.275
X4.5368Y-4.3204
X4.5683Y-4.3204
X4.5998Y-4.3204
X4.6152Y-4.0669
X4.702Y-3.603
X4.756Y-3.747
X4.851Y-4.227
X4.851Y-4.258
X4.88Y-4.243
X5.0687Y-4.067
X5.2087Y-3.9774
X5.2387Y-3.9774
X5.245Y-4.241
X5.2687Y-3.9774
X5.4106Y-3.96
X5.427Y-4.287
X5.603Y-4.114
X5.608Y-4.308
X5.6104Y-4.2388
X5.7085Y-4.2085
X5.7124Y-4.2774
X5.758Y-4.32
X5.807Y-3.988
X5.8227Y-4.1435
X5.862Y-4.1435
X5.8916Y-4.2853
X5.906Y-4.098
X5.9171Y-3.9546
X5.9486Y-4.1939
X5.9848Y-4.2951
X5.9959Y-3.9388
X5.996Y-4.017
X5.9998Y-4.0963
X6.0353Y-4.1455
X6.053Y-4.2498
X6.114Y-3.99
X6.1317Y-4.2892
X6.1673Y-3.7264
X6.2283Y-3.8661
X6.2323Y-4.1969
X6.2323Y-4.2697
X6.2938Y-4.1181
X6.3063Y-3.7953
X6.3177Y-4.0787
X6.3268Y-3.5767
X6.3327Y-3.9902
X6.3346Y-3.9252
X6.3346Y-4.1496
X6.3602Y-3.7913
X6.3602Y-3.8524
X6.3602Y-4.3315
X6.376Y-3.6398
X6.3839Y-4.1476
X6.3917Y-3.7441
X6.4074Y-3.617
X6.4134Y-3.9016
X6.4154Y-4.2874
X6.4213Y-3.7165
X6.4213Y-4.0984
X6.4252Y-3.6673
X6.4409Y-3.9567
X6.4472Y-3.8701
X6.4508Y-3.7913
X6.4528Y-3.7402
X6.4577Y-3.7077
X6.4598Y-4.3303
X6.461Y-3.6724
X6.4724Y-4.1961
X6.4902Y-3.872
X6.5197Y-3.9409
X6.5197Y-4.0197
X6.5236Y-3.8504
X6.5236Y-4.0984
X6.5571Y-4.1496
X6.5866Y-3.9016
X6.5866Y-4.25
X6.602Y-3.802
X6.6161Y-4.1142
X6.6299Y-3.9449
X6.637Y-4.3157
X6.6378Y-3.9921
X6.6949Y-4.2953
X6.7362Y-3.5689
X7.0039Y-4.315
X7.0433Y-3.8898
X7.0748Y-4.1909
X7.1693Y-3.8346
X7.1988Y-3.9744
X7.2736Y-4.2618
X7.2854Y-3.8976
X7.4862Y-4.1673
X7.4882Y-4.3051
X7.6181Y-3.9744
X8.2657Y-3.8268
X9.0475Y-4.3769
T3
X5.3315Y-3.6546
X5.3315Y-3.7334
T4
X4.003Y-3.9675
X4.103Y-3.9675
X4.203Y-3.9675
X4.303Y-3.9675
X4.403Y-3.9675
X4.503Y-3.9675
X4.603Y-3.9675
T5
X3.5465Y-3.436
X3.9008Y-3.436
X4.4185Y-3.436
X4.7728Y-3.436
X5.2897Y-3.4362
X5.644Y-3.4362
X6.1606Y-3.4362
X6.5149Y-3.4362
X7.0328Y-3.436
X7.3872Y-3.436
X7.9048Y-3.4362
X8.2592Y-3.4362
X8.7788Y-3.436
X9.1332Y-3.436
T6
X4.8012Y-3.9636
X9.0177Y-3.6683
M30
