%TF.GenerationSoftware,KiCad,Pcbnew,8.0.4*%
%TF.CreationDate,2024-10-07T15:12:12-07:00*%
%TF.ProjectId,KSS_V50,4b53535f-5635-4302-9e6b-696361645f70,rev?*%
%TF.SameCoordinates,Original*%
%TF.FileFunction,Copper,L1,Top*%
%TF.FilePolarity,Positive*%
%FSLAX46Y46*%
G04 Gerber Fmt 4.6, Leading zero omitted, Abs format (unit mm)*
G04 Created by KiCad (PCBNEW 8.0.4) date 2024-10-07 15:12:12*
%MOMM*%
%LPD*%
G01*
G04 APERTURE LIST*
%TA.AperFunction,ComponentPad*%
%ADD10C,3.000000*%
%TD*%
%TA.AperFunction,ComponentPad*%
%ADD11C,1.000000*%
%TD*%
%TA.AperFunction,ViaPad*%
%ADD12C,0.635000*%
%TD*%
%TA.AperFunction,Conductor*%
%ADD13C,0.203200*%
%TD*%
%TA.AperFunction,Conductor*%
%ADD14C,1.270000*%
%TD*%
%TA.AperFunction,Conductor*%
%ADD15C,0.508000*%
%TD*%
%TA.AperFunction,Conductor*%
%ADD16C,0.254000*%
%TD*%
%TA.AperFunction,Conductor*%
%ADD17C,0.203000*%
%TD*%
G04 APERTURE END LIST*
D10*
%TO.P,SC5,1,+*%
%TO.N,/MPPT/Solar_Cell_Out*%
X173500000Y-91900000D03*
%TO.P,SC5,2,-*%
%TO.N,GND*%
X173500000Y-108900000D03*
%TD*%
%TO.P,SC6,1,+*%
%TO.N,/MPPT/Solar_Cell_Out*%
X196800000Y-91900000D03*
%TO.P,SC6,2,-*%
%TO.N,GND*%
X196800000Y-108900000D03*
%TD*%
%TO.P,SC2,1,+*%
%TO.N,/MPPT/Solar_Cell_Out*%
X103600000Y-91900000D03*
%TO.P,SC2,2,-*%
%TO.N,GND*%
X103600000Y-108900000D03*
%TD*%
%TO.P,SC7,1,+*%
%TO.N,/MPPT/Solar_Cell_Out*%
X220100000Y-91900000D03*
%TO.P,SC7,2,-*%
%TO.N,GND*%
X220100000Y-108900000D03*
%TD*%
%TO.P,SC4,1,+*%
%TO.N,/MPPT/Solar_Cell_Out*%
X150200000Y-91900000D03*
%TO.P,SC4,2,-*%
%TO.N,GND*%
X150200000Y-108900000D03*
%TD*%
%TO.P,SC3,1,+*%
%TO.N,/MPPT/Solar_Cell_Out*%
X126900000Y-91900000D03*
%TO.P,SC3,2,-*%
%TO.N,GND*%
X126900000Y-108900000D03*
%TD*%
%TO.P,SC1,1,+*%
%TO.N,/MPPT/Solar_Cell_Out*%
X80300000Y-91900000D03*
%TO.P,SC1,2,-*%
%TO.N,GND*%
X80300000Y-108900000D03*
%TD*%
D11*
%TO.P,J5,1,Pin_1*%
%TO.N,+V_PROG_EXT*%
X155100000Y-103650000D03*
%TO.P,J5,2,Pin_2*%
%TO.N,/MCU_Prog_Comm/RX_PROG_EXT*%
X153900000Y-103650000D03*
%TO.P,J5,3,Pin_3*%
%TO.N,/MCU_Prog_Comm/TX_PROG_EXT*%
X152700000Y-103650000D03*
%TO.P,J5,4,Pin_4*%
%TO.N,GND*%
X151500000Y-103650000D03*
%TD*%
%TO.P,J2,1,Pin_1*%
%TO.N,/Motor_Driver_1/OA1*%
X75750000Y-99900000D03*
%TO.P,J2,2,Pin_2*%
%TO.N,/Motor_Driver_1/OA2*%
X74550000Y-99900000D03*
%TO.P,J2,3,Pin_3*%
%TO.N,/Motor_Driver_1/OB1*%
X73350000Y-99900000D03*
%TO.P,J2,4,Pin_4*%
%TO.N,/Motor_Driver_1/OB2*%
X72150000Y-99900000D03*
%TD*%
%TO.P,J3,1,Pin_1*%
%TO.N,/Motor_Driver_2/OA1*%
X224800000Y-99350000D03*
%TO.P,J3,2,Pin_2*%
%TO.N,/Motor_Driver_2/OA2*%
X226000000Y-99350000D03*
%TO.P,J3,3,Pin_3*%
%TO.N,/Motor_Driver_2/OB1*%
X227200000Y-99350000D03*
%TO.P,J3,4,Pin_4*%
%TO.N,/Motor_Driver_2/OB2*%
X228400000Y-99350000D03*
%TD*%
%TO.P,J1,1,Pin_1*%
%TO.N,Net-(J1-Pin_1)*%
X77240000Y-91780000D03*
%TO.P,J1,2,Pin_2*%
%TO.N,Net-(J1-Pin_2)*%
X76040000Y-91780000D03*
%TD*%
%TO.P,J4,1,Pin_1*%
%TO.N,Net-(J4-Pin_1)*%
X73940000Y-91740000D03*
%TO.P,J4,2,Pin_2*%
%TO.N,GND*%
X72740000Y-91740000D03*
%TD*%
%TO.P,J6,1,Pin_1*%
%TO.N,+V_COMM_EXT*%
X155100000Y-101900000D03*
%TO.P,J6,2,Pin_2*%
%TO.N,/MCU_Prog_Comm/RX_COMM_EXT*%
X153900000Y-101900000D03*
%TO.P,J6,3,Pin_3*%
%TO.N,/MCU_Prog_Comm/TX_COMM_EXT*%
X152700000Y-101900000D03*
%TO.P,J6,4,Pin_4*%
%TO.N,GND*%
X151500000Y-101900000D03*
%TD*%
D12*
%TO.N,GND*%
X141300000Y-100250000D03*
X97050000Y-101350000D03*
X165700000Y-97800000D03*
X90300000Y-90730000D03*
X88800000Y-110400000D03*
X72625000Y-105300000D03*
X132150000Y-96800000D03*
X136100000Y-108450000D03*
X132150000Y-93350000D03*
X88200000Y-101750000D03*
X147450000Y-93000000D03*
X93640000Y-105740000D03*
X164400000Y-106580000D03*
X88200000Y-100950000D03*
X142100000Y-106330000D03*
X106340000Y-90471500D03*
X138900000Y-105050000D03*
X168600000Y-101400000D03*
X140650000Y-108650000D03*
X137400000Y-96900000D03*
X124150000Y-95350000D03*
X132100000Y-109300000D03*
X132100000Y-104300000D03*
X223450000Y-108350000D03*
X163600000Y-100500000D03*
X147350000Y-96200000D03*
X193500000Y-100950000D03*
X226000000Y-105300000D03*
X158300000Y-106600000D03*
X162950000Y-108900000D03*
X141150000Y-93550000D03*
X76300000Y-95750000D03*
X132100000Y-106800000D03*
X109650000Y-109300000D03*
X146300000Y-101150000D03*
X143300000Y-99850000D03*
X90887500Y-96137500D03*
X137400000Y-93400000D03*
X182850000Y-100950000D03*
X154700000Y-96800000D03*
X153520000Y-106980000D03*
X124550000Y-99850000D03*
X99700000Y-93250000D03*
X110650000Y-105150000D03*
X132100000Y-101750000D03*
X89600000Y-110400000D03*
X158300000Y-108450000D03*
X90400000Y-110400000D03*
X160900000Y-105400000D03*
X138550000Y-101100000D03*
X168750000Y-97050000D03*
X76925000Y-107300000D03*
X165600000Y-100100000D03*
X136000000Y-106700000D03*
X160850000Y-101350000D03*
X96900000Y-93000000D03*
X109300000Y-95950000D03*
X141150000Y-97100000D03*
X110750000Y-103050000D03*
%TO.N,/MPPT/Solar_Cell_Out*%
X128800000Y-100650000D03*
X128800000Y-102400000D03*
X128800000Y-101550000D03*
%TO.N,+2.5V*%
X171100000Y-90650000D03*
X134400000Y-102060000D03*
X165600000Y-102100000D03*
X153950000Y-90471500D03*
X99750000Y-109150000D03*
X145500000Y-94145782D03*
X143800000Y-101850000D03*
X134750000Y-90650000D03*
X145564250Y-90535750D03*
X133850000Y-95000000D03*
X155400000Y-97600000D03*
%TO.N,/2_5V_Buck_Boost/VBAT_POS*%
X105350000Y-106000000D03*
X105350000Y-94550000D03*
X82550000Y-93350000D03*
X84700000Y-107450000D03*
%TO.N,Net-(J1-Pin_1)*%
X81450000Y-93900000D03*
X81000000Y-98600000D03*
%TO.N,Net-(U3-BAT)*%
X79800000Y-98600000D03*
X80400000Y-100750000D03*
%TO.N,+V_PROG_EXT*%
X145750000Y-104100000D03*
X143650000Y-90800000D03*
%TO.N,+V_COMM_EXT*%
X148950000Y-103350000D03*
X148419100Y-96990000D03*
%TO.N,Net-(D1-A)*%
X129600000Y-90550000D03*
X130150000Y-93300000D03*
X138400000Y-93400000D03*
%TO.N,Net-(Q1-D)*%
X83000000Y-101850000D03*
X83000000Y-98000000D03*
%TO.N,Net-(L1-Pad1)*%
X111750000Y-109200000D03*
X111490000Y-90630000D03*
%TO.N,Net-(J1-Pin_2)*%
X88300000Y-99750000D03*
X83050000Y-95350000D03*
%TO.N,Net-(U3-V-)*%
X78455000Y-98550000D03*
X78700000Y-101755500D03*
%TO.N,/Motor_Driver_1/DIR*%
X160180900Y-96400000D03*
X159861800Y-104600000D03*
%TO.N,/Motor_Driver_1/EN*%
X147900000Y-94390000D03*
X146750000Y-108750000D03*
X162910000Y-93050000D03*
X153410000Y-94480900D03*
%TO.N,/Motor_Driver_1/STEP*%
X163760000Y-98300000D03*
X144700000Y-97250000D03*
X163850000Y-96300000D03*
X144750000Y-107750000D03*
%TO.N,Net-(U6-ADJ)*%
X74050000Y-110150000D03*
X74000000Y-107300000D03*
%TO.N,/Motor_Driver_2/DIR*%
X168400000Y-100200000D03*
X161080000Y-92970000D03*
X160900000Y-99700000D03*
X168050000Y-104500000D03*
%TO.N,/Motor_Driver_2/EN*%
X160470000Y-103600000D03*
X164080000Y-109990000D03*
X161550000Y-110019100D03*
X162350000Y-95100000D03*
X168580000Y-109619100D03*
%TO.N,/Motor_Driver_2/STEP*%
X167300000Y-99100000D03*
X162900000Y-99100000D03*
X167300000Y-107950000D03*
X163100000Y-94400000D03*
%TO.N,Net-(U8-ADJ)*%
X228400000Y-110582500D03*
X228950000Y-106150000D03*
%TO.N,/MCU/MODE_SW_2*%
X157080000Y-105290000D03*
X155760000Y-93430900D03*
%TO.N,/MCU/MODE_SW_1*%
X160240000Y-92952500D03*
X157500000Y-109080000D03*
%TO.N,/SCL*%
X160700000Y-90847500D03*
X124194500Y-96800000D03*
X153760000Y-96720000D03*
X95350000Y-95800000D03*
X152700000Y-90650000D03*
%TO.N,Net-(U11-OUT)*%
X97550000Y-99800000D03*
X164850000Y-98350000D03*
%TO.N,Net-(J4-Pin_1)*%
X73970000Y-98060000D03*
X91980000Y-101090000D03*
%TO.N,/MCU/MCU_UPDI*%
X164025000Y-94175000D03*
X139300000Y-94550000D03*
%TO.N,/MCU/HALL_IN_1*%
X162000000Y-92980000D03*
X86100000Y-109350000D03*
X86250000Y-94300000D03*
%TO.N,/MCU/HALL_IN_2*%
X161550000Y-97850000D03*
X224450000Y-106500000D03*
X182100000Y-97400000D03*
X222900000Y-98050000D03*
X209950000Y-97200000D03*
%TO.N,/MCU_Prog_Comm/RX_PROG_EXT*%
X147850000Y-90500000D03*
X149550000Y-104280900D03*
%TO.N,/MCU_Prog_Comm/RX_COMM_EXT*%
X143650000Y-95950000D03*
X143600000Y-97250000D03*
%TO.N,/Motor_Driver_1/MS1*%
X143600000Y-108200000D03*
X179700000Y-106450000D03*
%TO.N,/Motor_Driver_1/MS2*%
X178900000Y-98800000D03*
X143019100Y-108900000D03*
%TO.N,/Motor_Driver_2/MS1*%
X190150000Y-105850000D03*
X177900000Y-109600000D03*
X190200000Y-109350000D03*
%TO.N,/Motor_Driver_2/MS2*%
X170050000Y-109100000D03*
X185050000Y-99000000D03*
X184750000Y-108250000D03*
%TO.N,/SDA*%
X97000000Y-98500000D03*
X172300000Y-96900000D03*
X130500000Y-98450000D03*
%TO.N,/MCU/MCU_RX*%
X133850000Y-96350000D03*
X161550000Y-96300000D03*
%TO.N,/MCU/MCU_TX*%
X163900000Y-95000000D03*
X143450000Y-95200000D03*
%TO.N,/Motor_Driver_1/OB2*%
X139900000Y-105050000D03*
%TO.N,/Motor_Driver_1/OA2*%
X144300000Y-105100000D03*
%TO.N,/Motor_Driver_1/OB1*%
X140800000Y-103850000D03*
%TO.N,/Motor_Driver_1/OA1*%
X143400000Y-103850000D03*
%TO.N,/Motor_Driver_2/OB2*%
X162150000Y-105350000D03*
%TO.N,/Motor_Driver_2/OA2*%
X166550000Y-105400000D03*
%TO.N,/Motor_Driver_2/OB1*%
X163100000Y-104100000D03*
%TO.N,/Motor_Driver_2/OA1*%
X165700000Y-104100000D03*
%TO.N,+2.5V_FILT*%
X109750000Y-101300000D03*
X89200000Y-96000000D03*
X109800000Y-98050000D03*
X102850000Y-101994500D03*
X97200000Y-90500000D03*
%TO.N,/MCU/MPPT_SHDN*%
X150260000Y-98570900D03*
X136350000Y-99460000D03*
%TO.N,/VIO_MOT*%
X134680000Y-110500000D03*
X222700000Y-109900000D03*
X176100000Y-100950000D03*
X148750000Y-99000000D03*
X122610000Y-109810000D03*
X157740000Y-110000000D03*
X156180000Y-100880000D03*
X121400000Y-100100000D03*
X221600000Y-99550000D03*
X87050000Y-110450000D03*
X137450000Y-109200000D03*
X131190000Y-99130000D03*
X134470000Y-97240000D03*
X186750000Y-100950000D03*
X148880000Y-101240000D03*
%TO.N,/MCU/MOT_STBY*%
X148190000Y-103970000D03*
X136070000Y-110200000D03*
X170610000Y-100460000D03*
X147269100Y-109380000D03*
X164110000Y-93280000D03*
%TD*%
D13*
%TO.N,GND*%
X150350000Y-101900000D02*
X151500000Y-101900000D01*
X150350000Y-103700000D02*
X151500000Y-103700000D01*
D14*
%TO.N,/MPPT/Solar_Cell_Out*%
X173500000Y-91900000D02*
X150200000Y-91900000D01*
X126900000Y-91900000D02*
X150200000Y-91900000D01*
X220100000Y-91900000D02*
X196800000Y-91900000D01*
X196800000Y-91900000D02*
X173500000Y-91900000D01*
X103600000Y-91900000D02*
X126900000Y-91900000D01*
X80300000Y-91900000D02*
X103600000Y-91900000D01*
D15*
%TO.N,/2_5V_Buck_Boost/VBAT_POS*%
X86950000Y-93350000D02*
X82550000Y-93350000D01*
X105300000Y-94500000D02*
X88100000Y-94500000D01*
X105350000Y-94550000D02*
X105300000Y-94500000D01*
X88100000Y-94500000D02*
X86950000Y-93350000D01*
D13*
%TO.N,+V_PROG_EXT*%
X154700000Y-104800000D02*
X146450000Y-104800000D01*
X155100000Y-103650000D02*
X155100000Y-104400000D01*
X146450000Y-104800000D02*
X145750000Y-104100000D01*
X155100000Y-104400000D02*
X154700000Y-104800000D01*
%TO.N,+V_COMM_EXT*%
X154247350Y-102752650D02*
X155100000Y-101900000D01*
X148950000Y-103350000D02*
X149547350Y-102752650D01*
X149547350Y-102752650D02*
X154247350Y-102752650D01*
%TO.N,Net-(D1-A)*%
X130619100Y-92830900D02*
X130150000Y-93300000D01*
X137830900Y-92830900D02*
X130619100Y-92830900D01*
X138400000Y-93400000D02*
X137830900Y-92830900D01*
D15*
%TO.N,Net-(J1-Pin_2)*%
X76040000Y-92890000D02*
X78650000Y-95500000D01*
D16*
X83050000Y-95350000D02*
X82500000Y-95900000D01*
D15*
X76040000Y-91780000D02*
X76040000Y-92890000D01*
X86350000Y-99750000D02*
X88300000Y-99750000D01*
X82100000Y-95500000D02*
X82500000Y-95900000D01*
X82500000Y-95900000D02*
X86350000Y-99750000D01*
X78650000Y-95500000D02*
X82100000Y-95500000D01*
D13*
%TO.N,/Motor_Driver_1/EN*%
X153410000Y-94480900D02*
X153429100Y-94500000D01*
X161460000Y-94500000D02*
X162910000Y-93050000D01*
X153429100Y-94500000D02*
X161460000Y-94500000D01*
D17*
%TO.N,/Motor_Driver_2/EN*%
X168209100Y-109990000D02*
X164080000Y-109990000D01*
X168580000Y-109619100D02*
X168209100Y-109990000D01*
D13*
%TO.N,/SCL*%
X153620000Y-96580000D02*
X149920000Y-96580000D01*
X154679400Y-90990600D02*
X153040600Y-90990600D01*
X125275400Y-97880900D02*
X124194500Y-96800000D01*
X160700000Y-90847500D02*
X160242500Y-90390000D01*
X160242500Y-90390000D02*
X155280000Y-90390000D01*
X95350000Y-95800000D02*
X96350000Y-96800000D01*
X149920000Y-96580000D02*
X148619100Y-97880900D01*
X153040600Y-90990600D02*
X152700000Y-90650000D01*
X148619100Y-97880900D02*
X125275400Y-97880900D01*
X155280000Y-90390000D02*
X154679400Y-90990600D01*
X96350000Y-96800000D02*
X124194500Y-96800000D01*
X153760000Y-96720000D02*
X153620000Y-96580000D01*
%TO.N,Net-(U11-OUT)*%
X164850000Y-98100000D02*
X164450000Y-97700000D01*
X143200000Y-101050000D02*
X140290000Y-101050000D01*
X150900000Y-99050000D02*
X149960000Y-99990000D01*
X127615019Y-100034981D02*
X126450000Y-101200000D01*
X163050000Y-97700000D02*
X161700000Y-99050000D01*
X119200000Y-99900000D02*
X97650000Y-99900000D01*
X164450000Y-97700000D02*
X163050000Y-97700000D01*
X120500000Y-101200000D02*
X119200000Y-99900000D01*
X126450000Y-101200000D02*
X120500000Y-101200000D01*
X144260000Y-99990000D02*
X143200000Y-101050000D01*
X149960000Y-99990000D02*
X144260000Y-99990000D01*
X139274981Y-100034981D02*
X127615019Y-100034981D01*
X164850000Y-98350000D02*
X164850000Y-98100000D01*
X140290000Y-101050000D02*
X139274981Y-100034981D01*
X161700000Y-99050000D02*
X150900000Y-99050000D01*
X97650000Y-99900000D02*
X97550000Y-99800000D01*
%TO.N,Net-(J4-Pin_1)*%
X91970000Y-101090000D02*
X91980000Y-101090000D01*
X77620000Y-99820000D02*
X84990000Y-99820000D01*
X75860000Y-98060000D02*
X77620000Y-99820000D01*
X84990000Y-99820000D02*
X85510000Y-100340000D01*
X85510000Y-100340000D02*
X91220000Y-100340000D01*
X91220000Y-100340000D02*
X91970000Y-101090000D01*
X73970000Y-98060000D02*
X75860000Y-98060000D01*
%TO.N,/MCU/MCU_UPDI*%
X144400000Y-95000000D02*
X143950000Y-94550000D01*
X162800000Y-93750000D02*
X161550000Y-95000000D01*
X164025000Y-94175000D02*
X163600000Y-93750000D01*
X143950000Y-94550000D02*
X139300000Y-94550000D01*
X163600000Y-93750000D02*
X162800000Y-93750000D01*
X161550000Y-95000000D02*
X144400000Y-95000000D01*
%TO.N,/MCU/HALL_IN_1*%
X142087154Y-94112846D02*
X140212846Y-94112846D01*
X111915019Y-93919100D02*
X110634119Y-95200000D01*
X110634119Y-95200000D02*
X87150000Y-95200000D01*
X140019100Y-93919100D02*
X111915019Y-93919100D01*
X142573318Y-93626682D02*
X142087154Y-94112846D01*
X87150000Y-95200000D02*
X86250000Y-94300000D01*
X140212846Y-94112846D02*
X140019100Y-93919100D01*
X148784119Y-93950000D02*
X148460801Y-93626682D01*
X162000000Y-92980000D02*
X161030000Y-93950000D01*
X161030000Y-93950000D02*
X148784119Y-93950000D01*
X148460801Y-93626682D02*
X142573318Y-93626682D01*
%TO.N,/MCU/HALL_IN_2*%
X181900000Y-97600000D02*
X182100000Y-97400000D01*
X166797059Y-97230000D02*
X167167059Y-97600000D01*
X222450000Y-97450000D02*
X222900000Y-97900000D01*
X222200000Y-97200000D02*
X222450000Y-97450000D01*
X167167059Y-97600000D02*
X181900000Y-97600000D01*
X222900000Y-97900000D02*
X222900000Y-98050000D01*
X161550000Y-97850000D02*
X162170000Y-97230000D01*
X162170000Y-97230000D02*
X166797059Y-97230000D01*
X209950000Y-97200000D02*
X222200000Y-97200000D01*
D16*
%TO.N,/Motor_Driver_1/MS1*%
X169200000Y-107650000D02*
X169200000Y-110070000D01*
X145529960Y-106200000D02*
X143600000Y-108129960D01*
X156150000Y-110700000D02*
X151650000Y-106200000D01*
X169200000Y-110070000D02*
X168570000Y-110700000D01*
X179250000Y-106000000D02*
X170850000Y-106000000D01*
X143600000Y-108129960D02*
X143600000Y-108200000D01*
X170850000Y-106000000D02*
X169200000Y-107650000D01*
X168570000Y-110700000D02*
X156150000Y-110700000D01*
X151650000Y-106200000D02*
X145529960Y-106200000D01*
X179700000Y-106450000D02*
X179250000Y-106000000D01*
D13*
%TO.N,/Motor_Driver_1/MS2*%
X166050000Y-98500000D02*
X164800000Y-99750000D01*
X145580000Y-100570000D02*
X145100000Y-101050000D01*
X145100000Y-105700000D02*
X143019100Y-107780900D01*
X145100000Y-101050000D02*
X145100000Y-105700000D01*
X161900000Y-100250000D02*
X160225000Y-100250000D01*
X160225000Y-100250000D02*
X159625000Y-99650000D01*
X162400000Y-99750000D02*
X161900000Y-100250000D01*
X150230000Y-100570000D02*
X145580000Y-100570000D01*
X159625000Y-99650000D02*
X151150000Y-99650000D01*
X143019100Y-107780900D02*
X143019100Y-108900000D01*
X178900000Y-98800000D02*
X178600000Y-98500000D01*
X178600000Y-98500000D02*
X166050000Y-98500000D01*
X151150000Y-99650000D02*
X150230000Y-100570000D01*
X164800000Y-99750000D02*
X162400000Y-99750000D01*
%TO.N,/Motor_Driver_2/MS1*%
X178100000Y-109400000D02*
X177900000Y-109600000D01*
X190150000Y-109400000D02*
X178100000Y-109400000D01*
X190200000Y-109350000D02*
X190150000Y-109400000D01*
%TO.N,/Motor_Driver_2/MS2*%
X176150000Y-108250000D02*
X174500000Y-106600000D01*
X184750000Y-108250000D02*
X176150000Y-108250000D01*
X172550000Y-106600000D02*
X170050000Y-109100000D01*
X174500000Y-106600000D02*
X172550000Y-106600000D01*
%TO.N,/SDA*%
X160330900Y-98119100D02*
X154569100Y-98119100D01*
X154110000Y-97660000D02*
X149268790Y-97660000D01*
X149268790Y-97660000D02*
X148478790Y-98450000D01*
X154569100Y-98119100D02*
X154110000Y-97660000D01*
X97250000Y-98750000D02*
X130200000Y-98750000D01*
X167350000Y-96100000D02*
X166630900Y-96819100D01*
X166630900Y-96819100D02*
X161630900Y-96819100D01*
X97000000Y-98500000D02*
X97250000Y-98750000D01*
X148478790Y-98450000D02*
X130500000Y-98450000D01*
X172300000Y-96900000D02*
X170000000Y-96900000D01*
X130200000Y-98750000D02*
X130500000Y-98450000D01*
X161630900Y-96819100D02*
X160330900Y-98119100D01*
X169200000Y-96100000D02*
X167350000Y-96100000D01*
X170000000Y-96900000D02*
X169200000Y-96100000D01*
%TO.N,/MCU/MCU_RX*%
X160500000Y-97100000D02*
X161300000Y-96300000D01*
X161300000Y-96300000D02*
X161550000Y-96300000D01*
X134050000Y-96150000D02*
X142000000Y-96150000D01*
X133850000Y-96350000D02*
X134050000Y-96150000D01*
X147830900Y-96719100D02*
X148600000Y-95950000D01*
X142000000Y-96150000D02*
X142569100Y-96719100D01*
X159600000Y-97100000D02*
X160500000Y-97100000D01*
X148600000Y-95950000D02*
X158450000Y-95950000D01*
X142569100Y-96719100D02*
X147830900Y-96719100D01*
X158450000Y-95950000D02*
X159600000Y-97100000D01*
%TO.N,/MCU/MCU_TX*%
X162969100Y-95780900D02*
X163750000Y-95000000D01*
X161027040Y-95500000D02*
X161307940Y-95780900D01*
X161307940Y-95780900D02*
X162969100Y-95780900D01*
X163750000Y-95000000D02*
X163900000Y-95000000D01*
X143934119Y-95500000D02*
X161027040Y-95500000D01*
X143634119Y-95200000D02*
X143934119Y-95500000D01*
X143450000Y-95200000D02*
X143634119Y-95200000D01*
D15*
%TO.N,/Motor_Driver_1/OB2*%
X130800000Y-107750000D02*
X129650000Y-106600000D01*
X106000000Y-105000000D02*
X74400000Y-105000000D01*
X114200000Y-106600000D02*
X112950000Y-107850000D01*
X129650000Y-106600000D02*
X114200000Y-106600000D01*
X72150000Y-102750000D02*
X72150000Y-99900000D01*
X139900000Y-106350000D02*
X138500000Y-107750000D01*
X108850000Y-107850000D02*
X106000000Y-105000000D01*
X138500000Y-107750000D02*
X130800000Y-107750000D01*
X74400000Y-105000000D02*
X72150000Y-102750000D01*
X139900000Y-105050000D02*
X139900000Y-106350000D01*
X112950000Y-107850000D02*
X108850000Y-107850000D01*
%TO.N,/Motor_Driver_1/OA2*%
X137550000Y-102950000D02*
X135528500Y-104971500D01*
X142750000Y-105100000D02*
X142550000Y-104900000D01*
X144300000Y-105100000D02*
X142750000Y-105100000D01*
X142550000Y-103350000D02*
X142150000Y-102950000D01*
X106700000Y-103450000D02*
X75350000Y-103450000D01*
X75350000Y-103450000D02*
X74550000Y-102650000D01*
X74550000Y-102650000D02*
X74550000Y-99900000D01*
X113378500Y-104971500D02*
X112228500Y-106121500D01*
X142150000Y-102950000D02*
X137550000Y-102950000D01*
X142550000Y-104900000D02*
X142550000Y-103350000D01*
X135528500Y-104971500D02*
X113378500Y-104971500D01*
X109371500Y-106121500D02*
X106700000Y-103450000D01*
X112228500Y-106121500D02*
X109371500Y-106121500D01*
%TO.N,/Motor_Driver_1/OB1*%
X74895079Y-104250000D02*
X73350000Y-102704921D01*
X140800000Y-103850000D02*
X137850000Y-103850000D01*
X113850000Y-105750000D02*
X112550000Y-107050000D01*
X137850000Y-103850000D02*
X135950000Y-105750000D01*
X109150000Y-107050000D02*
X106350000Y-104250000D01*
X106350000Y-104250000D02*
X74895079Y-104250000D01*
X112550000Y-107050000D02*
X109150000Y-107050000D01*
X73350000Y-102704921D02*
X73350000Y-99900000D01*
X135950000Y-105750000D02*
X113850000Y-105750000D01*
%TO.N,/Motor_Driver_1/OA1*%
X103128145Y-102666000D02*
X102571855Y-102666000D01*
X143000000Y-102150000D02*
X137100000Y-102150000D01*
X102555855Y-102650000D02*
X76250000Y-102650000D01*
X135750000Y-103500000D02*
X131000000Y-103500000D01*
X75750000Y-102150000D02*
X75750000Y-99900000D01*
X143400000Y-102550000D02*
X143000000Y-102150000D01*
X107300000Y-102650000D02*
X103144145Y-102650000D01*
X143400000Y-103850000D02*
X143400000Y-102550000D01*
X131000000Y-103500000D02*
X130300000Y-104200000D01*
X102571855Y-102666000D02*
X102555855Y-102650000D01*
X130300000Y-104200000D02*
X108850000Y-104200000D01*
X103144145Y-102650000D02*
X103128145Y-102666000D01*
X108850000Y-104200000D02*
X107300000Y-102650000D01*
X137100000Y-102150000D02*
X135750000Y-103500000D01*
X76250000Y-102650000D02*
X75750000Y-102150000D01*
%TO.N,/Motor_Driver_2/OB2*%
X163300000Y-107650000D02*
X162150000Y-106500000D01*
X224142000Y-105158000D02*
X170092000Y-105158000D01*
X228400000Y-99350000D02*
X228400000Y-100900000D01*
X166650000Y-107100000D02*
X166100000Y-107650000D01*
X170092000Y-105158000D02*
X168150000Y-107100000D01*
X162150000Y-106500000D02*
X162150000Y-105350000D01*
X228400000Y-100900000D02*
X224142000Y-105158000D01*
X166100000Y-107650000D02*
X163300000Y-107650000D01*
X168150000Y-107100000D02*
X166650000Y-107100000D01*
%TO.N,/Motor_Driver_2/OA2*%
X166550000Y-105400000D02*
X166550000Y-104300000D01*
X167400000Y-103450000D02*
X222900000Y-103450000D01*
X166550000Y-104300000D02*
X167400000Y-103450000D01*
X226000000Y-100350000D02*
X226000000Y-99350000D01*
X222900000Y-103450000D02*
X226000000Y-100350000D01*
%TO.N,/Motor_Driver_2/OB1*%
X163600000Y-104100000D02*
X165800000Y-106300000D01*
X165800000Y-106300000D02*
X167700000Y-106300000D01*
X227200000Y-100500000D02*
X227200000Y-99350000D01*
X163100000Y-104100000D02*
X163600000Y-104100000D01*
X169700000Y-104300000D02*
X223400000Y-104300000D01*
X223400000Y-104300000D02*
X227200000Y-100500000D01*
X167700000Y-106300000D02*
X169700000Y-104300000D01*
%TO.N,/Motor_Driver_2/OA1*%
X224800000Y-100050000D02*
X224800000Y-99350000D01*
X222250000Y-102600000D02*
X224800000Y-100050000D01*
X165700000Y-104100000D02*
X167200000Y-102600000D01*
X167200000Y-102600000D02*
X222250000Y-102600000D01*
D16*
%TO.N,+2.5V_FILT*%
X103544500Y-101300000D02*
X109750000Y-101300000D01*
X102850000Y-101994500D02*
X103544500Y-101300000D01*
D13*
%TO.N,/MCU/MPPT_SHDN*%
X149659919Y-99520081D02*
X150410000Y-98770000D01*
X150410000Y-98770000D02*
X150260000Y-98620000D01*
X148535962Y-99520081D02*
X149659919Y-99520081D01*
X148346781Y-99330900D02*
X148535962Y-99520081D01*
X136350000Y-99460000D02*
X136479100Y-99330900D01*
X136479100Y-99330900D02*
X148346781Y-99330900D01*
X150260000Y-98620000D02*
X150260000Y-98570900D01*
D16*
%TO.N,/VIO_MOT*%
X186750000Y-99570000D02*
X186730000Y-99550000D01*
X156060000Y-100760000D02*
X156180000Y-100880000D01*
X176100000Y-99650000D02*
X176200000Y-99550000D01*
X131690000Y-99560000D02*
X131300000Y-99560000D01*
X87050000Y-110450000D02*
X91140000Y-106360000D01*
X131190000Y-99450000D02*
X131300000Y-99560000D01*
X163300000Y-101400000D02*
X166100000Y-101400000D01*
X159850000Y-100700000D02*
X162600000Y-100700000D01*
X156060000Y-100250000D02*
X159400000Y-100250000D01*
X104460000Y-106360000D02*
X108500000Y-110400000D01*
X91140000Y-106360000D02*
X104460000Y-106360000D01*
X176100000Y-100950000D02*
X176100000Y-99650000D01*
X166100000Y-101400000D02*
X167950000Y-99550000D01*
X122020000Y-110400000D02*
X122610000Y-109810000D01*
X186730000Y-99550000D02*
X221600000Y-99550000D01*
X122340000Y-99160000D02*
X121400000Y-100100000D01*
X151300000Y-100250000D02*
X156060000Y-100250000D01*
X162600000Y-100700000D02*
X163300000Y-101400000D01*
X148600000Y-98850000D02*
X132400000Y-98850000D01*
X148880000Y-101240000D02*
X150310000Y-101240000D01*
X132400000Y-98850000D02*
X131690000Y-99560000D01*
X148750000Y-99000000D02*
X148600000Y-98850000D01*
X156060000Y-100250000D02*
X156060000Y-100760000D01*
X134680000Y-110500000D02*
X135980000Y-109200000D01*
X159400000Y-100250000D02*
X159850000Y-100700000D01*
X126900000Y-99550000D02*
X126510000Y-99160000D01*
X186750000Y-100950000D02*
X186750000Y-99570000D01*
X131430000Y-99550000D02*
X126900000Y-99550000D01*
X176200000Y-99550000D02*
X186730000Y-99550000D01*
X167950000Y-99550000D02*
X176200000Y-99550000D01*
X135980000Y-109200000D02*
X137450000Y-109200000D01*
X131440000Y-99560000D02*
X131430000Y-99550000D01*
X108500000Y-110400000D02*
X122020000Y-110400000D01*
X131300000Y-99560000D02*
X131440000Y-99560000D01*
X126510000Y-99160000D02*
X122340000Y-99160000D01*
X150310000Y-101240000D02*
X151300000Y-100250000D01*
X131190000Y-99130000D02*
X131190000Y-99450000D01*
D13*
%TO.N,/MCU/MOT_STBY*%
X170350900Y-100719100D02*
X170610000Y-100460000D01*
X165744931Y-102689188D02*
X167715019Y-100719100D01*
X148190000Y-103970000D02*
X148190000Y-102730000D01*
X149351400Y-101568600D02*
X150591400Y-101568600D01*
X151380000Y-100780000D02*
X155220000Y-100780000D01*
X157129188Y-102689188D02*
X165744931Y-102689188D01*
X150591400Y-101568600D02*
X151380000Y-100780000D01*
X147269100Y-109380000D02*
X146549100Y-110100000D01*
X146549100Y-110100000D02*
X136170000Y-110100000D01*
X167715019Y-100719100D02*
X170350900Y-100719100D01*
X136170000Y-110100000D02*
X136070000Y-110200000D01*
X155220000Y-100780000D02*
X157129188Y-102689188D01*
X148190000Y-102730000D02*
X149351400Y-101568600D01*
%TD*%
%TA.AperFunction,Conductor*%
%TO.N,GND*%
G36*
X71837703Y-103080910D02*
G01*
X71844181Y-103086942D01*
X71877995Y-103120756D01*
X71878001Y-103120761D01*
X74031968Y-105274728D01*
X74031978Y-105274739D01*
X74036308Y-105279069D01*
X74036309Y-105279070D01*
X74120930Y-105363691D01*
X74147567Y-105379070D01*
X74149203Y-105380014D01*
X74149205Y-105380016D01*
X74149206Y-105380016D01*
X74224570Y-105423528D01*
X74340164Y-105454501D01*
X74340166Y-105454501D01*
X74467432Y-105454501D01*
X74467448Y-105454500D01*
X104864205Y-105454500D01*
X104931244Y-105474185D01*
X104976999Y-105526989D01*
X104986943Y-105596147D01*
X104962581Y-105653986D01*
X104897528Y-105738763D01*
X104845333Y-105864774D01*
X104845333Y-105864775D01*
X104828012Y-105996333D01*
X104799745Y-106060229D01*
X104741420Y-106098699D01*
X104671555Y-106099530D01*
X104643073Y-106087533D01*
X104586412Y-106054820D01*
X104586411Y-106054819D01*
X104558645Y-106047379D01*
X104503116Y-106032500D01*
X91183116Y-106032500D01*
X91096884Y-106032500D01*
X91013589Y-106054819D01*
X91013587Y-106054819D01*
X91013587Y-106054820D01*
X90938910Y-106097935D01*
X90938907Y-106097937D01*
X87145633Y-109891211D01*
X87084310Y-109924696D01*
X87057952Y-109927530D01*
X87049999Y-109927530D01*
X86914775Y-109945333D01*
X86914774Y-109945333D01*
X86788766Y-109997527D01*
X86680558Y-110080558D01*
X86597527Y-110188766D01*
X86545333Y-110314774D01*
X86545333Y-110314775D01*
X86532634Y-110411235D01*
X86527530Y-110450000D01*
X86542278Y-110562024D01*
X86545333Y-110585224D01*
X86545333Y-110585225D01*
X86597530Y-110711241D01*
X86598838Y-110713506D01*
X86599359Y-110715656D01*
X86600638Y-110718743D01*
X86600156Y-110718942D01*
X86615307Y-110781407D01*
X86592452Y-110847432D01*
X86537528Y-110890620D01*
X86491448Y-110899500D01*
X74213368Y-110899500D01*
X74146329Y-110879815D01*
X74100574Y-110827011D01*
X74090630Y-110757853D01*
X74119655Y-110694297D01*
X74178433Y-110656523D01*
X74181275Y-110655725D01*
X74185217Y-110654667D01*
X74185225Y-110654667D01*
X74311235Y-110602472D01*
X74419442Y-110519442D01*
X74502472Y-110411235D01*
X74554667Y-110285225D01*
X74572470Y-110150000D01*
X74554667Y-110014775D01*
X74502472Y-109888765D01*
X74419442Y-109780558D01*
X74311235Y-109697528D01*
X74288232Y-109688000D01*
X74274325Y-109682239D01*
X74185225Y-109645333D01*
X74073000Y-109630558D01*
X74050001Y-109627530D01*
X74049999Y-109627530D01*
X73914775Y-109645333D01*
X73914774Y-109645333D01*
X73788766Y-109697527D01*
X73680558Y-109780558D01*
X73597527Y-109888766D01*
X73545333Y-110014774D01*
X73545333Y-110014775D01*
X73530160Y-110130027D01*
X73527530Y-110150000D01*
X73543396Y-110270516D01*
X73545333Y-110285224D01*
X73545333Y-110285225D01*
X73583088Y-110376375D01*
X73597528Y-110411235D01*
X73680558Y-110519442D01*
X73788765Y-110602472D01*
X73914775Y-110654667D01*
X73914780Y-110654667D01*
X73918725Y-110655725D01*
X73921683Y-110657528D01*
X73922284Y-110657777D01*
X73922245Y-110657870D01*
X73978386Y-110692090D01*
X74008915Y-110754936D01*
X74000621Y-110824312D01*
X73956135Y-110878190D01*
X73889584Y-110899465D01*
X73886632Y-110899500D01*
X71756500Y-110899500D01*
X71689461Y-110879815D01*
X71643706Y-110827011D01*
X71632500Y-110775500D01*
X71632500Y-108899995D01*
X78595233Y-108899995D01*
X78595233Y-108900004D01*
X78614273Y-109154079D01*
X78670968Y-109402477D01*
X78670973Y-109402494D01*
X78764058Y-109639671D01*
X78764057Y-109639671D01*
X78891454Y-109860327D01*
X78891461Y-109860338D01*
X78933452Y-109912991D01*
X78933453Y-109912992D01*
X79437425Y-109409019D01*
X79523249Y-109537463D01*
X79662537Y-109676751D01*
X79790978Y-109762573D01*
X79286813Y-110266738D01*
X79447616Y-110376371D01*
X79447624Y-110376376D01*
X79677176Y-110486921D01*
X79677174Y-110486921D01*
X79920652Y-110562024D01*
X79920658Y-110562026D01*
X80172595Y-110599999D01*
X80172604Y-110600000D01*
X80427396Y-110600000D01*
X80427404Y-110599999D01*
X80679341Y-110562026D01*
X80679347Y-110562024D01*
X80922824Y-110486921D01*
X81152376Y-110376376D01*
X81152377Y-110376375D01*
X81313185Y-110266738D01*
X80809020Y-109762573D01*
X80937463Y-109676751D01*
X81076751Y-109537463D01*
X81162573Y-109409020D01*
X81666544Y-109912992D01*
X81666546Y-109912991D01*
X81708544Y-109860330D01*
X81835941Y-109639671D01*
X81929026Y-109402494D01*
X81929031Y-109402477D01*
X81941008Y-109350000D01*
X85577530Y-109350000D01*
X85595155Y-109483876D01*
X85595333Y-109485224D01*
X85595333Y-109485225D01*
X85632735Y-109575523D01*
X85647528Y-109611235D01*
X85730558Y-109719442D01*
X85838765Y-109802472D01*
X85964775Y-109854667D01*
X86084267Y-109870398D01*
X86099999Y-109872470D01*
X86100000Y-109872470D01*
X86100001Y-109872470D01*
X86114093Y-109870614D01*
X86235225Y-109854667D01*
X86361235Y-109802472D01*
X86469442Y-109719442D01*
X86552472Y-109611235D01*
X86604667Y-109485225D01*
X86622470Y-109350000D01*
X86604667Y-109214775D01*
X86552472Y-109088765D01*
X86469442Y-108980558D01*
X86361235Y-108897528D01*
X86331530Y-108885224D01*
X86293970Y-108869666D01*
X86235225Y-108845333D01*
X86165710Y-108836181D01*
X86100001Y-108827530D01*
X86099999Y-108827530D01*
X85964775Y-108845333D01*
X85964774Y-108845333D01*
X85838766Y-108897527D01*
X85730558Y-108980558D01*
X85647527Y-109088766D01*
X85601453Y-109199999D01*
X85595333Y-109214775D01*
X85577530Y-109350000D01*
X81941008Y-109350000D01*
X81985726Y-109154079D01*
X82004767Y-108900004D01*
X82004767Y-108899995D01*
X81985726Y-108645920D01*
X81929031Y-108397522D01*
X81929026Y-108397505D01*
X81835941Y-108160328D01*
X81835942Y-108160328D01*
X81708545Y-107939672D01*
X81666545Y-107887006D01*
X81162573Y-108390978D01*
X81076751Y-108262537D01*
X80937463Y-108123249D01*
X80809020Y-108037425D01*
X81313185Y-107533260D01*
X81191065Y-107450000D01*
X84177530Y-107450000D01*
X84188491Y-107533259D01*
X84195333Y-107585224D01*
X84195333Y-107585225D01*
X84238220Y-107688765D01*
X84247528Y-107711235D01*
X84330558Y-107819442D01*
X84438765Y-107902472D01*
X84564775Y-107954667D01*
X84684267Y-107970398D01*
X84699999Y-107972470D01*
X84700000Y-107972470D01*
X84700001Y-107972470D01*
X84714093Y-107970614D01*
X84835225Y-107954667D01*
X84961235Y-107902472D01*
X85069442Y-107819442D01*
X85152472Y-107711235D01*
X85204667Y-107585225D01*
X85222470Y-107450000D01*
X85222326Y-107448910D01*
X85219770Y-107429496D01*
X85204667Y-107314775D01*
X85152472Y-107188765D01*
X85069442Y-107080558D01*
X84961235Y-106997528D01*
X84835225Y-106945333D01*
X84723000Y-106930558D01*
X84700001Y-106927530D01*
X84699999Y-106927530D01*
X84564775Y-106945333D01*
X84564774Y-106945333D01*
X84438766Y-106997527D01*
X84330558Y-107080558D01*
X84247527Y-107188766D01*
X84211471Y-107275815D01*
X84195333Y-107314775D01*
X84180229Y-107429496D01*
X84177674Y-107448910D01*
X84177530Y-107450000D01*
X81191065Y-107450000D01*
X81152384Y-107423628D01*
X81152376Y-107423623D01*
X80922823Y-107313078D01*
X80922825Y-107313078D01*
X80679347Y-107237975D01*
X80679341Y-107237973D01*
X80427404Y-107200000D01*
X80172595Y-107200000D01*
X79920658Y-107237973D01*
X79920652Y-107237975D01*
X79677175Y-107313078D01*
X79447622Y-107423625D01*
X79447609Y-107423632D01*
X79286813Y-107533259D01*
X79790979Y-108037425D01*
X79662537Y-108123249D01*
X79523249Y-108262537D01*
X79437426Y-108390979D01*
X78933452Y-107887006D01*
X78891457Y-107939667D01*
X78764058Y-108160328D01*
X78670973Y-108397505D01*
X78670968Y-108397522D01*
X78614273Y-108645920D01*
X78595233Y-108899995D01*
X71632500Y-108899995D01*
X71632500Y-107299999D01*
X73477530Y-107299999D01*
X73477530Y-107300000D01*
X73495333Y-107435224D01*
X73495333Y-107435225D01*
X73531934Y-107523589D01*
X73547528Y-107561235D01*
X73630558Y-107669442D01*
X73738765Y-107752472D01*
X73864775Y-107804667D01*
X73984267Y-107820398D01*
X73999999Y-107822470D01*
X74000000Y-107822470D01*
X74000001Y-107822470D01*
X74014093Y-107820614D01*
X74135225Y-107804667D01*
X74261235Y-107752472D01*
X74369442Y-107669442D01*
X74452472Y-107561235D01*
X74504667Y-107435225D01*
X74522470Y-107300000D01*
X74521504Y-107292666D01*
X74514304Y-107237975D01*
X74504667Y-107164775D01*
X74452472Y-107038765D01*
X74369442Y-106930558D01*
X74261235Y-106847528D01*
X74135225Y-106795333D01*
X74067612Y-106786431D01*
X74000001Y-106777530D01*
X73999999Y-106777530D01*
X73864775Y-106795333D01*
X73864774Y-106795333D01*
X73738766Y-106847527D01*
X73630558Y-106930558D01*
X73547527Y-107038766D01*
X73495333Y-107164774D01*
X73495333Y-107164775D01*
X73477530Y-107299999D01*
X71632500Y-107299999D01*
X71632500Y-103174623D01*
X71652185Y-103107584D01*
X71704989Y-103061829D01*
X71774147Y-103051885D01*
X71837703Y-103080910D01*
G37*
%TD.AperFunction*%
%TA.AperFunction,Conductor*%
G36*
X104340022Y-106707185D02*
G01*
X104360664Y-106723819D01*
X108237935Y-110601090D01*
X108298910Y-110662065D01*
X108309384Y-110668112D01*
X108357600Y-110718679D01*
X108370824Y-110787286D01*
X108344856Y-110852151D01*
X108287942Y-110892680D01*
X108247385Y-110899500D01*
X87608552Y-110899500D01*
X87541513Y-110879815D01*
X87495758Y-110827011D01*
X87485814Y-110757853D01*
X87501162Y-110713506D01*
X87502469Y-110711241D01*
X87502470Y-110711236D01*
X87502472Y-110711235D01*
X87554667Y-110585225D01*
X87572470Y-110450000D01*
X87572470Y-110449999D01*
X87572470Y-110442046D01*
X87592155Y-110375007D01*
X87608789Y-110354365D01*
X88813154Y-109150000D01*
X99227530Y-109150000D01*
X99240650Y-109249658D01*
X99245333Y-109285224D01*
X99245333Y-109285225D01*
X99276816Y-109361233D01*
X99297528Y-109411235D01*
X99380558Y-109519442D01*
X99488765Y-109602472D01*
X99614775Y-109654667D01*
X99734267Y-109670398D01*
X99749999Y-109672470D01*
X99750000Y-109672470D01*
X99750001Y-109672470D01*
X99764093Y-109670614D01*
X99885225Y-109654667D01*
X100011235Y-109602472D01*
X100119442Y-109519442D01*
X100202472Y-109411235D01*
X100254667Y-109285225D01*
X100272470Y-109150000D01*
X100272144Y-109147527D01*
X100266910Y-109107769D01*
X100254667Y-109014775D01*
X100207124Y-108899995D01*
X101895233Y-108899995D01*
X101895233Y-108900004D01*
X101914273Y-109154079D01*
X101970968Y-109402477D01*
X101970973Y-109402494D01*
X102064058Y-109639671D01*
X102064057Y-109639671D01*
X102191454Y-109860327D01*
X102191461Y-109860338D01*
X102233452Y-109912991D01*
X102233453Y-109912992D01*
X102737425Y-109409019D01*
X102823249Y-109537463D01*
X102962537Y-109676751D01*
X103090978Y-109762573D01*
X102586813Y-110266738D01*
X102747616Y-110376371D01*
X102747624Y-110376376D01*
X102977176Y-110486921D01*
X102977174Y-110486921D01*
X103220652Y-110562024D01*
X103220658Y-110562026D01*
X103472595Y-110599999D01*
X103472604Y-110600000D01*
X103727396Y-110600000D01*
X103727404Y-110599999D01*
X103979341Y-110562026D01*
X103979347Y-110562024D01*
X104222824Y-110486921D01*
X104452376Y-110376376D01*
X104452377Y-110376375D01*
X104613185Y-110266738D01*
X104109020Y-109762573D01*
X104237463Y-109676751D01*
X104376751Y-109537463D01*
X104462573Y-109409020D01*
X104966544Y-109912992D01*
X104966546Y-109912991D01*
X105008544Y-109860330D01*
X105135941Y-109639671D01*
X105229026Y-109402494D01*
X105229031Y-109402477D01*
X105285726Y-109154079D01*
X105304767Y-108900004D01*
X105304767Y-108899995D01*
X105285726Y-108645920D01*
X105229031Y-108397522D01*
X105229026Y-108397505D01*
X105135941Y-108160328D01*
X105135942Y-108160328D01*
X105008545Y-107939672D01*
X104966545Y-107887006D01*
X104462573Y-108390978D01*
X104376751Y-108262537D01*
X104237463Y-108123249D01*
X104109020Y-108037425D01*
X104613185Y-107533260D01*
X104452384Y-107423628D01*
X104452376Y-107423623D01*
X104222823Y-107313078D01*
X104222825Y-107313078D01*
X103979347Y-107237975D01*
X103979341Y-107237973D01*
X103727404Y-107200000D01*
X103472595Y-107200000D01*
X103220658Y-107237973D01*
X103220652Y-107237975D01*
X102977175Y-107313078D01*
X102747622Y-107423625D01*
X102747609Y-107423632D01*
X102586813Y-107533259D01*
X103090979Y-108037425D01*
X102962537Y-108123249D01*
X102823249Y-108262537D01*
X102737426Y-108390979D01*
X102233452Y-107887006D01*
X102191457Y-107939667D01*
X102064058Y-108160328D01*
X101970973Y-108397505D01*
X101970968Y-108397522D01*
X101914273Y-108645920D01*
X101895233Y-108899995D01*
X100207124Y-108899995D01*
X100202472Y-108888765D01*
X100119442Y-108780558D01*
X100011235Y-108697528D01*
X99885225Y-108645333D01*
X99817612Y-108636431D01*
X99750001Y-108627530D01*
X99749999Y-108627530D01*
X99614775Y-108645333D01*
X99614774Y-108645333D01*
X99488766Y-108697527D01*
X99380558Y-108780558D01*
X99297527Y-108888766D01*
X99245333Y-109014774D01*
X99245333Y-109014775D01*
X99227856Y-109147527D01*
X99227530Y-109150000D01*
X88813154Y-109150000D01*
X91239336Y-106723819D01*
X91300659Y-106690334D01*
X91327017Y-106687500D01*
X104272983Y-106687500D01*
X104340022Y-106707185D01*
G37*
%TD.AperFunction*%
%TA.AperFunction,Conductor*%
G36*
X141977417Y-103424185D02*
G01*
X141998059Y-103440819D01*
X142059181Y-103501941D01*
X142092666Y-103563264D01*
X142095500Y-103589622D01*
X142095500Y-104832551D01*
X142095499Y-104832569D01*
X142095499Y-104840164D01*
X142095499Y-104959836D01*
X142098073Y-104969441D01*
X142114652Y-105031315D01*
X142114658Y-105031336D01*
X142126473Y-105075432D01*
X142126474Y-105075433D01*
X142186309Y-105179070D01*
X142186311Y-105179072D01*
X142277995Y-105270756D01*
X142278001Y-105270761D01*
X142381968Y-105374728D01*
X142381978Y-105374739D01*
X142386308Y-105379069D01*
X142386309Y-105379070D01*
X142470930Y-105463691D01*
X142525736Y-105495333D01*
X142571390Y-105521692D01*
X142574569Y-105523527D01*
X142583998Y-105526053D01*
X142584003Y-105526056D01*
X142584004Y-105526055D01*
X142690164Y-105554501D01*
X142690166Y-105554501D01*
X142817432Y-105554501D01*
X142817448Y-105554500D01*
X144018996Y-105554500D01*
X144066448Y-105563939D01*
X144092829Y-105574866D01*
X144164775Y-105604667D01*
X144284267Y-105620398D01*
X144299999Y-105622470D01*
X144300000Y-105622470D01*
X144300001Y-105622470D01*
X144314093Y-105620614D01*
X144435225Y-105604667D01*
X144435233Y-105604663D01*
X144442929Y-105602602D01*
X144512779Y-105604261D01*
X144570643Y-105643421D01*
X144598150Y-105707649D01*
X144586567Y-105776551D01*
X144562709Y-105810056D01*
X142777362Y-107595402D01*
X142777360Y-107595406D01*
X142737587Y-107664293D01*
X142733605Y-107679156D01*
X142720642Y-107727533D01*
X142717000Y-107741128D01*
X142717000Y-108417734D01*
X142697315Y-108484773D01*
X142668487Y-108516109D01*
X142649661Y-108530554D01*
X142566627Y-108638766D01*
X142514433Y-108764774D01*
X142514433Y-108764775D01*
X142496956Y-108897527D01*
X142496630Y-108900000D01*
X142511185Y-109010558D01*
X142514433Y-109035224D01*
X142514433Y-109035225D01*
X142539330Y-109095333D01*
X142566628Y-109161235D01*
X142649658Y-109269442D01*
X142757865Y-109352472D01*
X142883875Y-109404667D01*
X143003367Y-109420398D01*
X143019099Y-109422470D01*
X143019100Y-109422470D01*
X143019101Y-109422470D01*
X143033193Y-109420614D01*
X143154325Y-109404667D01*
X143280335Y-109352472D01*
X143388542Y-109269442D01*
X143471572Y-109161235D01*
X143523767Y-109035225D01*
X143541570Y-108900000D01*
X143535776Y-108855993D01*
X143546541Y-108786961D01*
X143592920Y-108734704D01*
X143642526Y-108716871D01*
X143735225Y-108704667D01*
X143861235Y-108652472D01*
X143969442Y-108569442D01*
X144052472Y-108461235D01*
X144104667Y-108335225D01*
X144122470Y-108200000D01*
X144116620Y-108155565D01*
X144127385Y-108086531D01*
X144173765Y-108034275D01*
X144241034Y-108015389D01*
X144307834Y-108035869D01*
X144337935Y-108063894D01*
X144380107Y-108118855D01*
X144380558Y-108119442D01*
X144488765Y-108202472D01*
X144614775Y-108254667D01*
X144734267Y-108270398D01*
X144749999Y-108272470D01*
X144750000Y-108272470D01*
X144750001Y-108272470D01*
X144764093Y-108270614D01*
X144885225Y-108254667D01*
X145011235Y-108202472D01*
X145119442Y-108119442D01*
X145202472Y-108011235D01*
X145254667Y-107885225D01*
X145272470Y-107750000D01*
X145254667Y-107614775D01*
X145202472Y-107488765D01*
X145119442Y-107380558D01*
X145057971Y-107333390D01*
X145016771Y-107276964D01*
X145012616Y-107207218D01*
X145045779Y-107147335D01*
X145322354Y-106870761D01*
X145629296Y-106563819D01*
X145690619Y-106530334D01*
X145716977Y-106527500D01*
X151462983Y-106527500D01*
X151530022Y-106547185D01*
X151550664Y-106563819D01*
X155674664Y-110687819D01*
X155708149Y-110749142D01*
X155703165Y-110818834D01*
X155661293Y-110874767D01*
X155595829Y-110899184D01*
X155586983Y-110899500D01*
X136358247Y-110899500D01*
X136291208Y-110879815D01*
X136245453Y-110827011D01*
X136235509Y-110757853D01*
X136264534Y-110694297D01*
X136310794Y-110660939D01*
X136312362Y-110660289D01*
X136331235Y-110652472D01*
X136439442Y-110569442D01*
X136522472Y-110461235D01*
X136522472Y-110461233D01*
X136527420Y-110454786D01*
X136529175Y-110456132D01*
X136571379Y-110415887D01*
X136628205Y-110402100D01*
X146588869Y-110402100D01*
X146588872Y-110402100D01*
X146611702Y-110395982D01*
X146665705Y-110381514D01*
X146676975Y-110375007D01*
X146734594Y-110341740D01*
X147141703Y-109934629D01*
X147203026Y-109901145D01*
X147245569Y-109899372D01*
X147269100Y-109902470D01*
X147404325Y-109884667D01*
X147530335Y-109832472D01*
X147638542Y-109749442D01*
X147721572Y-109641235D01*
X147773767Y-109515225D01*
X147791570Y-109380000D01*
X147773767Y-109244775D01*
X147721572Y-109118765D01*
X147638542Y-109010558D01*
X147530335Y-108927528D01*
X147463864Y-108899995D01*
X148495233Y-108899995D01*
X148495233Y-108900004D01*
X148514273Y-109154079D01*
X148570968Y-109402477D01*
X148570973Y-109402494D01*
X148664058Y-109639671D01*
X148664057Y-109639671D01*
X148791454Y-109860327D01*
X148791461Y-109860338D01*
X148833452Y-109912991D01*
X148833453Y-109912992D01*
X149337425Y-109409019D01*
X149423249Y-109537463D01*
X149562537Y-109676751D01*
X149690978Y-109762573D01*
X149186813Y-110266738D01*
X149347616Y-110376371D01*
X149347624Y-110376376D01*
X149577176Y-110486921D01*
X149577174Y-110486921D01*
X149820652Y-110562024D01*
X149820658Y-110562026D01*
X150072595Y-110599999D01*
X150072604Y-110600000D01*
X150327396Y-110600000D01*
X150327404Y-110599999D01*
X150579341Y-110562026D01*
X150579347Y-110562024D01*
X150822824Y-110486921D01*
X151052376Y-110376376D01*
X151052377Y-110376375D01*
X151213185Y-110266738D01*
X150709020Y-109762573D01*
X150837463Y-109676751D01*
X150976751Y-109537463D01*
X151062573Y-109409020D01*
X151566544Y-109912992D01*
X151566546Y-109912991D01*
X151608544Y-109860330D01*
X151735941Y-109639671D01*
X151829026Y-109402494D01*
X151829031Y-109402477D01*
X151885726Y-109154079D01*
X151904767Y-108900004D01*
X151904767Y-108899995D01*
X151885726Y-108645920D01*
X151829031Y-108397522D01*
X151829026Y-108397505D01*
X151735941Y-108160328D01*
X151735942Y-108160328D01*
X151608545Y-107939672D01*
X151566545Y-107887006D01*
X151062573Y-108390978D01*
X150976751Y-108262537D01*
X150837463Y-108123249D01*
X150709020Y-108037425D01*
X151213185Y-107533260D01*
X151052384Y-107423628D01*
X151052376Y-107423623D01*
X150822823Y-107313078D01*
X150822825Y-107313078D01*
X150579347Y-107237975D01*
X150579341Y-107237973D01*
X150327404Y-107200000D01*
X150072595Y-107200000D01*
X149820658Y-107237973D01*
X149820652Y-107237975D01*
X149577175Y-107313078D01*
X149347622Y-107423625D01*
X149347609Y-107423632D01*
X149186813Y-107533259D01*
X149690979Y-108037425D01*
X149562537Y-108123249D01*
X149423249Y-108262537D01*
X149337426Y-108390979D01*
X148833452Y-107887006D01*
X148791457Y-107939667D01*
X148664058Y-108160328D01*
X148570973Y-108397505D01*
X148570968Y-108397522D01*
X148514273Y-108645920D01*
X148495233Y-108899995D01*
X147463864Y-108899995D01*
X147404325Y-108875333D01*
X147380283Y-108872167D01*
X147316388Y-108843901D01*
X147277917Y-108785576D01*
X147273788Y-108758025D01*
X147273531Y-108758059D01*
X147272470Y-108749999D01*
X147254667Y-108614775D01*
X147202472Y-108488765D01*
X147119442Y-108380558D01*
X147011235Y-108297528D01*
X146885225Y-108245333D01*
X146817612Y-108236431D01*
X146750001Y-108227530D01*
X146749999Y-108227530D01*
X146614775Y-108245333D01*
X146614774Y-108245333D01*
X146488766Y-108297527D01*
X146380558Y-108380558D01*
X146297527Y-108488766D01*
X146245333Y-108614774D01*
X146245333Y-108614775D01*
X146227530Y-108749999D01*
X146227530Y-108750000D01*
X146245333Y-108885224D01*
X146245333Y-108885225D01*
X146297247Y-109010558D01*
X146297528Y-109011235D01*
X146380558Y-109119442D01*
X146488765Y-109202472D01*
X146614775Y-109254667D01*
X146638817Y-109257832D01*
X146702710Y-109286095D01*
X146741182Y-109344419D01*
X146745312Y-109371977D01*
X146745569Y-109371944D01*
X146749727Y-109403531D01*
X146738961Y-109472566D01*
X146714469Y-109507395D01*
X146460283Y-109761582D01*
X146398963Y-109795066D01*
X146372604Y-109797900D01*
X137887001Y-109797900D01*
X137819962Y-109778215D01*
X137774207Y-109725411D01*
X137764263Y-109656253D01*
X137793288Y-109592697D01*
X137811511Y-109575527D01*
X137819442Y-109569442D01*
X137902472Y-109461235D01*
X137954667Y-109335225D01*
X137972470Y-109200000D01*
X137954667Y-109064775D01*
X137902472Y-108938765D01*
X137819442Y-108830558D01*
X137711235Y-108747528D01*
X137585225Y-108695333D01*
X137517612Y-108686431D01*
X137450001Y-108677530D01*
X137449999Y-108677530D01*
X137314775Y-108695333D01*
X137314774Y-108695333D01*
X137188766Y-108747527D01*
X137080553Y-108830562D01*
X137074935Y-108836181D01*
X137013612Y-108869666D01*
X136987254Y-108872500D01*
X136023116Y-108872500D01*
X135936884Y-108872500D01*
X135889395Y-108885225D01*
X135853589Y-108894819D01*
X135778911Y-108937934D01*
X135778908Y-108937936D01*
X134775633Y-109941211D01*
X134714310Y-109974696D01*
X134687952Y-109977530D01*
X134679999Y-109977530D01*
X134544775Y-109995333D01*
X134544774Y-109995333D01*
X134418766Y-110047527D01*
X134310558Y-110130558D01*
X134227527Y-110238766D01*
X134175333Y-110364774D01*
X134175333Y-110364775D01*
X134162634Y-110461235D01*
X134157530Y-110500000D01*
X134170695Y-110600000D01*
X134175333Y-110635224D01*
X134175334Y-110635228D01*
X134213781Y-110728048D01*
X134221250Y-110797517D01*
X134189975Y-110859996D01*
X134129886Y-110895648D01*
X134099220Y-110899500D01*
X122272615Y-110899500D01*
X122205576Y-110879815D01*
X122159821Y-110827011D01*
X122149877Y-110757853D01*
X122178902Y-110694297D01*
X122210616Y-110668112D01*
X122221090Y-110662065D01*
X122514365Y-110368788D01*
X122575688Y-110335304D01*
X122602046Y-110332470D01*
X122610000Y-110332470D01*
X122745225Y-110314667D01*
X122871235Y-110262472D01*
X122979442Y-110179442D01*
X123062472Y-110071235D01*
X123114667Y-109945225D01*
X123132470Y-109810000D01*
X123114667Y-109674775D01*
X123062472Y-109548765D01*
X122979442Y-109440558D01*
X122871235Y-109357528D01*
X122863287Y-109354236D01*
X122817388Y-109335224D01*
X122745225Y-109305333D01*
X122677612Y-109296431D01*
X122610001Y-109287530D01*
X122609999Y-109287530D01*
X122474775Y-109305333D01*
X122474774Y-109305333D01*
X122348766Y-109357527D01*
X122240558Y-109440558D01*
X122157527Y-109548766D01*
X122105333Y-109674774D01*
X122105333Y-109674775D01*
X122087530Y-109809999D01*
X122087530Y-109817952D01*
X122067845Y-109884991D01*
X122051215Y-109905628D01*
X121920662Y-110036182D01*
X121859342Y-110069666D01*
X121832983Y-110072500D01*
X108687017Y-110072500D01*
X108619978Y-110052815D01*
X108599336Y-110036181D01*
X107763154Y-109199999D01*
X111227530Y-109199999D01*
X111227530Y-109200000D01*
X111245333Y-109335224D01*
X111245333Y-109335225D01*
X111286308Y-109434149D01*
X111297528Y-109461235D01*
X111380558Y-109569442D01*
X111488765Y-109652472D01*
X111614775Y-109704667D01*
X111734267Y-109720398D01*
X111749999Y-109722470D01*
X111750000Y-109722470D01*
X111750001Y-109722470D01*
X111764093Y-109720614D01*
X111885225Y-109704667D01*
X112011235Y-109652472D01*
X112119442Y-109569442D01*
X112202472Y-109461235D01*
X112254667Y-109335225D01*
X112272470Y-109200000D01*
X112254667Y-109064775D01*
X112202472Y-108938765D01*
X112119442Y-108830558D01*
X112011235Y-108747528D01*
X111885225Y-108695333D01*
X111817612Y-108686431D01*
X111750001Y-108677530D01*
X111749999Y-108677530D01*
X111614775Y-108695333D01*
X111614774Y-108695333D01*
X111488766Y-108747527D01*
X111380558Y-108830558D01*
X111297527Y-108938766D01*
X111245333Y-109064774D01*
X111245333Y-109064775D01*
X111227530Y-109199999D01*
X107763154Y-109199999D01*
X105294181Y-106731026D01*
X105260696Y-106669703D01*
X105265680Y-106600011D01*
X105307552Y-106544078D01*
X105365675Y-106520406D01*
X105485225Y-106504667D01*
X105611235Y-106452472D01*
X105719442Y-106369442D01*
X105802472Y-106261235D01*
X105854667Y-106135225D01*
X105872470Y-106000000D01*
X105872144Y-105997527D01*
X105864299Y-105937936D01*
X105854667Y-105864775D01*
X105833472Y-105813607D01*
X105826004Y-105744139D01*
X105857279Y-105681660D01*
X105917368Y-105646008D01*
X105987193Y-105648502D01*
X106035715Y-105678475D01*
X108481968Y-108124728D01*
X108481978Y-108124739D01*
X108486308Y-108129069D01*
X108486309Y-108129070D01*
X108570930Y-108213691D01*
X108570932Y-108213692D01*
X108570933Y-108213693D01*
X108594897Y-108227528D01*
X108594899Y-108227530D01*
X108641900Y-108254666D01*
X108674570Y-108273528D01*
X108790164Y-108304501D01*
X108790166Y-108304501D01*
X108917432Y-108304501D01*
X108917448Y-108304500D01*
X112882552Y-108304500D01*
X112882568Y-108304501D01*
X112890164Y-108304501D01*
X113009834Y-108304501D01*
X113009836Y-108304501D01*
X113101213Y-108280016D01*
X113125431Y-108273527D01*
X113229070Y-108213691D01*
X113313691Y-108129070D01*
X113313691Y-108129068D01*
X113323895Y-108118865D01*
X113323898Y-108118860D01*
X114351942Y-107090819D01*
X114413265Y-107057334D01*
X114439623Y-107054500D01*
X126292780Y-107054500D01*
X126359819Y-107074185D01*
X126405574Y-107126989D01*
X126415518Y-107196147D01*
X126386493Y-107259703D01*
X126329330Y-107296991D01*
X126277175Y-107313078D01*
X126047622Y-107423625D01*
X126047609Y-107423632D01*
X125886813Y-107533259D01*
X126390979Y-108037425D01*
X126262537Y-108123249D01*
X126123249Y-108262537D01*
X126037426Y-108390979D01*
X125533452Y-107887006D01*
X125491457Y-107939667D01*
X125364058Y-108160328D01*
X125270973Y-108397505D01*
X125270968Y-108397522D01*
X125214273Y-108645920D01*
X125195233Y-108899995D01*
X125195233Y-108900004D01*
X125214273Y-109154079D01*
X125270968Y-109402477D01*
X125270973Y-109402494D01*
X125364058Y-109639671D01*
X125364057Y-109639671D01*
X125491454Y-109860327D01*
X125491461Y-109860338D01*
X125533452Y-109912991D01*
X125533453Y-109912992D01*
X126037425Y-109409019D01*
X126123249Y-109537463D01*
X126262537Y-109676751D01*
X126390978Y-109762573D01*
X125886813Y-110266738D01*
X126047616Y-110376371D01*
X126047624Y-110376376D01*
X126277176Y-110486921D01*
X126277174Y-110486921D01*
X126520652Y-110562024D01*
X126520658Y-110562026D01*
X126772595Y-110599999D01*
X126772604Y-110600000D01*
X127027396Y-110600000D01*
X127027404Y-110599999D01*
X127279341Y-110562026D01*
X127279347Y-110562024D01*
X127522824Y-110486921D01*
X127752376Y-110376376D01*
X127752377Y-110376375D01*
X127913185Y-110266738D01*
X127409020Y-109762573D01*
X127537463Y-109676751D01*
X127676751Y-109537463D01*
X127762573Y-109409020D01*
X128266544Y-109912992D01*
X128266546Y-109912991D01*
X128308544Y-109860330D01*
X128435941Y-109639671D01*
X128529026Y-109402494D01*
X128529031Y-109402477D01*
X128585726Y-109154079D01*
X128604767Y-108900004D01*
X128604767Y-108899995D01*
X128585726Y-108645920D01*
X128529031Y-108397522D01*
X128529026Y-108397505D01*
X128435941Y-108160328D01*
X128435942Y-108160328D01*
X128308545Y-107939672D01*
X128266545Y-107887006D01*
X127762573Y-108390978D01*
X127676751Y-108262537D01*
X127537463Y-108123249D01*
X127409020Y-108037425D01*
X127913185Y-107533260D01*
X127752384Y-107423628D01*
X127752376Y-107423623D01*
X127522823Y-107313078D01*
X127522825Y-107313078D01*
X127470670Y-107296991D01*
X127412411Y-107258421D01*
X127384253Y-107194476D01*
X127395137Y-107125459D01*
X127441606Y-107073282D01*
X127507220Y-107054500D01*
X129410378Y-107054500D01*
X129477417Y-107074185D01*
X129498059Y-107090819D01*
X130431968Y-108024728D01*
X130431978Y-108024739D01*
X130436308Y-108029069D01*
X130436309Y-108029070D01*
X130520930Y-108113691D01*
X130520932Y-108113692D01*
X130520933Y-108113693D01*
X130530889Y-108119441D01*
X130547567Y-108129070D01*
X130555052Y-108133391D01*
X130555054Y-108133393D01*
X130555055Y-108133393D01*
X130624570Y-108173528D01*
X130740164Y-108204501D01*
X130740166Y-108204501D01*
X130867432Y-108204501D01*
X130867448Y-108204500D01*
X138432552Y-108204500D01*
X138432568Y-108204501D01*
X138440164Y-108204501D01*
X138559835Y-108204501D01*
X138559836Y-108204501D01*
X138650998Y-108180073D01*
X138651001Y-108180073D01*
X138665105Y-108176293D01*
X138675431Y-108173527D01*
X138779070Y-108113691D01*
X138863691Y-108029070D01*
X138863691Y-108029068D01*
X138873895Y-108018865D01*
X138873899Y-108018860D01*
X140168860Y-106723899D01*
X140168865Y-106723895D01*
X140179068Y-106713691D01*
X140179070Y-106713691D01*
X140263691Y-106629070D01*
X140323527Y-106525431D01*
X140325736Y-106517185D01*
X140333982Y-106486412D01*
X140333982Y-106486411D01*
X140354501Y-106409836D01*
X140354501Y-106290164D01*
X140354501Y-106282569D01*
X140354500Y-106282551D01*
X140354500Y-105331003D01*
X140363939Y-105283550D01*
X140367593Y-105274728D01*
X140404667Y-105185225D01*
X140422470Y-105050000D01*
X140404667Y-104914775D01*
X140352472Y-104788765D01*
X140269442Y-104680558D01*
X140161235Y-104597528D01*
X140159622Y-104596860D01*
X140113318Y-104577680D01*
X140035225Y-104545333D01*
X140035223Y-104545332D01*
X140029739Y-104543061D01*
X139975336Y-104499220D01*
X139953271Y-104432926D01*
X139970550Y-104365227D01*
X140021687Y-104317616D01*
X140077192Y-104304500D01*
X140518996Y-104304500D01*
X140566448Y-104313939D01*
X140614432Y-104333814D01*
X140664775Y-104354667D01*
X140784267Y-104370398D01*
X140799999Y-104372470D01*
X140800000Y-104372470D01*
X140800001Y-104372470D01*
X140814093Y-104370614D01*
X140935225Y-104354667D01*
X141061235Y-104302472D01*
X141169442Y-104219442D01*
X141252472Y-104111235D01*
X141304667Y-103985225D01*
X141322470Y-103850000D01*
X141304667Y-103714775D01*
X141252472Y-103588765D01*
X141252471Y-103588764D01*
X141249362Y-103581257D01*
X141251060Y-103580553D01*
X141237002Y-103522595D01*
X141259856Y-103456569D01*
X141314779Y-103413381D01*
X141360861Y-103404500D01*
X141910378Y-103404500D01*
X141977417Y-103424185D01*
G37*
%TD.AperFunction*%
%TA.AperFunction,Conductor*%
G36*
X229542539Y-90174185D02*
G01*
X229588294Y-90226989D01*
X229599500Y-90278500D01*
X229599500Y-105780244D01*
X229579815Y-105847283D01*
X229527011Y-105893038D01*
X229457853Y-105902982D01*
X229394297Y-105873957D01*
X229377125Y-105855731D01*
X229330267Y-105794666D01*
X229319442Y-105780558D01*
X229211235Y-105697528D01*
X229085225Y-105645333D01*
X228985358Y-105632185D01*
X228950001Y-105627530D01*
X228949999Y-105627530D01*
X228814775Y-105645333D01*
X228814774Y-105645333D01*
X228688766Y-105697527D01*
X228580558Y-105780558D01*
X228497527Y-105888766D01*
X228445333Y-106014774D01*
X228445333Y-106014775D01*
X228432634Y-106111235D01*
X228427530Y-106150000D01*
X228439216Y-106238766D01*
X228445333Y-106285224D01*
X228445333Y-106285225D01*
X228496948Y-106409836D01*
X228497528Y-106411235D01*
X228580558Y-106519442D01*
X228688765Y-106602472D01*
X228814775Y-106654667D01*
X228928983Y-106669703D01*
X228949999Y-106672470D01*
X228950000Y-106672470D01*
X228950001Y-106672470D01*
X228971017Y-106669703D01*
X229085225Y-106654667D01*
X229211235Y-106602472D01*
X229319442Y-106519442D01*
X229377124Y-106444268D01*
X229433552Y-106403066D01*
X229503298Y-106398911D01*
X229564218Y-106433123D01*
X229596971Y-106494841D01*
X229599500Y-106519755D01*
X229599500Y-110775500D01*
X229579815Y-110842539D01*
X229527011Y-110888294D01*
X229475500Y-110899500D01*
X229014952Y-110899500D01*
X228947913Y-110879815D01*
X228902158Y-110827011D01*
X228892214Y-110757853D01*
X228900389Y-110728052D01*
X228904667Y-110717725D01*
X228922470Y-110582500D01*
X228904667Y-110447275D01*
X228852472Y-110321265D01*
X228769442Y-110213058D01*
X228661235Y-110130028D01*
X228642988Y-110122470D01*
X228600008Y-110104667D01*
X228535225Y-110077833D01*
X228467612Y-110068931D01*
X228400001Y-110060030D01*
X228399999Y-110060030D01*
X228264775Y-110077833D01*
X228264774Y-110077833D01*
X228138766Y-110130027D01*
X228030558Y-110213058D01*
X227947527Y-110321266D01*
X227895333Y-110447274D01*
X227895333Y-110447275D01*
X227877530Y-110582499D01*
X227877530Y-110582500D01*
X227895332Y-110717722D01*
X227895332Y-110717724D01*
X227895333Y-110717725D01*
X227899609Y-110728048D01*
X227907078Y-110797516D01*
X227875804Y-110859995D01*
X227815715Y-110895648D01*
X227785048Y-110899500D01*
X169133017Y-110899500D01*
X169065978Y-110879815D01*
X169020223Y-110827011D01*
X169010279Y-110757853D01*
X169039304Y-110694297D01*
X169045336Y-110687819D01*
X169246234Y-110486921D01*
X169462065Y-110271090D01*
X169505181Y-110196410D01*
X169527500Y-110113116D01*
X169527500Y-110026884D01*
X169527500Y-109603443D01*
X169547185Y-109536404D01*
X169599989Y-109490649D01*
X169669147Y-109480705D01*
X169726986Y-109505067D01*
X169739192Y-109514433D01*
X169788763Y-109552471D01*
X169788764Y-109552471D01*
X169788765Y-109552472D01*
X169914775Y-109604667D01*
X170024403Y-109619100D01*
X170049999Y-109622470D01*
X170050000Y-109622470D01*
X170050001Y-109622470D01*
X170064523Y-109620558D01*
X170185225Y-109604667D01*
X170311235Y-109552472D01*
X170419442Y-109469442D01*
X170502472Y-109361235D01*
X170554667Y-109235225D01*
X170572470Y-109100000D01*
X170569372Y-109076469D01*
X170580137Y-109007434D01*
X170604627Y-108972605D01*
X170677237Y-108899995D01*
X171795233Y-108899995D01*
X171795233Y-108900004D01*
X171814273Y-109154079D01*
X171870968Y-109402477D01*
X171870973Y-109402494D01*
X171964058Y-109639671D01*
X171964057Y-109639671D01*
X172091454Y-109860327D01*
X172091461Y-109860338D01*
X172133452Y-109912991D01*
X172133453Y-109912992D01*
X172637425Y-109409019D01*
X172723249Y-109537463D01*
X172862537Y-109676751D01*
X172990978Y-109762573D01*
X172486813Y-110266738D01*
X172647616Y-110376371D01*
X172647624Y-110376376D01*
X172877176Y-110486921D01*
X172877174Y-110486921D01*
X173120652Y-110562024D01*
X173120658Y-110562026D01*
X173372595Y-110599999D01*
X173372604Y-110600000D01*
X173627396Y-110600000D01*
X173627404Y-110599999D01*
X173879341Y-110562026D01*
X173879347Y-110562024D01*
X174122824Y-110486921D01*
X174352376Y-110376376D01*
X174352377Y-110376375D01*
X174513185Y-110266738D01*
X174009020Y-109762573D01*
X174137463Y-109676751D01*
X174276751Y-109537463D01*
X174362573Y-109409020D01*
X174866544Y-109912992D01*
X174866546Y-109912991D01*
X174908544Y-109860330D01*
X175035941Y-109639671D01*
X175051511Y-109600000D01*
X177377530Y-109600000D01*
X177394345Y-109727724D01*
X177395333Y-109735224D01*
X177395333Y-109735225D01*
X177429599Y-109817952D01*
X177447528Y-109861235D01*
X177530558Y-109969442D01*
X177638765Y-110052472D01*
X177764775Y-110104667D01*
X177884267Y-110120398D01*
X177899999Y-110122470D01*
X177900000Y-110122470D01*
X177900001Y-110122470D01*
X177914093Y-110120614D01*
X178035225Y-110104667D01*
X178161235Y-110052472D01*
X178269442Y-109969442D01*
X178352472Y-109861235D01*
X178386681Y-109778646D01*
X178430522Y-109724244D01*
X178496816Y-109702179D01*
X178501242Y-109702100D01*
X189765866Y-109702100D01*
X189832905Y-109721785D01*
X189841333Y-109727710D01*
X189938765Y-109802472D01*
X190064775Y-109854667D01*
X190184267Y-109870398D01*
X190199999Y-109872470D01*
X190200000Y-109872470D01*
X190200001Y-109872470D01*
X190214093Y-109870614D01*
X190335225Y-109854667D01*
X190461235Y-109802472D01*
X190569442Y-109719442D01*
X190652472Y-109611235D01*
X190704667Y-109485225D01*
X190722470Y-109350000D01*
X190704667Y-109214775D01*
X190652472Y-109088765D01*
X190569442Y-108980558D01*
X190464450Y-108899995D01*
X195095233Y-108899995D01*
X195095233Y-108900004D01*
X195114273Y-109154079D01*
X195170968Y-109402477D01*
X195170973Y-109402494D01*
X195264058Y-109639671D01*
X195264057Y-109639671D01*
X195391454Y-109860327D01*
X195391461Y-109860338D01*
X195433452Y-109912991D01*
X195433453Y-109912992D01*
X195937425Y-109409019D01*
X196023249Y-109537463D01*
X196162537Y-109676751D01*
X196290978Y-109762573D01*
X195786813Y-110266738D01*
X195947616Y-110376371D01*
X195947624Y-110376376D01*
X196177176Y-110486921D01*
X196177174Y-110486921D01*
X196420652Y-110562024D01*
X196420658Y-110562026D01*
X196672595Y-110599999D01*
X196672604Y-110600000D01*
X196927396Y-110600000D01*
X196927404Y-110599999D01*
X197179341Y-110562026D01*
X197179347Y-110562024D01*
X197422824Y-110486921D01*
X197652376Y-110376376D01*
X197652377Y-110376375D01*
X197813185Y-110266738D01*
X197309020Y-109762573D01*
X197437463Y-109676751D01*
X197576751Y-109537463D01*
X197662573Y-109409020D01*
X198166544Y-109912992D01*
X198166546Y-109912991D01*
X198208544Y-109860330D01*
X198335941Y-109639671D01*
X198429026Y-109402494D01*
X198429031Y-109402477D01*
X198485726Y-109154079D01*
X198504767Y-108900004D01*
X198504767Y-108899995D01*
X218395233Y-108899995D01*
X218395233Y-108900004D01*
X218414273Y-109154079D01*
X218470968Y-109402477D01*
X218470973Y-109402494D01*
X218564058Y-109639671D01*
X218564057Y-109639671D01*
X218691454Y-109860327D01*
X218691461Y-109860338D01*
X218733452Y-109912991D01*
X218733453Y-109912992D01*
X219237425Y-109409019D01*
X219323249Y-109537463D01*
X219462537Y-109676751D01*
X219590978Y-109762573D01*
X219086813Y-110266738D01*
X219247616Y-110376371D01*
X219247624Y-110376376D01*
X219477176Y-110486921D01*
X219477174Y-110486921D01*
X219720652Y-110562024D01*
X219720658Y-110562026D01*
X219972595Y-110599999D01*
X219972604Y-110600000D01*
X220227396Y-110600000D01*
X220227404Y-110599999D01*
X220479341Y-110562026D01*
X220479347Y-110562024D01*
X220722824Y-110486921D01*
X220952376Y-110376376D01*
X220952377Y-110376375D01*
X221113185Y-110266738D01*
X220609020Y-109762573D01*
X220737463Y-109676751D01*
X220876751Y-109537463D01*
X220962573Y-109409020D01*
X221466544Y-109912992D01*
X221466546Y-109912991D01*
X221476907Y-109900000D01*
X222177530Y-109900000D01*
X222190695Y-110000000D01*
X222195333Y-110035224D01*
X222195333Y-110035225D01*
X222214110Y-110080558D01*
X222247528Y-110161235D01*
X222330558Y-110269442D01*
X222438765Y-110352472D01*
X222564775Y-110404667D01*
X222684267Y-110420398D01*
X222699999Y-110422470D01*
X222700000Y-110422470D01*
X222700001Y-110422470D01*
X222714093Y-110420614D01*
X222835225Y-110404667D01*
X222961235Y-110352472D01*
X223069442Y-110269442D01*
X223152472Y-110161235D01*
X223204667Y-110035225D01*
X223222470Y-109900000D01*
X223221336Y-109891390D01*
X223220347Y-109883874D01*
X223204667Y-109764775D01*
X223152472Y-109638765D01*
X223069442Y-109530558D01*
X222961235Y-109447528D01*
X222835225Y-109395333D01*
X222767612Y-109386431D01*
X222700001Y-109377530D01*
X222699999Y-109377530D01*
X222564775Y-109395333D01*
X222564774Y-109395333D01*
X222438766Y-109447527D01*
X222330558Y-109530558D01*
X222247527Y-109638766D01*
X222195333Y-109764774D01*
X222195333Y-109764775D01*
X222178664Y-109891390D01*
X222177530Y-109900000D01*
X221476907Y-109900000D01*
X221508544Y-109860330D01*
X221635941Y-109639671D01*
X221729026Y-109402494D01*
X221729031Y-109402477D01*
X221785726Y-109154079D01*
X221804767Y-108900004D01*
X221804767Y-108899995D01*
X221785726Y-108645920D01*
X221729031Y-108397522D01*
X221729026Y-108397505D01*
X221635941Y-108160328D01*
X221635942Y-108160328D01*
X221508545Y-107939672D01*
X221466545Y-107887006D01*
X220962573Y-108390978D01*
X220876751Y-108262537D01*
X220737463Y-108123249D01*
X220609020Y-108037425D01*
X221113185Y-107533260D01*
X220952384Y-107423628D01*
X220952376Y-107423623D01*
X220722823Y-107313078D01*
X220722825Y-107313078D01*
X220479347Y-107237975D01*
X220479341Y-107237973D01*
X220227404Y-107200000D01*
X219972595Y-107200000D01*
X219720658Y-107237973D01*
X219720652Y-107237975D01*
X219477175Y-107313078D01*
X219247622Y-107423625D01*
X219247609Y-107423632D01*
X219086813Y-107533259D01*
X219590979Y-108037425D01*
X219462537Y-108123249D01*
X219323249Y-108262537D01*
X219237426Y-108390979D01*
X218733452Y-107887006D01*
X218691457Y-107939667D01*
X218564058Y-108160328D01*
X218470973Y-108397505D01*
X218470968Y-108397522D01*
X218414273Y-108645920D01*
X218395233Y-108899995D01*
X198504767Y-108899995D01*
X198485726Y-108645920D01*
X198429031Y-108397522D01*
X198429026Y-108397505D01*
X198335941Y-108160328D01*
X198335942Y-108160328D01*
X198208545Y-107939672D01*
X198166545Y-107887006D01*
X197662573Y-108390978D01*
X197576751Y-108262537D01*
X197437463Y-108123249D01*
X197309020Y-108037425D01*
X197813185Y-107533260D01*
X197652384Y-107423628D01*
X197652376Y-107423623D01*
X197422823Y-107313078D01*
X197422825Y-107313078D01*
X197179347Y-107237975D01*
X197179341Y-107237973D01*
X196927404Y-107200000D01*
X196672595Y-107200000D01*
X196420658Y-107237973D01*
X196420652Y-107237975D01*
X196177175Y-107313078D01*
X195947622Y-107423625D01*
X195947609Y-107423632D01*
X195786813Y-107533259D01*
X196290979Y-108037425D01*
X196162537Y-108123249D01*
X196023249Y-108262537D01*
X195937425Y-108390979D01*
X195433452Y-107887006D01*
X195391457Y-107939667D01*
X195264058Y-108160328D01*
X195170973Y-108397505D01*
X195170968Y-108397522D01*
X195114273Y-108645920D01*
X195095233Y-108899995D01*
X190464450Y-108899995D01*
X190461235Y-108897528D01*
X190431530Y-108885224D01*
X190393970Y-108869666D01*
X190335225Y-108845333D01*
X190265710Y-108836181D01*
X190200001Y-108827530D01*
X190199999Y-108827530D01*
X190064775Y-108845333D01*
X190064774Y-108845333D01*
X189938766Y-108897527D01*
X189830556Y-108980559D01*
X189804303Y-109014774D01*
X189788612Y-109035224D01*
X189777745Y-109049386D01*
X189721317Y-109090589D01*
X189679369Y-109097900D01*
X178061129Y-109097900D01*
X178043391Y-109095565D01*
X178043282Y-109096394D01*
X178035225Y-109095333D01*
X177948351Y-109083895D01*
X177900001Y-109077530D01*
X177899999Y-109077530D01*
X177764775Y-109095333D01*
X177764774Y-109095333D01*
X177638766Y-109147527D01*
X177530558Y-109230558D01*
X177447527Y-109338766D01*
X177395333Y-109464774D01*
X177395333Y-109464775D01*
X177380139Y-109580186D01*
X177377530Y-109600000D01*
X175051511Y-109600000D01*
X175129026Y-109402494D01*
X175129031Y-109402477D01*
X175185726Y-109154079D01*
X175204767Y-108900004D01*
X175204767Y-108899995D01*
X175185726Y-108645920D01*
X175129031Y-108397522D01*
X175129026Y-108397505D01*
X175035941Y-108160328D01*
X175035942Y-108160328D01*
X174908545Y-107939672D01*
X174866545Y-107887006D01*
X174362573Y-108390978D01*
X174276751Y-108262537D01*
X174137463Y-108123249D01*
X174009020Y-108037425D01*
X174513185Y-107533260D01*
X174352384Y-107423628D01*
X174352376Y-107423623D01*
X174122823Y-107313078D01*
X174122825Y-107313078D01*
X173879347Y-107237975D01*
X173879341Y-107237973D01*
X173627404Y-107200000D01*
X173372595Y-107200000D01*
X173120658Y-107237973D01*
X173120652Y-107237975D01*
X172877175Y-107313078D01*
X172647622Y-107423625D01*
X172647609Y-107423632D01*
X172486813Y-107533259D01*
X172990979Y-108037425D01*
X172862537Y-108123249D01*
X172723249Y-108262537D01*
X172637426Y-108390979D01*
X172133452Y-107887006D01*
X172091457Y-107939667D01*
X171964058Y-108160328D01*
X171870973Y-108397505D01*
X171870968Y-108397522D01*
X171814273Y-108645920D01*
X171795233Y-108899995D01*
X170677237Y-108899995D01*
X172638815Y-106938419D01*
X172700138Y-106904934D01*
X172726496Y-106902100D01*
X174323504Y-106902100D01*
X174390543Y-106921785D01*
X174411185Y-106938419D01*
X175908260Y-108435494D01*
X175964506Y-108491740D01*
X176033394Y-108531513D01*
X176110228Y-108552100D01*
X184267735Y-108552100D01*
X184334774Y-108571785D01*
X184366107Y-108600610D01*
X184380558Y-108619442D01*
X184488765Y-108702472D01*
X184614775Y-108754667D01*
X184734267Y-108770398D01*
X184749999Y-108772470D01*
X184750000Y-108772470D01*
X184750001Y-108772470D01*
X184764093Y-108770614D01*
X184885225Y-108754667D01*
X185011235Y-108702472D01*
X185119442Y-108619442D01*
X185202472Y-108511235D01*
X185254667Y-108385225D01*
X185272470Y-108250000D01*
X185254667Y-108114775D01*
X185202472Y-107988765D01*
X185119442Y-107880558D01*
X185011235Y-107797528D01*
X184885225Y-107745333D01*
X184817612Y-107736431D01*
X184750001Y-107727530D01*
X184749999Y-107727530D01*
X184614775Y-107745333D01*
X184614774Y-107745333D01*
X184488766Y-107797527D01*
X184479461Y-107804667D01*
X184380558Y-107880558D01*
X184366108Y-107899388D01*
X184309683Y-107940589D01*
X184267735Y-107947900D01*
X176326496Y-107947900D01*
X176259457Y-107928215D01*
X176238815Y-107911581D01*
X174866416Y-106539181D01*
X174832931Y-106477858D01*
X174837915Y-106408166D01*
X174879787Y-106352233D01*
X174945251Y-106327816D01*
X174954097Y-106327500D01*
X179053530Y-106327500D01*
X179120569Y-106347185D01*
X179166324Y-106399989D01*
X179175479Y-106442072D01*
X179176469Y-106441942D01*
X179184113Y-106499999D01*
X179194118Y-106576000D01*
X179195333Y-106585224D01*
X179195333Y-106585225D01*
X179238870Y-106690334D01*
X179247528Y-106711235D01*
X179330558Y-106819442D01*
X179438765Y-106902472D01*
X179564775Y-106954667D01*
X179684267Y-106970398D01*
X179699999Y-106972470D01*
X179700000Y-106972470D01*
X179700001Y-106972470D01*
X179714093Y-106970614D01*
X179835225Y-106954667D01*
X179961235Y-106902472D01*
X180069442Y-106819442D01*
X180152472Y-106711235D01*
X180204667Y-106585225D01*
X180215887Y-106500000D01*
X223927530Y-106500000D01*
X223931968Y-106533713D01*
X223945333Y-106635224D01*
X223945333Y-106635225D01*
X223982064Y-106723903D01*
X223997528Y-106761235D01*
X224080558Y-106869442D01*
X224188765Y-106952472D01*
X224314775Y-107004667D01*
X224434267Y-107020398D01*
X224449999Y-107022470D01*
X224450000Y-107022470D01*
X224450001Y-107022470D01*
X224464093Y-107020614D01*
X224585225Y-107004667D01*
X224711235Y-106952472D01*
X224819442Y-106869442D01*
X224902472Y-106761235D01*
X224954667Y-106635225D01*
X224972470Y-106500000D01*
X224954667Y-106364775D01*
X224902472Y-106238765D01*
X224819442Y-106130558D01*
X224711235Y-106047528D01*
X224585225Y-105995333D01*
X224517612Y-105986431D01*
X224450001Y-105977530D01*
X224449999Y-105977530D01*
X224314775Y-105995333D01*
X224314774Y-105995333D01*
X224188766Y-106047527D01*
X224080558Y-106130558D01*
X223997527Y-106238766D01*
X223945333Y-106364774D01*
X223945333Y-106364775D01*
X223939401Y-106409836D01*
X223927530Y-106500000D01*
X180215887Y-106500000D01*
X180222470Y-106450000D01*
X180221715Y-106444269D01*
X180220173Y-106432551D01*
X180204667Y-106314775D01*
X180152472Y-106188765D01*
X180069442Y-106080558D01*
X179961235Y-105997528D01*
X179931530Y-105985224D01*
X179924325Y-105982239D01*
X179835225Y-105945333D01*
X179752410Y-105934430D01*
X179700001Y-105927530D01*
X179692047Y-105927530D01*
X179625008Y-105907845D01*
X179604366Y-105891211D01*
X179537336Y-105824181D01*
X179503851Y-105762858D01*
X179508835Y-105693166D01*
X179550707Y-105637233D01*
X179616171Y-105612816D01*
X179625017Y-105612500D01*
X189517403Y-105612500D01*
X189584442Y-105632185D01*
X189630197Y-105684989D01*
X189640341Y-105752685D01*
X189639003Y-105762858D01*
X189627530Y-105849999D01*
X189627530Y-105850000D01*
X189645333Y-105985224D01*
X189645333Y-105985225D01*
X189692679Y-106099530D01*
X189697528Y-106111235D01*
X189780558Y-106219442D01*
X189888765Y-106302472D01*
X190014775Y-106354667D01*
X190134267Y-106370398D01*
X190149999Y-106372470D01*
X190150000Y-106372470D01*
X190150001Y-106372470D01*
X190164093Y-106370614D01*
X190285225Y-106354667D01*
X190411235Y-106302472D01*
X190519442Y-106219442D01*
X190602472Y-106111235D01*
X190654667Y-105985225D01*
X190672470Y-105850000D01*
X190671504Y-105842666D01*
X190660997Y-105762858D01*
X190659658Y-105752685D01*
X190670423Y-105683651D01*
X190716803Y-105631395D01*
X190782597Y-105612500D01*
X224074552Y-105612500D01*
X224074568Y-105612501D01*
X224082164Y-105612501D01*
X224201835Y-105612501D01*
X224201836Y-105612501D01*
X224292998Y-105588073D01*
X224293001Y-105588073D01*
X224309880Y-105583550D01*
X224317431Y-105581527D01*
X224421070Y-105521691D01*
X224505691Y-105437070D01*
X224505691Y-105437068D01*
X224515895Y-105426865D01*
X224515899Y-105426860D01*
X228668860Y-101273899D01*
X228668865Y-101273895D01*
X228679068Y-101263691D01*
X228679070Y-101263691D01*
X228763691Y-101179070D01*
X228823527Y-101075431D01*
X228854500Y-100959836D01*
X228854500Y-99939014D01*
X228874185Y-99871975D01*
X228896270Y-99846200D01*
X228928183Y-99817929D01*
X229024818Y-99677930D01*
X229085140Y-99518872D01*
X229105645Y-99350000D01*
X229085140Y-99181128D01*
X229024818Y-99022070D01*
X229012805Y-99004667D01*
X228987159Y-98967512D01*
X228928183Y-98882071D01*
X228800852Y-98769266D01*
X228800849Y-98769263D01*
X228650226Y-98690210D01*
X228485056Y-98649500D01*
X228314944Y-98649500D01*
X228149773Y-98690210D01*
X227999150Y-98769263D01*
X227912059Y-98846419D01*
X227882655Y-98872470D01*
X227882227Y-98872849D01*
X227818994Y-98902570D01*
X227749730Y-98893386D01*
X227717773Y-98872849D01*
X227717345Y-98872470D01*
X227640812Y-98804667D01*
X227600849Y-98769263D01*
X227450226Y-98690210D01*
X227285056Y-98649500D01*
X227114944Y-98649500D01*
X226949773Y-98690210D01*
X226799150Y-98769263D01*
X226712059Y-98846419D01*
X226682655Y-98872470D01*
X226682227Y-98872849D01*
X226618994Y-98902570D01*
X226549730Y-98893386D01*
X226517773Y-98872849D01*
X226517345Y-98872470D01*
X226440812Y-98804667D01*
X226400849Y-98769263D01*
X226250226Y-98690210D01*
X226085056Y-98649500D01*
X225914944Y-98649500D01*
X225749773Y-98690210D01*
X225599150Y-98769263D01*
X225512059Y-98846419D01*
X225482655Y-98872470D01*
X225482227Y-98872849D01*
X225418994Y-98902570D01*
X225349730Y-98893386D01*
X225317773Y-98872849D01*
X225317345Y-98872470D01*
X225240812Y-98804667D01*
X225200849Y-98769263D01*
X225050226Y-98690210D01*
X224885056Y-98649500D01*
X224714944Y-98649500D01*
X224549773Y-98690210D01*
X224399150Y-98769263D01*
X224271816Y-98882072D01*
X224175182Y-99022068D01*
X224114860Y-99181125D01*
X224114859Y-99181130D01*
X224094355Y-99350000D01*
X224114859Y-99518869D01*
X224114860Y-99518874D01*
X224175182Y-99677931D01*
X224261093Y-99802393D01*
X224282976Y-99868747D01*
X224265511Y-99936399D01*
X224246724Y-99960514D01*
X222098059Y-102109181D01*
X222036736Y-102142666D01*
X222010378Y-102145500D01*
X167140164Y-102145500D01*
X167085810Y-102160064D01*
X167024562Y-102176475D01*
X167020615Y-102178110D01*
X167017018Y-102178496D01*
X167016718Y-102178577D01*
X167016705Y-102178530D01*
X166951146Y-102185576D01*
X166888668Y-102154298D01*
X166853018Y-102094207D01*
X166855515Y-102024382D01*
X166885487Y-101975866D01*
X167803834Y-101057519D01*
X167865157Y-101024034D01*
X167891515Y-101021200D01*
X170390669Y-101021200D01*
X170390672Y-101021200D01*
X170467507Y-101000613D01*
X170483098Y-100991610D01*
X170550996Y-100975135D01*
X170561268Y-100976054D01*
X170610000Y-100982470D01*
X170745225Y-100964667D01*
X170871235Y-100912472D01*
X170979442Y-100829442D01*
X171062472Y-100721235D01*
X171114667Y-100595225D01*
X171132470Y-100460000D01*
X171114667Y-100324775D01*
X171062472Y-100198765D01*
X170979442Y-100090558D01*
X170979439Y-100090555D01*
X170979437Y-100090553D01*
X170978065Y-100089181D01*
X170977276Y-100087737D01*
X170974494Y-100084111D01*
X170975059Y-100083677D01*
X170944580Y-100027858D01*
X170949564Y-99958166D01*
X170991436Y-99902233D01*
X171056900Y-99877816D01*
X171065746Y-99877500D01*
X175648500Y-99877500D01*
X175715539Y-99897185D01*
X175761294Y-99949989D01*
X175772500Y-100001500D01*
X175772500Y-100487254D01*
X175752815Y-100554293D01*
X175736181Y-100574935D01*
X175730562Y-100580553D01*
X175730558Y-100580557D01*
X175730558Y-100580558D01*
X175719304Y-100595225D01*
X175647527Y-100688766D01*
X175595333Y-100814774D01*
X175595333Y-100814775D01*
X175582634Y-100911235D01*
X175577530Y-100950000D01*
X175594043Y-101075430D01*
X175595333Y-101085224D01*
X175595333Y-101085225D01*
X175617997Y-101139942D01*
X175647528Y-101211235D01*
X175730558Y-101319442D01*
X175838765Y-101402472D01*
X175964775Y-101454667D01*
X176075132Y-101469196D01*
X176099999Y-101472470D01*
X176100000Y-101472470D01*
X176100001Y-101472470D01*
X176114093Y-101470614D01*
X176235225Y-101454667D01*
X176361235Y-101402472D01*
X176469442Y-101319442D01*
X176552472Y-101211235D01*
X176604667Y-101085225D01*
X176622470Y-100950000D01*
X176604667Y-100814775D01*
X176552472Y-100688765D01*
X176469442Y-100580558D01*
X176469439Y-100580555D01*
X176469437Y-100580553D01*
X176463819Y-100574935D01*
X176430334Y-100513612D01*
X176427500Y-100487254D01*
X176427500Y-100001500D01*
X176447185Y-99934461D01*
X176499989Y-99888706D01*
X176551500Y-99877500D01*
X186298500Y-99877500D01*
X186365539Y-99897185D01*
X186411294Y-99949989D01*
X186422500Y-100001500D01*
X186422500Y-100487254D01*
X186402815Y-100554293D01*
X186386181Y-100574935D01*
X186380562Y-100580553D01*
X186380558Y-100580557D01*
X186380558Y-100580558D01*
X186369304Y-100595225D01*
X186297527Y-100688766D01*
X186245333Y-100814774D01*
X186245333Y-100814775D01*
X186232634Y-100911235D01*
X186227530Y-100950000D01*
X186244043Y-101075430D01*
X186245333Y-101085224D01*
X186245333Y-101085225D01*
X186267997Y-101139942D01*
X186297528Y-101211235D01*
X186380558Y-101319442D01*
X186488765Y-101402472D01*
X186614775Y-101454667D01*
X186725132Y-101469196D01*
X186749999Y-101472470D01*
X186750000Y-101472470D01*
X186750001Y-101472470D01*
X186764093Y-101470614D01*
X186885225Y-101454667D01*
X187011235Y-101402472D01*
X187119442Y-101319442D01*
X187202472Y-101211235D01*
X187254667Y-101085225D01*
X187272470Y-100950000D01*
X187254667Y-100814775D01*
X187202472Y-100688765D01*
X187119442Y-100580558D01*
X187119439Y-100580555D01*
X187119437Y-100580553D01*
X187113819Y-100574935D01*
X187080334Y-100513612D01*
X187077500Y-100487254D01*
X187077500Y-100001500D01*
X187097185Y-99934461D01*
X187149989Y-99888706D01*
X187201500Y-99877500D01*
X221137254Y-99877500D01*
X221204293Y-99897185D01*
X221224935Y-99913819D01*
X221230553Y-99919437D01*
X221230555Y-99919439D01*
X221230558Y-99919442D01*
X221338765Y-100002472D01*
X221464775Y-100054667D01*
X221584267Y-100070398D01*
X221599999Y-100072470D01*
X221600000Y-100072470D01*
X221600001Y-100072470D01*
X221614093Y-100070614D01*
X221735225Y-100054667D01*
X221861235Y-100002472D01*
X221969442Y-99919442D01*
X222052472Y-99811235D01*
X222104667Y-99685225D01*
X222122470Y-99550000D01*
X222104667Y-99414775D01*
X222052472Y-99288765D01*
X221969442Y-99180558D01*
X221861235Y-99097528D01*
X221735225Y-99045333D01*
X221667612Y-99036431D01*
X221600001Y-99027530D01*
X221599999Y-99027530D01*
X221464775Y-99045333D01*
X221464774Y-99045333D01*
X221338766Y-99097527D01*
X221289637Y-99135225D01*
X221237325Y-99175366D01*
X221230553Y-99180562D01*
X221224935Y-99186181D01*
X221163612Y-99219666D01*
X221137254Y-99222500D01*
X185684572Y-99222500D01*
X185617533Y-99202815D01*
X185571778Y-99150011D01*
X185561633Y-99082314D01*
X185572470Y-99000000D01*
X185572470Y-98999999D01*
X185569560Y-98977900D01*
X185554667Y-98864775D01*
X185502472Y-98738765D01*
X185419442Y-98630558D01*
X185311235Y-98547528D01*
X185309849Y-98546954D01*
X185272395Y-98531440D01*
X185185225Y-98495333D01*
X185117612Y-98486431D01*
X185050001Y-98477530D01*
X185049999Y-98477530D01*
X184914775Y-98495333D01*
X184914774Y-98495333D01*
X184788766Y-98547527D01*
X184680558Y-98630558D01*
X184597527Y-98738766D01*
X184545333Y-98864774D01*
X184545333Y-98864775D01*
X184527530Y-98999999D01*
X184527530Y-99000000D01*
X184538367Y-99082314D01*
X184527602Y-99151350D01*
X184481222Y-99203606D01*
X184415428Y-99222500D01*
X179471253Y-99222500D01*
X179404214Y-99202815D01*
X179358459Y-99150011D01*
X179348515Y-99080853D01*
X179356692Y-99051048D01*
X179377837Y-98999999D01*
X179404667Y-98935225D01*
X179422470Y-98800000D01*
X179404667Y-98664775D01*
X179352472Y-98538765D01*
X179269442Y-98430558D01*
X179161235Y-98347528D01*
X179157343Y-98345916D01*
X179082162Y-98314775D01*
X179035225Y-98295333D01*
X178967612Y-98286431D01*
X178900001Y-98277530D01*
X178900000Y-98277530D01*
X178895375Y-98278138D01*
X178874617Y-98280871D01*
X178805582Y-98270103D01*
X178792605Y-98262193D01*
X178792531Y-98262323D01*
X178716605Y-98218485D01*
X178639775Y-98197900D01*
X178639772Y-98197900D01*
X166089772Y-98197900D01*
X166010228Y-98197900D01*
X166010224Y-98197900D01*
X165933394Y-98218485D01*
X165864503Y-98258261D01*
X165570079Y-98552685D01*
X165508756Y-98586170D01*
X165439064Y-98581186D01*
X165383131Y-98539314D01*
X165358714Y-98473850D01*
X165359458Y-98448829D01*
X165372470Y-98350000D01*
X165372144Y-98347527D01*
X165367160Y-98309665D01*
X165354667Y-98214775D01*
X165302472Y-98088765D01*
X165219442Y-97980558D01*
X165111235Y-97897528D01*
X165111231Y-97897526D01*
X165071757Y-97881175D01*
X165031529Y-97854295D01*
X164921015Y-97743781D01*
X164887530Y-97682458D01*
X164892514Y-97612766D01*
X164934386Y-97556833D01*
X164999850Y-97532416D01*
X165008696Y-97532100D01*
X166620563Y-97532100D01*
X166687602Y-97551785D01*
X166708244Y-97568419D01*
X166981562Y-97841738D01*
X166981564Y-97841739D01*
X166981565Y-97841740D01*
X167000153Y-97852472D01*
X167050453Y-97881514D01*
X167110223Y-97897528D01*
X167127287Y-97902100D01*
X167127290Y-97902100D01*
X181938870Y-97902100D01*
X181956607Y-97904434D01*
X181956717Y-97903606D01*
X181964774Y-97904666D01*
X181964775Y-97904667D01*
X182027021Y-97912862D01*
X182099999Y-97922470D01*
X182100000Y-97922470D01*
X182100001Y-97922470D01*
X182114093Y-97920614D01*
X182235225Y-97904667D01*
X182361235Y-97852472D01*
X182469442Y-97769442D01*
X182552472Y-97661235D01*
X182604667Y-97535225D01*
X182622470Y-97400000D01*
X182604667Y-97264775D01*
X182577836Y-97200000D01*
X209427530Y-97200000D01*
X209430875Y-97225411D01*
X209445333Y-97335224D01*
X209445333Y-97335225D01*
X209479727Y-97418261D01*
X209497528Y-97461235D01*
X209580558Y-97569442D01*
X209688765Y-97652472D01*
X209814775Y-97704667D01*
X209934267Y-97720398D01*
X209949999Y-97722470D01*
X209950000Y-97722470D01*
X209950001Y-97722470D01*
X209964093Y-97720614D01*
X210085225Y-97704667D01*
X210211235Y-97652472D01*
X210319442Y-97569442D01*
X210333891Y-97550611D01*
X210390317Y-97509411D01*
X210432265Y-97502100D01*
X222023504Y-97502100D01*
X222090543Y-97521785D01*
X222111185Y-97538419D01*
X222364196Y-97791430D01*
X222397681Y-97852753D01*
X222396290Y-97911202D01*
X222395333Y-97914771D01*
X222377855Y-98047528D01*
X222377530Y-98050000D01*
X222395234Y-98184476D01*
X222395333Y-98185224D01*
X222395333Y-98185225D01*
X222438220Y-98288765D01*
X222447528Y-98311235D01*
X222530558Y-98419442D01*
X222638765Y-98502472D01*
X222764775Y-98554667D01*
X222881839Y-98570079D01*
X222899999Y-98572470D01*
X222900000Y-98572470D01*
X222900001Y-98572470D01*
X222918161Y-98570079D01*
X223035225Y-98554667D01*
X223161235Y-98502472D01*
X223269442Y-98419442D01*
X223352472Y-98311235D01*
X223404667Y-98185225D01*
X223422470Y-98050000D01*
X223422144Y-98047527D01*
X223418705Y-98021402D01*
X223404667Y-97914775D01*
X223352472Y-97788765D01*
X223269442Y-97680558D01*
X223161235Y-97597528D01*
X223035225Y-97545333D01*
X223004796Y-97541326D01*
X222940901Y-97513060D01*
X222933303Y-97506069D01*
X222635494Y-97208260D01*
X222385496Y-96958261D01*
X222316605Y-96918485D01*
X222239775Y-96897900D01*
X222239772Y-96897900D01*
X210432265Y-96897900D01*
X210365226Y-96878215D01*
X210333892Y-96849389D01*
X210319442Y-96830558D01*
X210211235Y-96747528D01*
X210085225Y-96695333D01*
X210017612Y-96686431D01*
X209950001Y-96677530D01*
X209949999Y-96677530D01*
X209814775Y-96695333D01*
X209814774Y-96695333D01*
X209688766Y-96747527D01*
X209580558Y-96830558D01*
X209497527Y-96938766D01*
X209445333Y-97064774D01*
X209445333Y-97064775D01*
X209432634Y-97161235D01*
X209427530Y-97200000D01*
X182577836Y-97200000D01*
X182552472Y-97138765D01*
X182469442Y-97030558D01*
X182361235Y-96947528D01*
X182235225Y-96895333D01*
X182150329Y-96884156D01*
X182100001Y-96877530D01*
X182099999Y-96877530D01*
X181964775Y-96895333D01*
X181964774Y-96895333D01*
X181838766Y-96947527D01*
X181730558Y-97030558D01*
X181647527Y-97138766D01*
X181613319Y-97221353D01*
X181569478Y-97275756D01*
X181503184Y-97297821D01*
X181498758Y-97297900D01*
X172881442Y-97297900D01*
X172814403Y-97278215D01*
X172768648Y-97225411D01*
X172758704Y-97156253D01*
X172766879Y-97126451D01*
X172804667Y-97035225D01*
X172822470Y-96900000D01*
X172804667Y-96764775D01*
X172752472Y-96638765D01*
X172669442Y-96530558D01*
X172561235Y-96447528D01*
X172553951Y-96444511D01*
X172492949Y-96419243D01*
X172435225Y-96395333D01*
X172323934Y-96380681D01*
X172300001Y-96377530D01*
X172299999Y-96377530D01*
X172164775Y-96395333D01*
X172164774Y-96395333D01*
X172038766Y-96447527D01*
X171940266Y-96523109D01*
X171930558Y-96530558D01*
X171916108Y-96549388D01*
X171859683Y-96590589D01*
X171817735Y-96597900D01*
X170176496Y-96597900D01*
X170109457Y-96578215D01*
X170088815Y-96561581D01*
X169385496Y-95858261D01*
X169316605Y-95818485D01*
X169239775Y-95797900D01*
X169239772Y-95797900D01*
X167389772Y-95797900D01*
X167310228Y-95797900D01*
X167310224Y-95797900D01*
X167233394Y-95818485D01*
X167164503Y-95858261D01*
X166542085Y-96480681D01*
X166480762Y-96514166D01*
X166454404Y-96517000D01*
X164485296Y-96517000D01*
X164418257Y-96497315D01*
X164372502Y-96444511D01*
X164362357Y-96376814D01*
X164372470Y-96300000D01*
X164372470Y-96299999D01*
X164366537Y-96254934D01*
X164354667Y-96164775D01*
X164302472Y-96038765D01*
X164219442Y-95930558D01*
X164111235Y-95847528D01*
X164108497Y-95846394D01*
X164074325Y-95832239D01*
X163985225Y-95795333D01*
X163917612Y-95786431D01*
X163850001Y-95777530D01*
X163849999Y-95777530D01*
X163714770Y-95795333D01*
X163707058Y-95797400D01*
X163637208Y-95795734D01*
X163579347Y-95756569D01*
X163551846Y-95692339D01*
X163563436Y-95623437D01*
X163587286Y-95589947D01*
X163641431Y-95535801D01*
X163702752Y-95502318D01*
X163761211Y-95503711D01*
X163764767Y-95504663D01*
X163764775Y-95504667D01*
X163872955Y-95518909D01*
X163899999Y-95522470D01*
X163900000Y-95522470D01*
X163900001Y-95522470D01*
X163914093Y-95520614D01*
X164035225Y-95504667D01*
X164161235Y-95452472D01*
X164269442Y-95369442D01*
X164352472Y-95261235D01*
X164404667Y-95135225D01*
X164422470Y-95000000D01*
X164404667Y-94864775D01*
X164352472Y-94738765D01*
X164349663Y-94735105D01*
X164324466Y-94669938D01*
X164338501Y-94601493D01*
X164372547Y-94561242D01*
X164394442Y-94544442D01*
X164477472Y-94436235D01*
X164529667Y-94310225D01*
X164547470Y-94175000D01*
X164529667Y-94039775D01*
X164477472Y-93913765D01*
X164477471Y-93913764D01*
X164477471Y-93913763D01*
X164445785Y-93872470D01*
X164426029Y-93846723D01*
X164400835Y-93781556D01*
X164414873Y-93713111D01*
X164448916Y-93672864D01*
X164479442Y-93649442D01*
X164562472Y-93541235D01*
X164614667Y-93415225D01*
X164632470Y-93280000D01*
X164614667Y-93144775D01*
X164562472Y-93018765D01*
X164498184Y-92934984D01*
X164472992Y-92869818D01*
X164487030Y-92801373D01*
X164535844Y-92751383D01*
X164596562Y-92735500D01*
X171947217Y-92735500D01*
X172014256Y-92755185D01*
X172054602Y-92797498D01*
X172091041Y-92860612D01*
X172249950Y-93059877D01*
X172436783Y-93233232D01*
X172647366Y-93376805D01*
X172647371Y-93376807D01*
X172647372Y-93376808D01*
X172647373Y-93376809D01*
X172742194Y-93422472D01*
X172876992Y-93487387D01*
X172876993Y-93487387D01*
X172876996Y-93487389D01*
X173120542Y-93562513D01*
X173372565Y-93600500D01*
X173627435Y-93600500D01*
X173879458Y-93562513D01*
X174123004Y-93487389D01*
X174335735Y-93384943D01*
X174352626Y-93376809D01*
X174352626Y-93376808D01*
X174352634Y-93376805D01*
X174563217Y-93233232D01*
X174750050Y-93059877D01*
X174908959Y-92860612D01*
X174945397Y-92797499D01*
X174995962Y-92749285D01*
X175052783Y-92735500D01*
X195247217Y-92735500D01*
X195314256Y-92755185D01*
X195354602Y-92797498D01*
X195391041Y-92860612D01*
X195549950Y-93059877D01*
X195736783Y-93233232D01*
X195947366Y-93376805D01*
X195947371Y-93376807D01*
X195947372Y-93376808D01*
X195947373Y-93376809D01*
X196042194Y-93422472D01*
X196176992Y-93487387D01*
X196176993Y-93487387D01*
X196176996Y-93487389D01*
X196420542Y-93562513D01*
X196672565Y-93600500D01*
X196927435Y-93600500D01*
X197179458Y-93562513D01*
X197423004Y-93487389D01*
X197635735Y-93384943D01*
X197652626Y-93376809D01*
X197652626Y-93376808D01*
X197652634Y-93376805D01*
X197863217Y-93233232D01*
X198050050Y-93059877D01*
X198208959Y-92860612D01*
X198245397Y-92797499D01*
X198295962Y-92749285D01*
X198352783Y-92735500D01*
X218547217Y-92735500D01*
X218614256Y-92755185D01*
X218654602Y-92797498D01*
X218691041Y-92860612D01*
X218849950Y-93059877D01*
X219036783Y-93233232D01*
X219247366Y-93376805D01*
X219247371Y-93376807D01*
X219247372Y-93376808D01*
X219247373Y-93376809D01*
X219342194Y-93422472D01*
X219476992Y-93487387D01*
X219476993Y-93487387D01*
X219476996Y-93487389D01*
X219720542Y-93562513D01*
X219972565Y-93600500D01*
X220227435Y-93600500D01*
X220479458Y-93562513D01*
X220723004Y-93487389D01*
X220935735Y-93384943D01*
X220952626Y-93376809D01*
X220952626Y-93376808D01*
X220952634Y-93376805D01*
X221163217Y-93233232D01*
X221350050Y-93059877D01*
X221508959Y-92860612D01*
X221636393Y-92639888D01*
X221729508Y-92402637D01*
X221786222Y-92154157D01*
X221795792Y-92026457D01*
X221805268Y-91900004D01*
X221805268Y-91899995D01*
X221786222Y-91645845D01*
X221779080Y-91614555D01*
X221729508Y-91397363D01*
X221636393Y-91160112D01*
X221508959Y-90939388D01*
X221350050Y-90740123D01*
X221163217Y-90566768D01*
X220952634Y-90423195D01*
X220952630Y-90423193D01*
X220952627Y-90423191D01*
X220952626Y-90423190D01*
X220884161Y-90390220D01*
X220832301Y-90343398D01*
X220813988Y-90275971D01*
X220835036Y-90209347D01*
X220888762Y-90164679D01*
X220937962Y-90154500D01*
X229475500Y-90154500D01*
X229542539Y-90174185D01*
G37*
%TD.AperFunction*%
%TA.AperFunction,Conductor*%
G36*
X155997323Y-101984557D02*
G01*
X156943691Y-102930926D01*
X157012582Y-102970702D01*
X157089412Y-102991287D01*
X157089416Y-102991288D01*
X157089419Y-102991288D01*
X160047089Y-102991288D01*
X160114128Y-103010973D01*
X160159883Y-103063777D01*
X160169827Y-103132935D01*
X160140802Y-103196491D01*
X160122575Y-103213664D01*
X160100559Y-103230556D01*
X160017527Y-103338766D01*
X159965333Y-103464774D01*
X159965333Y-103464775D01*
X159947878Y-103597360D01*
X159947530Y-103600000D01*
X159961849Y-103708765D01*
X159965333Y-103735224D01*
X159965333Y-103735225D01*
X160017528Y-103861236D01*
X160037406Y-103887141D01*
X160062600Y-103952310D01*
X160048562Y-104020755D01*
X159999748Y-104070744D01*
X159931656Y-104086408D01*
X159922846Y-104085566D01*
X159861803Y-104077530D01*
X159861799Y-104077530D01*
X159726575Y-104095333D01*
X159726574Y-104095333D01*
X159600566Y-104147527D01*
X159492358Y-104230558D01*
X159409327Y-104338766D01*
X159357133Y-104464774D01*
X159357133Y-104464775D01*
X159339656Y-104597527D01*
X159339330Y-104600000D01*
X159352550Y-104700418D01*
X159357133Y-104735224D01*
X159357133Y-104735225D01*
X159400020Y-104838765D01*
X159409328Y-104861235D01*
X159492358Y-104969442D01*
X159600565Y-105052472D01*
X159726575Y-105104667D01*
X159846067Y-105120398D01*
X159861799Y-105122470D01*
X159861800Y-105122470D01*
X159861801Y-105122470D01*
X159875893Y-105120614D01*
X159997025Y-105104667D01*
X160123035Y-105052472D01*
X160231242Y-104969442D01*
X160314272Y-104861235D01*
X160366467Y-104735225D01*
X160384270Y-104600000D01*
X160383944Y-104597527D01*
X160380318Y-104569980D01*
X160366467Y-104464775D01*
X160314272Y-104338765D01*
X160294392Y-104312857D01*
X160269199Y-104247690D01*
X160283237Y-104179245D01*
X160332051Y-104129255D01*
X160400142Y-104113591D01*
X160408951Y-104114432D01*
X160435493Y-104117927D01*
X160469999Y-104122470D01*
X160470000Y-104122470D01*
X160470001Y-104122470D01*
X160484093Y-104120614D01*
X160605225Y-104104667D01*
X160731235Y-104052472D01*
X160839442Y-103969442D01*
X160922472Y-103861235D01*
X160974667Y-103735225D01*
X160992470Y-103600000D01*
X160992122Y-103597360D01*
X160988388Y-103568995D01*
X160974667Y-103464775D01*
X160922472Y-103338765D01*
X160839442Y-103230558D01*
X160839440Y-103230557D01*
X160839440Y-103230556D01*
X160817425Y-103213664D01*
X160776222Y-103157236D01*
X160772067Y-103087490D01*
X160806279Y-103026570D01*
X160867997Y-102993817D01*
X160892911Y-102991288D01*
X165784700Y-102991288D01*
X165784703Y-102991288D01*
X165858492Y-102971517D01*
X165928342Y-102973180D01*
X165986204Y-103012344D01*
X166013707Y-103076572D01*
X166002120Y-103145475D01*
X165978265Y-103178973D01*
X165577320Y-103579918D01*
X165537093Y-103606798D01*
X165438767Y-103647527D01*
X165438765Y-103647528D01*
X165358959Y-103708765D01*
X165330558Y-103730558D01*
X165247527Y-103838766D01*
X165195333Y-103964774D01*
X165195333Y-103964775D01*
X165177530Y-104099999D01*
X165177530Y-104100000D01*
X165195333Y-104235224D01*
X165195333Y-104235225D01*
X165246069Y-104357714D01*
X165247528Y-104361235D01*
X165330558Y-104469442D01*
X165438765Y-104552472D01*
X165564775Y-104604667D01*
X165676469Y-104619372D01*
X165699999Y-104622470D01*
X165700000Y-104622470D01*
X165700001Y-104622470D01*
X165723531Y-104619372D01*
X165835225Y-104604667D01*
X165924049Y-104567874D01*
X165993516Y-104560406D01*
X166055996Y-104591681D01*
X166091648Y-104651770D01*
X166095500Y-104682436D01*
X166095500Y-105118995D01*
X166086061Y-105166447D01*
X166045334Y-105264771D01*
X166045333Y-105264775D01*
X166027530Y-105399999D01*
X166027530Y-105400000D01*
X166045333Y-105535224D01*
X166045334Y-105535228D01*
X166066526Y-105586391D01*
X166073995Y-105655861D01*
X166042719Y-105718340D01*
X165982630Y-105753991D01*
X165912805Y-105751497D01*
X165864284Y-105721524D01*
X163970761Y-103828001D01*
X163970759Y-103827998D01*
X163879072Y-103736311D01*
X163879066Y-103736306D01*
X163775434Y-103676474D01*
X163775429Y-103676472D01*
X163751003Y-103669926D01*
X163751003Y-103669927D01*
X163705419Y-103657713D01*
X163659836Y-103645499D01*
X163540164Y-103645499D01*
X163532568Y-103645499D01*
X163532552Y-103645500D01*
X163381004Y-103645500D01*
X163333552Y-103636061D01*
X163235228Y-103595334D01*
X163235226Y-103595333D01*
X163235225Y-103595333D01*
X163122962Y-103580553D01*
X163100001Y-103577530D01*
X163099999Y-103577530D01*
X162964775Y-103595333D01*
X162964774Y-103595333D01*
X162838766Y-103647527D01*
X162730558Y-103730558D01*
X162647527Y-103838766D01*
X162595333Y-103964774D01*
X162595333Y-103964775D01*
X162577530Y-104099999D01*
X162577530Y-104100000D01*
X162595333Y-104235224D01*
X162595333Y-104235225D01*
X162646069Y-104357714D01*
X162647528Y-104361235D01*
X162730558Y-104469442D01*
X162838765Y-104552472D01*
X162964775Y-104604667D01*
X163076469Y-104619372D01*
X163099999Y-104622470D01*
X163100000Y-104622470D01*
X163100001Y-104622470D01*
X163123531Y-104619372D01*
X163235225Y-104604667D01*
X163318967Y-104569979D01*
X163388436Y-104562511D01*
X163450915Y-104593786D01*
X163454100Y-104596860D01*
X165431968Y-106574728D01*
X165431978Y-106574739D01*
X165436308Y-106579069D01*
X165436309Y-106579070D01*
X165520930Y-106663691D01*
X165624569Y-106723527D01*
X165648993Y-106730071D01*
X165648995Y-106730072D01*
X165648996Y-106730072D01*
X165679386Y-106738215D01*
X165740164Y-106754501D01*
X165740166Y-106754501D01*
X165867432Y-106754501D01*
X165867448Y-106754500D01*
X166053377Y-106754500D01*
X166120416Y-106774185D01*
X166166171Y-106826989D01*
X166176115Y-106896147D01*
X166147090Y-106959703D01*
X166141058Y-106966181D01*
X165948059Y-107159181D01*
X165886736Y-107192666D01*
X165860378Y-107195500D01*
X163539622Y-107195500D01*
X163472583Y-107175815D01*
X163451941Y-107159181D01*
X162640819Y-106348059D01*
X162607334Y-106286736D01*
X162604500Y-106260378D01*
X162604500Y-105631003D01*
X162613939Y-105583550D01*
X162622062Y-105563939D01*
X162654667Y-105485225D01*
X162672470Y-105350000D01*
X162654667Y-105214775D01*
X162602472Y-105088765D01*
X162519442Y-104980558D01*
X162411235Y-104897528D01*
X162285225Y-104845333D01*
X162217612Y-104836431D01*
X162150001Y-104827530D01*
X162149999Y-104827530D01*
X162014775Y-104845333D01*
X162014774Y-104845333D01*
X161888766Y-104897527D01*
X161780558Y-104980558D01*
X161697527Y-105088766D01*
X161660055Y-105179233D01*
X161645333Y-105214775D01*
X161627530Y-105350000D01*
X161645333Y-105485225D01*
X161672675Y-105551235D01*
X161686061Y-105583550D01*
X161695500Y-105631003D01*
X161695500Y-106432551D01*
X161695499Y-106432569D01*
X161695499Y-106440164D01*
X161695499Y-106559836D01*
X161699492Y-106574739D01*
X161706923Y-106602468D01*
X161706923Y-106602471D01*
X161706924Y-106602471D01*
X161726473Y-106675432D01*
X161726474Y-106675433D01*
X161786309Y-106779070D01*
X161786311Y-106779072D01*
X161877995Y-106870756D01*
X161878001Y-106870761D01*
X162931968Y-107924728D01*
X162931978Y-107924739D01*
X162936308Y-107929069D01*
X162936309Y-107929070D01*
X163020930Y-108013691D01*
X163080767Y-108048237D01*
X163124570Y-108073528D01*
X163240164Y-108104501D01*
X163240166Y-108104501D01*
X163367432Y-108104501D01*
X163367448Y-108104500D01*
X166032552Y-108104500D01*
X166032568Y-108104501D01*
X166040164Y-108104501D01*
X166159834Y-108104501D01*
X166159836Y-108104501D01*
X166265996Y-108076055D01*
X166265996Y-108076056D01*
X166266001Y-108076053D01*
X166275431Y-108073527D01*
X166379070Y-108013691D01*
X166463691Y-107929070D01*
X166463691Y-107929068D01*
X166473892Y-107918868D01*
X166473895Y-107918863D01*
X166569987Y-107822771D01*
X166631309Y-107789289D01*
X166701000Y-107794273D01*
X166756934Y-107836145D01*
X166781350Y-107901610D01*
X166780605Y-107926640D01*
X166778769Y-107940589D01*
X166777530Y-107950000D01*
X166795333Y-108085225D01*
X166847528Y-108211235D01*
X166930558Y-108319442D01*
X167038765Y-108402472D01*
X167164775Y-108454667D01*
X167284267Y-108470398D01*
X167299999Y-108472470D01*
X167300000Y-108472470D01*
X167300001Y-108472470D01*
X167314093Y-108470614D01*
X167435225Y-108454667D01*
X167561235Y-108402472D01*
X167669442Y-108319442D01*
X167752472Y-108211235D01*
X167804667Y-108085225D01*
X167822470Y-107950000D01*
X167804667Y-107814775D01*
X167792021Y-107784245D01*
X167767876Y-107725952D01*
X167760407Y-107656483D01*
X167791683Y-107594004D01*
X167851772Y-107558352D01*
X167882437Y-107554500D01*
X168082552Y-107554500D01*
X168082568Y-107554501D01*
X168090164Y-107554501D01*
X168209835Y-107554501D01*
X168209836Y-107554501D01*
X168300998Y-107530073D01*
X168301001Y-107530073D01*
X168315105Y-107526293D01*
X168325431Y-107523527D01*
X168429070Y-107463691D01*
X168513691Y-107379070D01*
X168513691Y-107379068D01*
X168523895Y-107368865D01*
X168523898Y-107368860D01*
X170243941Y-105648819D01*
X170305264Y-105615334D01*
X170331622Y-105612500D01*
X170474983Y-105612500D01*
X170542022Y-105632185D01*
X170587777Y-105684989D01*
X170597721Y-105754147D01*
X170568696Y-105817703D01*
X170562664Y-105824181D01*
X168937936Y-107448908D01*
X168937934Y-107448911D01*
X168894819Y-107523589D01*
X168872500Y-107606885D01*
X168872500Y-108994975D01*
X168852815Y-109062014D01*
X168800011Y-109107769D01*
X168730853Y-109117713D01*
X168716408Y-109114750D01*
X168715226Y-109114433D01*
X168580001Y-109096630D01*
X168579999Y-109096630D01*
X168444775Y-109114433D01*
X168444774Y-109114433D01*
X168318766Y-109166627D01*
X168210558Y-109249658D01*
X168127527Y-109357866D01*
X168081311Y-109469442D01*
X168075333Y-109483875D01*
X168071310Y-109514433D01*
X168062653Y-109580186D01*
X168034386Y-109644082D01*
X167976061Y-109682553D01*
X167939714Y-109688000D01*
X164562342Y-109688000D01*
X164495303Y-109668315D01*
X164463967Y-109639487D01*
X164454792Y-109627530D01*
X164449442Y-109620558D01*
X164341235Y-109537528D01*
X164338521Y-109536404D01*
X164287388Y-109515224D01*
X164215225Y-109485333D01*
X164118252Y-109472566D01*
X164080001Y-109467530D01*
X164079999Y-109467530D01*
X163944775Y-109485333D01*
X163944774Y-109485333D01*
X163818766Y-109537527D01*
X163710558Y-109620558D01*
X163627527Y-109728766D01*
X163575333Y-109854774D01*
X163575333Y-109854775D01*
X163560237Y-109969442D01*
X163557530Y-109990000D01*
X163575333Y-110125225D01*
X163606740Y-110201048D01*
X163614209Y-110270516D01*
X163582934Y-110332996D01*
X163522845Y-110368648D01*
X163492179Y-110372500D01*
X162149875Y-110372500D01*
X162082836Y-110352815D01*
X162037081Y-110300011D01*
X162027137Y-110230853D01*
X162035314Y-110201048D01*
X162044263Y-110179442D01*
X162054667Y-110154325D01*
X162072470Y-110019100D01*
X162071900Y-110014774D01*
X162068639Y-109989999D01*
X162054667Y-109883875D01*
X162002472Y-109757865D01*
X161919442Y-109649658D01*
X161811235Y-109566628D01*
X161804453Y-109563819D01*
X161740824Y-109537463D01*
X161685225Y-109514433D01*
X161578970Y-109500444D01*
X161550001Y-109496630D01*
X161549999Y-109496630D01*
X161414775Y-109514433D01*
X161414774Y-109514433D01*
X161288766Y-109566627D01*
X161180558Y-109649658D01*
X161097527Y-109757866D01*
X161045333Y-109883874D01*
X161045333Y-109883875D01*
X161028100Y-110014774D01*
X161027530Y-110019100D01*
X161044763Y-110149999D01*
X161045333Y-110154324D01*
X161045334Y-110154328D01*
X161064686Y-110201048D01*
X161072155Y-110270517D01*
X161040880Y-110332996D01*
X160980791Y-110368648D01*
X160950125Y-110372500D01*
X158331963Y-110372500D01*
X158264924Y-110352815D01*
X158219169Y-110300011D01*
X158209225Y-110230853D01*
X158217402Y-110201048D01*
X158244667Y-110135225D01*
X158262470Y-110000000D01*
X158262144Y-109997527D01*
X158255273Y-109945333D01*
X158244667Y-109864775D01*
X158192472Y-109738765D01*
X158109442Y-109630558D01*
X158001235Y-109547528D01*
X157993411Y-109544287D01*
X157939009Y-109500444D01*
X157916946Y-109434149D01*
X157934227Y-109366450D01*
X157942487Y-109354247D01*
X157952472Y-109341235D01*
X158004667Y-109215225D01*
X158022470Y-109080000D01*
X158004667Y-108944775D01*
X157952472Y-108818765D01*
X157869442Y-108710558D01*
X157761235Y-108627528D01*
X157635225Y-108575333D01*
X157567612Y-108566431D01*
X157500001Y-108557530D01*
X157499999Y-108557530D01*
X157364775Y-108575333D01*
X157364774Y-108575333D01*
X157238766Y-108627527D01*
X157130558Y-108710558D01*
X157047527Y-108818766D01*
X156995333Y-108944774D01*
X156995333Y-108944775D01*
X156979535Y-109064774D01*
X156977530Y-109080000D01*
X156993328Y-109199999D01*
X156995333Y-109215224D01*
X156995333Y-109215225D01*
X157045038Y-109335225D01*
X157047528Y-109341235D01*
X157130558Y-109449442D01*
X157238765Y-109532472D01*
X157238766Y-109532472D01*
X157238767Y-109532473D01*
X157246584Y-109535711D01*
X157300988Y-109579552D01*
X157323053Y-109645846D01*
X157305774Y-109713545D01*
X157297509Y-109725757D01*
X157287528Y-109738764D01*
X157235333Y-109864774D01*
X157235333Y-109864775D01*
X157217856Y-109997527D01*
X157217530Y-110000000D01*
X157235333Y-110135225D01*
X157262598Y-110201048D01*
X157270067Y-110270516D01*
X157238792Y-110332996D01*
X157178703Y-110368648D01*
X157148037Y-110372500D01*
X156337017Y-110372500D01*
X156269978Y-110352815D01*
X156249336Y-110336181D01*
X151851091Y-105937936D01*
X151851090Y-105937935D01*
X151776410Y-105894819D01*
X151776411Y-105894819D01*
X151741609Y-105885494D01*
X151693116Y-105872500D01*
X145573076Y-105872500D01*
X145526021Y-105872500D01*
X145458982Y-105852815D01*
X145413227Y-105800011D01*
X145405412Y-105747899D01*
X145402100Y-105747899D01*
X145402100Y-105290000D01*
X156557530Y-105290000D01*
X156575109Y-105423527D01*
X156575333Y-105425224D01*
X156575333Y-105425225D01*
X156625992Y-105547528D01*
X156627528Y-105551235D01*
X156710558Y-105659442D01*
X156818765Y-105742472D01*
X156944775Y-105794667D01*
X157061664Y-105810056D01*
X157079999Y-105812470D01*
X157080000Y-105812470D01*
X157080001Y-105812470D01*
X157098336Y-105810056D01*
X157215225Y-105794667D01*
X157341235Y-105742472D01*
X157449442Y-105659442D01*
X157532472Y-105551235D01*
X157584667Y-105425225D01*
X157602470Y-105290000D01*
X157584667Y-105154775D01*
X157532472Y-105028765D01*
X157449442Y-104920558D01*
X157341235Y-104837528D01*
X157329219Y-104832551D01*
X157241332Y-104796147D01*
X157215225Y-104785333D01*
X157147612Y-104776431D01*
X157080001Y-104767530D01*
X157079999Y-104767530D01*
X156944775Y-104785333D01*
X156944774Y-104785333D01*
X156818766Y-104837527D01*
X156710558Y-104920558D01*
X156627527Y-105028766D01*
X156575333Y-105154774D01*
X156575333Y-105154775D01*
X156560064Y-105270756D01*
X156557530Y-105290000D01*
X145402100Y-105290000D01*
X145402100Y-104702153D01*
X145421785Y-104635114D01*
X145474589Y-104589359D01*
X145543747Y-104579415D01*
X145573550Y-104587591D01*
X145614775Y-104604667D01*
X145750000Y-104622470D01*
X145773529Y-104619372D01*
X145842563Y-104630137D01*
X145877396Y-104654630D01*
X146208260Y-104985494D01*
X146264506Y-105041740D01*
X146333394Y-105081513D01*
X146410228Y-105102100D01*
X146410231Y-105102100D01*
X154739769Y-105102100D01*
X154739772Y-105102100D01*
X154762602Y-105095982D01*
X154816605Y-105081514D01*
X154816607Y-105081513D01*
X154885494Y-105041740D01*
X155341740Y-104585494D01*
X155359634Y-104554501D01*
X155381513Y-104516606D01*
X155402100Y-104439772D01*
X155402100Y-104357523D01*
X155421785Y-104290484D01*
X155468476Y-104247726D01*
X155485548Y-104238766D01*
X155500852Y-104230734D01*
X155628183Y-104117929D01*
X155724818Y-103977930D01*
X155785140Y-103818872D01*
X155805645Y-103650000D01*
X155785140Y-103481128D01*
X155724818Y-103322070D01*
X155628183Y-103182071D01*
X155530276Y-103095333D01*
X155500849Y-103069263D01*
X155350226Y-102990210D01*
X155185056Y-102949500D01*
X155014944Y-102949500D01*
X154849776Y-102990209D01*
X154702525Y-103067493D01*
X154634016Y-103081218D01*
X154568963Y-103055725D01*
X154528019Y-102999109D01*
X154524184Y-102929345D01*
X154557217Y-102870016D01*
X154814499Y-102612733D01*
X154875820Y-102579250D01*
X154931854Y-102580020D01*
X155014939Y-102600499D01*
X155014942Y-102600500D01*
X155014944Y-102600500D01*
X155185056Y-102600500D01*
X155350225Y-102559790D01*
X155432400Y-102516661D01*
X155500849Y-102480736D01*
X155500850Y-102480734D01*
X155500852Y-102480734D01*
X155628183Y-102367929D01*
X155724818Y-102227930D01*
X155785140Y-102068872D01*
X155786546Y-102057293D01*
X155814167Y-101993114D01*
X155872101Y-101954057D01*
X155941954Y-101952522D01*
X155997323Y-101984557D01*
G37*
%TD.AperFunction*%
%TA.AperFunction,Conductor*%
G36*
X139789847Y-104324185D02*
G01*
X139835602Y-104376989D01*
X139845546Y-104446147D01*
X139816521Y-104509703D01*
X139770261Y-104543061D01*
X139764776Y-104545332D01*
X139764775Y-104545333D01*
X139723304Y-104562511D01*
X139638766Y-104597527D01*
X139530558Y-104680558D01*
X139447527Y-104788766D01*
X139395333Y-104914774D01*
X139395333Y-104914775D01*
X139378618Y-105041739D01*
X139377530Y-105050000D01*
X139395333Y-105185225D01*
X139430763Y-105270761D01*
X139436061Y-105283550D01*
X139445500Y-105331003D01*
X139445500Y-106110378D01*
X139425815Y-106177417D01*
X139409181Y-106198059D01*
X138348059Y-107259181D01*
X138286736Y-107292666D01*
X138260378Y-107295500D01*
X131039622Y-107295500D01*
X130972583Y-107275815D01*
X130951941Y-107259181D01*
X130108941Y-106416181D01*
X130075456Y-106354858D01*
X130080440Y-106285166D01*
X130122312Y-106229233D01*
X130187776Y-106204816D01*
X130196622Y-106204500D01*
X135882552Y-106204500D01*
X135882568Y-106204501D01*
X135890164Y-106204501D01*
X136009834Y-106204501D01*
X136009836Y-106204501D01*
X136121538Y-106174570D01*
X136121538Y-106174571D01*
X136121543Y-106174568D01*
X136125431Y-106173527D01*
X136229070Y-106113691D01*
X136313691Y-106029070D01*
X136313691Y-106029068D01*
X136323895Y-106018865D01*
X136323898Y-106018860D01*
X138001941Y-104340819D01*
X138063264Y-104307334D01*
X138089622Y-104304500D01*
X139722808Y-104304500D01*
X139789847Y-104324185D01*
G37*
%TD.AperFunction*%
%TA.AperFunction,Conductor*%
G36*
X112820416Y-104674185D02*
G01*
X112866171Y-104726989D01*
X112876115Y-104796147D01*
X112847090Y-104859703D01*
X112841058Y-104866181D01*
X112076559Y-105630681D01*
X112015236Y-105664166D01*
X111988878Y-105667000D01*
X109611122Y-105667000D01*
X109544083Y-105647315D01*
X109523441Y-105630681D01*
X108758942Y-104866182D01*
X108725457Y-104804859D01*
X108730441Y-104735167D01*
X108772313Y-104679234D01*
X108837777Y-104654817D01*
X108846623Y-104654501D01*
X108917432Y-104654501D01*
X108917448Y-104654500D01*
X112753377Y-104654500D01*
X112820416Y-104674185D01*
G37*
%TD.AperFunction*%
%TA.AperFunction,Conductor*%
G36*
X135670416Y-103974185D02*
G01*
X135716171Y-104026989D01*
X135726115Y-104096147D01*
X135697090Y-104159703D01*
X135691058Y-104166181D01*
X135376559Y-104480681D01*
X135315236Y-104514166D01*
X135288878Y-104517000D01*
X130925121Y-104517000D01*
X130858082Y-104497315D01*
X130812327Y-104444511D01*
X130802383Y-104375353D01*
X130831408Y-104311797D01*
X130837440Y-104305319D01*
X130932257Y-104210503D01*
X131151941Y-103990819D01*
X131213264Y-103957334D01*
X131239622Y-103954500D01*
X135603377Y-103954500D01*
X135670416Y-103974185D01*
G37*
%TD.AperFunction*%
%TA.AperFunction,Conductor*%
G36*
X148353170Y-100891785D02*
G01*
X148398925Y-100944589D01*
X148408869Y-101013747D01*
X148400692Y-101043552D01*
X148375334Y-101104771D01*
X148375333Y-101104775D01*
X148357530Y-101240000D01*
X148372288Y-101352100D01*
X148375333Y-101375224D01*
X148375333Y-101375225D01*
X148408238Y-101454666D01*
X148427528Y-101501235D01*
X148510558Y-101609442D01*
X148524675Y-101620274D01*
X148609302Y-101685212D01*
X148650504Y-101741640D01*
X148654659Y-101811386D01*
X148621496Y-101871268D01*
X147948261Y-102544503D01*
X147908488Y-102613390D01*
X147908487Y-102613392D01*
X147908487Y-102613393D01*
X147899998Y-102645081D01*
X147899997Y-102645083D01*
X147899996Y-102645085D01*
X147887900Y-102690228D01*
X147887900Y-103487734D01*
X147868215Y-103554773D01*
X147839387Y-103586109D01*
X147820561Y-103600554D01*
X147737527Y-103708766D01*
X147685333Y-103834774D01*
X147685333Y-103834775D01*
X147667604Y-103969441D01*
X147667530Y-103970000D01*
X147685259Y-104104666D01*
X147685333Y-104105224D01*
X147685333Y-104105225D01*
X147737528Y-104231236D01*
X147789076Y-104298414D01*
X147814270Y-104363583D01*
X147800232Y-104432028D01*
X147751418Y-104482017D01*
X147690700Y-104497900D01*
X146626496Y-104497900D01*
X146559457Y-104478215D01*
X146538815Y-104461581D01*
X146304630Y-104227396D01*
X146271145Y-104166073D01*
X146269372Y-104123528D01*
X146272470Y-104100000D01*
X146254667Y-103964775D01*
X146202472Y-103838765D01*
X146119442Y-103730558D01*
X146011235Y-103647528D01*
X145885225Y-103595333D01*
X145772962Y-103580553D01*
X145750001Y-103577530D01*
X145749999Y-103577530D01*
X145614775Y-103595333D01*
X145614774Y-103595333D01*
X145573551Y-103612408D01*
X145504081Y-103619875D01*
X145441603Y-103588599D01*
X145405951Y-103528510D01*
X145402100Y-103497846D01*
X145402100Y-101226496D01*
X145421785Y-101159457D01*
X145438419Y-101138815D01*
X145668815Y-100908419D01*
X145730138Y-100874934D01*
X145756496Y-100872100D01*
X148286131Y-100872100D01*
X148353170Y-100891785D01*
G37*
%TD.AperFunction*%
%TA.AperFunction,Conductor*%
G36*
X150891085Y-103074435D02*
G01*
X150936840Y-103127239D01*
X150946784Y-103196397D01*
X150926096Y-103249190D01*
X150875630Y-103322302D01*
X150815349Y-103481248D01*
X150815348Y-103481251D01*
X150794859Y-103649999D01*
X150794859Y-103650000D01*
X150815348Y-103818751D01*
X150859989Y-103936457D01*
X151175000Y-103621446D01*
X151175000Y-103692787D01*
X151197149Y-103775445D01*
X151239936Y-103849554D01*
X151300446Y-103910064D01*
X151374555Y-103952851D01*
X151457213Y-103975000D01*
X151542787Y-103975000D01*
X151625445Y-103952851D01*
X151699554Y-103910064D01*
X151760064Y-103849554D01*
X151802851Y-103775445D01*
X151825000Y-103692787D01*
X151825000Y-103621447D01*
X151991416Y-103787863D01*
X152019676Y-103831572D01*
X152022405Y-103838766D01*
X152075182Y-103977931D01*
X152137475Y-104068177D01*
X152171817Y-104117929D01*
X152299148Y-104230734D01*
X152307703Y-104235224D01*
X152362728Y-104264104D01*
X152412940Y-104312688D01*
X152428915Y-104380707D01*
X152405580Y-104446565D01*
X152350344Y-104489352D01*
X152305102Y-104497900D01*
X151893821Y-104497900D01*
X151826782Y-104478215D01*
X151781027Y-104425411D01*
X151771083Y-104356253D01*
X151779244Y-104338381D01*
X151786587Y-104290139D01*
X151500001Y-104003553D01*
X151500000Y-104003553D01*
X151213411Y-104290140D01*
X151222053Y-104346919D01*
X151229989Y-104380708D01*
X151206654Y-104446565D01*
X151151417Y-104489352D01*
X151106176Y-104497900D01*
X150185296Y-104497900D01*
X150118257Y-104478215D01*
X150072502Y-104425411D01*
X150062357Y-104357714D01*
X150072470Y-104280900D01*
X150072470Y-104280899D01*
X150066923Y-104238765D01*
X150054667Y-104145675D01*
X150002472Y-104019665D01*
X149919442Y-103911458D01*
X149811235Y-103828428D01*
X149810204Y-103828001D01*
X149774325Y-103813139D01*
X149685225Y-103776233D01*
X149617612Y-103767331D01*
X149550001Y-103758430D01*
X149549998Y-103758430D01*
X149542407Y-103759429D01*
X149473372Y-103748660D01*
X149421118Y-103702278D01*
X149402236Y-103635008D01*
X149411664Y-103589041D01*
X149454667Y-103485225D01*
X149472470Y-103350000D01*
X149469372Y-103326470D01*
X149480137Y-103257435D01*
X149504627Y-103222606D01*
X149636166Y-103091067D01*
X149697488Y-103057584D01*
X149723846Y-103054750D01*
X150824046Y-103054750D01*
X150891085Y-103074435D01*
G37*
%TD.AperFunction*%
%TA.AperFunction,Conductor*%
G36*
X79529077Y-90174185D02*
G01*
X79574832Y-90226989D01*
X79584776Y-90296147D01*
X79555751Y-90359703D01*
X79515839Y-90390220D01*
X79447373Y-90423190D01*
X79447372Y-90423191D01*
X79447366Y-90423194D01*
X79447366Y-90423195D01*
X79422639Y-90440053D01*
X79236782Y-90566768D01*
X79049952Y-90740121D01*
X79049950Y-90740123D01*
X78891041Y-90939388D01*
X78763608Y-91160109D01*
X78670492Y-91397362D01*
X78670490Y-91397369D01*
X78613777Y-91645845D01*
X78594732Y-91899995D01*
X78594732Y-91900004D01*
X78613777Y-92154154D01*
X78662817Y-92369014D01*
X78670492Y-92402637D01*
X78763607Y-92639888D01*
X78891041Y-92860612D01*
X79049950Y-93059877D01*
X79236783Y-93233232D01*
X79447366Y-93376805D01*
X79447371Y-93376807D01*
X79447372Y-93376808D01*
X79447373Y-93376809D01*
X79542194Y-93422472D01*
X79676992Y-93487387D01*
X79676993Y-93487387D01*
X79676996Y-93487389D01*
X79920542Y-93562513D01*
X80172565Y-93600500D01*
X80427435Y-93600500D01*
X80679458Y-93562513D01*
X80828281Y-93516606D01*
X80898143Y-93515657D01*
X80957430Y-93552628D01*
X80987316Y-93615783D01*
X80979391Y-93682550D01*
X80945334Y-93764771D01*
X80945333Y-93764775D01*
X80930560Y-93876989D01*
X80927530Y-93900000D01*
X80945333Y-94035225D01*
X80997528Y-94161235D01*
X81080558Y-94269442D01*
X81188765Y-94352472D01*
X81314775Y-94404667D01*
X81434267Y-94420398D01*
X81449999Y-94422470D01*
X81450000Y-94422470D01*
X81450001Y-94422470D01*
X81464093Y-94420614D01*
X81585225Y-94404667D01*
X81711235Y-94352472D01*
X81819442Y-94269442D01*
X81902472Y-94161235D01*
X81954667Y-94035225D01*
X81972470Y-93900000D01*
X81961083Y-93813510D01*
X81971848Y-93744477D01*
X82018228Y-93692221D01*
X82085497Y-93673335D01*
X82152297Y-93693815D01*
X82174251Y-93714254D01*
X82174811Y-93713695D01*
X82180553Y-93719437D01*
X82180555Y-93719439D01*
X82180558Y-93719442D01*
X82288765Y-93802472D01*
X82414775Y-93854667D01*
X82534267Y-93870398D01*
X82549999Y-93872470D01*
X82550000Y-93872470D01*
X82550001Y-93872470D01*
X82564093Y-93870614D01*
X82685225Y-93854667D01*
X82758815Y-93824185D01*
X82783552Y-93813939D01*
X82831004Y-93804500D01*
X85725839Y-93804500D01*
X85792878Y-93824185D01*
X85838633Y-93876989D01*
X85848577Y-93946147D01*
X85824214Y-94003987D01*
X85797528Y-94038763D01*
X85745333Y-94164774D01*
X85745333Y-94164775D01*
X85730031Y-94281007D01*
X85727530Y-94300000D01*
X85741619Y-94407018D01*
X85745333Y-94435224D01*
X85745333Y-94435225D01*
X85796069Y-94557714D01*
X85797528Y-94561235D01*
X85880558Y-94669442D01*
X85988765Y-94752472D01*
X86114775Y-94804667D01*
X86250000Y-94822470D01*
X86273529Y-94819372D01*
X86342563Y-94830137D01*
X86377396Y-94854630D01*
X86908260Y-95385494D01*
X86964506Y-95441740D01*
X87033394Y-95481513D01*
X87110228Y-95502100D01*
X87189772Y-95502100D01*
X88677680Y-95502100D01*
X88744719Y-95521785D01*
X88790474Y-95574589D01*
X88800418Y-95643747D01*
X88776056Y-95701586D01*
X88747528Y-95738763D01*
X88695333Y-95864774D01*
X88695333Y-95864775D01*
X88677530Y-96000000D01*
X88689216Y-96088766D01*
X88695333Y-96135224D01*
X88695333Y-96135225D01*
X88731767Y-96223186D01*
X88747528Y-96261235D01*
X88830558Y-96369442D01*
X88938765Y-96452472D01*
X89064775Y-96504667D01*
X89184267Y-96520398D01*
X89199999Y-96522470D01*
X89200000Y-96522470D01*
X89200001Y-96522470D01*
X89214093Y-96520614D01*
X89335225Y-96504667D01*
X89461235Y-96452472D01*
X89569442Y-96369442D01*
X89652472Y-96261235D01*
X89704667Y-96135225D01*
X89722470Y-96000000D01*
X89704667Y-95864775D01*
X89652472Y-95738765D01*
X89652471Y-95738764D01*
X89652471Y-95738763D01*
X89623944Y-95701586D01*
X89598750Y-95636417D01*
X89612788Y-95567972D01*
X89661603Y-95517983D01*
X89722320Y-95502100D01*
X94727322Y-95502100D01*
X94794361Y-95521785D01*
X94840116Y-95574589D01*
X94850060Y-95643747D01*
X94847097Y-95658193D01*
X94845333Y-95664773D01*
X94845333Y-95664775D01*
X94842175Y-95688765D01*
X94827530Y-95799999D01*
X94827530Y-95800000D01*
X94845333Y-95935224D01*
X94845333Y-95935225D01*
X94888220Y-96038765D01*
X94897528Y-96061235D01*
X94980558Y-96169442D01*
X95088765Y-96252472D01*
X95214775Y-96304667D01*
X95350000Y-96322470D01*
X95373529Y-96319372D01*
X95442563Y-96330137D01*
X95477396Y-96354630D01*
X96164503Y-97041738D01*
X96233394Y-97081514D01*
X96310224Y-97102099D01*
X96310228Y-97102100D01*
X123712235Y-97102100D01*
X123779274Y-97121785D01*
X123810607Y-97150610D01*
X123825058Y-97169442D01*
X123933265Y-97252472D01*
X124059275Y-97304667D01*
X124194500Y-97322470D01*
X124218029Y-97319372D01*
X124287063Y-97330137D01*
X124321896Y-97354630D01*
X125033660Y-98066394D01*
X125089906Y-98122640D01*
X125158794Y-98162413D01*
X125235628Y-98183000D01*
X129871287Y-98183000D01*
X129938326Y-98202685D01*
X129984081Y-98255489D01*
X129994225Y-98323184D01*
X129992175Y-98338766D01*
X129992001Y-98340086D01*
X129963734Y-98403982D01*
X129905410Y-98442453D01*
X129869062Y-98447900D01*
X110381442Y-98447900D01*
X110314403Y-98428215D01*
X110268648Y-98375411D01*
X110258704Y-98306253D01*
X110266879Y-98276451D01*
X110304667Y-98185225D01*
X110322470Y-98050000D01*
X110322144Y-98047527D01*
X110318705Y-98021402D01*
X110304667Y-97914775D01*
X110252472Y-97788765D01*
X110169442Y-97680558D01*
X110061235Y-97597528D01*
X109935225Y-97545333D01*
X109863067Y-97535833D01*
X109800001Y-97527530D01*
X109799999Y-97527530D01*
X109664775Y-97545333D01*
X109664774Y-97545333D01*
X109538766Y-97597527D01*
X109430558Y-97680558D01*
X109347527Y-97788766D01*
X109295333Y-97914774D01*
X109295333Y-97914775D01*
X109277856Y-98047527D01*
X109277530Y-98050000D01*
X109295333Y-98185225D01*
X109333119Y-98276449D01*
X109340588Y-98345916D01*
X109309313Y-98408396D01*
X109249224Y-98444048D01*
X109218558Y-98447900D01*
X97621952Y-98447900D01*
X97554913Y-98428215D01*
X97509158Y-98375411D01*
X97507391Y-98371352D01*
X97504666Y-98364774D01*
X97461779Y-98261233D01*
X97452473Y-98238767D01*
X97452472Y-98238766D01*
X97452472Y-98238765D01*
X97369442Y-98130558D01*
X97261235Y-98047528D01*
X97229997Y-98034589D01*
X97224325Y-98032239D01*
X97135225Y-97995333D01*
X97067612Y-97986431D01*
X97000001Y-97977530D01*
X96999999Y-97977530D01*
X96864775Y-97995333D01*
X96864774Y-97995333D01*
X96738766Y-98047527D01*
X96630558Y-98130558D01*
X96547527Y-98238766D01*
X96495333Y-98364774D01*
X96495333Y-98364775D01*
X96478212Y-98494823D01*
X96477530Y-98500000D01*
X96490695Y-98600000D01*
X96495333Y-98635224D01*
X96495333Y-98635225D01*
X96547247Y-98760558D01*
X96547528Y-98761235D01*
X96630558Y-98869442D01*
X96738765Y-98952472D01*
X96864775Y-99004667D01*
X97000000Y-99022470D01*
X97054137Y-99015342D01*
X97123170Y-99026107D01*
X97132327Y-99030896D01*
X97133394Y-99031513D01*
X97210228Y-99052100D01*
X97289772Y-99052100D01*
X97380661Y-99052100D01*
X97447700Y-99071785D01*
X97493455Y-99124589D01*
X97503399Y-99193747D01*
X97474374Y-99257303D01*
X97421811Y-99291082D01*
X97422284Y-99292223D01*
X97415962Y-99294841D01*
X97415596Y-99295077D01*
X97414967Y-99295253D01*
X97288766Y-99347527D01*
X97180558Y-99430558D01*
X97097527Y-99538766D01*
X97045333Y-99664774D01*
X97045333Y-99664775D01*
X97036367Y-99732881D01*
X97027530Y-99800000D01*
X97045232Y-99934461D01*
X97045333Y-99935224D01*
X97045333Y-99935225D01*
X97092440Y-100048953D01*
X97097528Y-100061235D01*
X97180558Y-100169442D01*
X97288765Y-100252472D01*
X97414775Y-100304667D01*
X97534267Y-100320398D01*
X97549999Y-100322470D01*
X97550000Y-100322470D01*
X97550001Y-100322470D01*
X97564093Y-100320614D01*
X97685225Y-100304667D01*
X97811235Y-100252472D01*
X97843488Y-100227723D01*
X97908655Y-100202530D01*
X97918973Y-100202100D01*
X119023504Y-100202100D01*
X119090543Y-100221785D01*
X119111185Y-100238419D01*
X120314503Y-101441738D01*
X120383394Y-101481514D01*
X120460224Y-101502099D01*
X120460228Y-101502100D01*
X120460231Y-101502100D01*
X126489769Y-101502100D01*
X126489772Y-101502100D01*
X126519014Y-101494265D01*
X126566605Y-101481514D01*
X126568261Y-101480558D01*
X126635494Y-101441740D01*
X127703834Y-100373400D01*
X127765157Y-100339915D01*
X127791515Y-100337081D01*
X128183357Y-100337081D01*
X128250396Y-100356766D01*
X128296151Y-100409570D01*
X128306095Y-100478728D01*
X128297919Y-100508531D01*
X128295334Y-100514771D01*
X128295333Y-100514775D01*
X128280286Y-100629070D01*
X128277530Y-100650000D01*
X128290695Y-100750000D01*
X128295333Y-100785224D01*
X128295333Y-100785225D01*
X128346361Y-100908419D01*
X128347528Y-100911235D01*
X128430558Y-101019442D01*
X128430560Y-101019443D01*
X128434450Y-101024513D01*
X128459644Y-101089683D01*
X128445606Y-101158127D01*
X128434450Y-101175487D01*
X128430560Y-101180556D01*
X128430558Y-101180558D01*
X128383155Y-101242335D01*
X128347527Y-101288766D01*
X128295333Y-101414774D01*
X128295333Y-101414775D01*
X128278580Y-101542028D01*
X128277530Y-101550000D01*
X128293254Y-101669437D01*
X128295333Y-101685224D01*
X128295333Y-101685225D01*
X128347528Y-101811236D01*
X128415266Y-101899514D01*
X128440460Y-101964683D01*
X128426421Y-102033128D01*
X128415266Y-102050486D01*
X128347528Y-102138763D01*
X128295333Y-102264774D01*
X128295333Y-102264775D01*
X128281753Y-102367927D01*
X128277530Y-102400000D01*
X128292337Y-102512472D01*
X128295333Y-102535224D01*
X128295333Y-102535225D01*
X128344478Y-102653873D01*
X128347528Y-102661235D01*
X128430558Y-102769442D01*
X128538765Y-102852472D01*
X128664775Y-102904667D01*
X128784267Y-102920398D01*
X128799999Y-102922470D01*
X128800000Y-102922470D01*
X128800001Y-102922470D01*
X128814093Y-102920614D01*
X128935225Y-102904667D01*
X129061235Y-102852472D01*
X129169442Y-102769442D01*
X129252472Y-102661235D01*
X129304667Y-102535225D01*
X129322470Y-102400000D01*
X129304667Y-102264775D01*
X129252472Y-102138765D01*
X129192033Y-102060000D01*
X133877530Y-102060000D01*
X133892864Y-102176475D01*
X133895333Y-102195224D01*
X133895333Y-102195225D01*
X133947401Y-102320930D01*
X133947528Y-102321235D01*
X134030558Y-102429442D01*
X134138765Y-102512472D01*
X134264775Y-102564667D01*
X134381391Y-102580020D01*
X134399999Y-102582470D01*
X134400000Y-102582470D01*
X134400001Y-102582470D01*
X134418609Y-102580020D01*
X134535225Y-102564667D01*
X134661235Y-102512472D01*
X134769442Y-102429442D01*
X134852472Y-102321235D01*
X134904667Y-102195225D01*
X134922470Y-102060000D01*
X134904667Y-101924775D01*
X134852472Y-101798765D01*
X134769442Y-101690558D01*
X134661235Y-101607528D01*
X134535225Y-101555333D01*
X134437538Y-101542472D01*
X134400001Y-101537530D01*
X134399999Y-101537530D01*
X134264775Y-101555333D01*
X134264774Y-101555333D01*
X134138766Y-101607527D01*
X134030558Y-101690558D01*
X133947527Y-101798766D01*
X133895333Y-101924774D01*
X133895333Y-101924775D01*
X133878783Y-102050486D01*
X133877530Y-102060000D01*
X129192033Y-102060000D01*
X129184731Y-102050484D01*
X129159539Y-101985318D01*
X129173577Y-101916873D01*
X129184727Y-101899521D01*
X129252472Y-101811235D01*
X129304667Y-101685225D01*
X129322470Y-101550000D01*
X129321420Y-101542028D01*
X129318915Y-101522998D01*
X129304667Y-101414775D01*
X129252472Y-101288765D01*
X129252471Y-101288764D01*
X129252471Y-101288763D01*
X129216845Y-101242335D01*
X129169442Y-101180558D01*
X129169439Y-101180556D01*
X129165550Y-101175487D01*
X129140355Y-101110318D01*
X129154393Y-101041873D01*
X129165550Y-101024513D01*
X129169439Y-101019443D01*
X129169442Y-101019442D01*
X129252472Y-100911235D01*
X129304667Y-100785225D01*
X129322470Y-100650000D01*
X129304667Y-100514775D01*
X129302081Y-100508531D01*
X129294614Y-100439061D01*
X129325890Y-100376583D01*
X129385980Y-100340932D01*
X129416643Y-100337081D01*
X139098485Y-100337081D01*
X139165524Y-100356766D01*
X139186166Y-100373400D01*
X140104503Y-101291738D01*
X140104505Y-101291739D01*
X140104506Y-101291740D01*
X140124055Y-101303027D01*
X140173394Y-101331514D01*
X140250224Y-101352099D01*
X140250228Y-101352100D01*
X140250231Y-101352100D01*
X143239769Y-101352100D01*
X143239772Y-101352100D01*
X143251173Y-101349045D01*
X143321020Y-101350706D01*
X143378883Y-101389867D01*
X143406389Y-101454095D01*
X143394804Y-101522998D01*
X143381643Y-101544304D01*
X143347528Y-101588764D01*
X143320608Y-101653755D01*
X143276767Y-101708158D01*
X143210472Y-101730223D01*
X143173954Y-101726077D01*
X143131773Y-101714775D01*
X143131769Y-101714774D01*
X143059836Y-101695499D01*
X142940164Y-101695499D01*
X142932568Y-101695499D01*
X142932552Y-101695500D01*
X137040164Y-101695500D01*
X136924569Y-101726473D01*
X136924566Y-101726474D01*
X136820933Y-101786307D01*
X136820927Y-101786311D01*
X136768474Y-101838765D01*
X136736309Y-101870930D01*
X136736307Y-101870932D01*
X136156690Y-102450550D01*
X135598059Y-103009181D01*
X135536736Y-103042666D01*
X135510378Y-103045500D01*
X130940164Y-103045500D01*
X130824569Y-103076473D01*
X130824566Y-103076474D01*
X130720933Y-103136307D01*
X130720927Y-103136311D01*
X130678266Y-103178973D01*
X130636309Y-103220930D01*
X130636307Y-103220932D01*
X130375989Y-103481251D01*
X130148059Y-103709181D01*
X130086736Y-103742666D01*
X130060378Y-103745500D01*
X109089622Y-103745500D01*
X109022583Y-103725815D01*
X109001941Y-103709181D01*
X107670761Y-102378001D01*
X107670759Y-102377998D01*
X107579072Y-102286311D01*
X107579066Y-102286306D01*
X107475434Y-102226474D01*
X107475429Y-102226472D01*
X107451003Y-102219926D01*
X107451003Y-102219927D01*
X107405419Y-102207713D01*
X107359836Y-102195499D01*
X107240164Y-102195499D01*
X107232568Y-102195499D01*
X107232552Y-102195500D01*
X103487402Y-102195500D01*
X103420363Y-102175815D01*
X103374608Y-102123011D01*
X103364463Y-102055315D01*
X103372470Y-101994500D01*
X103372470Y-101994499D01*
X103372470Y-101986546D01*
X103392155Y-101919507D01*
X103408789Y-101898865D01*
X103643836Y-101663819D01*
X103705159Y-101630334D01*
X103731517Y-101627500D01*
X109287254Y-101627500D01*
X109354293Y-101647185D01*
X109374935Y-101663819D01*
X109380553Y-101669437D01*
X109380555Y-101669439D01*
X109380558Y-101669442D01*
X109488765Y-101752472D01*
X109614775Y-101804667D01*
X109734267Y-101820398D01*
X109749999Y-101822470D01*
X109750000Y-101822470D01*
X109750001Y-101822470D01*
X109764093Y-101820614D01*
X109885225Y-101804667D01*
X110011235Y-101752472D01*
X110119442Y-101669442D01*
X110202472Y-101561235D01*
X110254667Y-101435225D01*
X110272470Y-101300000D01*
X110254667Y-101164775D01*
X110202472Y-101038765D01*
X110119442Y-100930558D01*
X110011235Y-100847528D01*
X110002138Y-100843760D01*
X109932162Y-100814775D01*
X109885225Y-100795333D01*
X109817612Y-100786431D01*
X109750001Y-100777530D01*
X109749999Y-100777530D01*
X109614775Y-100795333D01*
X109614774Y-100795333D01*
X109488766Y-100847527D01*
X109380553Y-100930562D01*
X109374935Y-100936181D01*
X109313612Y-100969666D01*
X109287254Y-100972500D01*
X103587616Y-100972500D01*
X103501384Y-100972500D01*
X103445854Y-100987379D01*
X103418089Y-100994819D01*
X103343411Y-101037934D01*
X103343408Y-101037936D01*
X102945633Y-101435711D01*
X102884310Y-101469196D01*
X102857952Y-101472030D01*
X102849999Y-101472030D01*
X102714775Y-101489833D01*
X102714774Y-101489833D01*
X102588766Y-101542027D01*
X102480558Y-101625058D01*
X102397527Y-101733266D01*
X102345333Y-101859274D01*
X102345333Y-101859275D01*
X102327530Y-101994499D01*
X102327530Y-101994502D01*
X102335536Y-102055315D01*
X102324770Y-102124350D01*
X102278390Y-102176606D01*
X102212597Y-102195500D01*
X83603147Y-102195500D01*
X83536108Y-102175815D01*
X83490353Y-102123011D01*
X83480409Y-102053853D01*
X83488586Y-102024047D01*
X83491615Y-102016735D01*
X83504667Y-101985225D01*
X83522470Y-101850000D01*
X83504667Y-101714775D01*
X83452472Y-101588765D01*
X83369442Y-101480558D01*
X83261235Y-101397528D01*
X83135225Y-101345333D01*
X83067612Y-101336431D01*
X83000001Y-101327530D01*
X82999999Y-101327530D01*
X82864775Y-101345333D01*
X82864774Y-101345333D01*
X82738766Y-101397527D01*
X82630558Y-101480558D01*
X82547527Y-101588766D01*
X82495333Y-101714774D01*
X82495333Y-101714775D01*
X82482634Y-101811235D01*
X82477530Y-101850000D01*
X82495333Y-101985225D01*
X82499174Y-101994499D01*
X82511414Y-102024047D01*
X82518883Y-102093516D01*
X82487608Y-102155996D01*
X82427519Y-102191648D01*
X82396853Y-102195500D01*
X79264004Y-102195500D01*
X79196965Y-102175815D01*
X79151210Y-102123011D01*
X79141266Y-102053853D01*
X79149443Y-102024047D01*
X79152472Y-102016735D01*
X79204667Y-101890725D01*
X79222470Y-101755500D01*
X79204667Y-101620275D01*
X79152472Y-101494265D01*
X79069442Y-101386058D01*
X78961235Y-101303028D01*
X78953922Y-101299999D01*
X78890921Y-101273903D01*
X78835225Y-101250833D01*
X78752934Y-101239999D01*
X78700001Y-101233030D01*
X78699999Y-101233030D01*
X78564775Y-101250833D01*
X78564774Y-101250833D01*
X78438766Y-101303027D01*
X78330558Y-101386058D01*
X78247527Y-101494266D01*
X78195333Y-101620274D01*
X78195333Y-101620275D01*
X78181352Y-101726473D01*
X78177530Y-101755500D01*
X78195333Y-101890725D01*
X78235493Y-101987681D01*
X78250557Y-102024047D01*
X78258026Y-102093517D01*
X78226751Y-102155996D01*
X78166662Y-102191648D01*
X78135996Y-102195500D01*
X76489622Y-102195500D01*
X76422583Y-102175815D01*
X76401941Y-102159181D01*
X76240819Y-101998059D01*
X76207334Y-101936736D01*
X76204500Y-101910378D01*
X76204500Y-100489014D01*
X76224185Y-100421975D01*
X76246270Y-100396200D01*
X76278183Y-100367929D01*
X76374818Y-100227930D01*
X76435140Y-100068872D01*
X76455645Y-99900000D01*
X76435140Y-99731128D01*
X76423334Y-99699999D01*
X76409976Y-99664774D01*
X76374818Y-99572070D01*
X76361290Y-99552472D01*
X76337427Y-99517900D01*
X76278183Y-99432071D01*
X76164676Y-99331513D01*
X76150849Y-99319263D01*
X76000226Y-99240210D01*
X75835056Y-99199500D01*
X75664944Y-99199500D01*
X75499773Y-99240210D01*
X75349150Y-99319263D01*
X75285773Y-99375411D01*
X75236003Y-99419504D01*
X75232227Y-99422849D01*
X75168994Y-99452570D01*
X75099730Y-99443386D01*
X75067773Y-99422849D01*
X75063997Y-99419504D01*
X74964676Y-99331513D01*
X74950849Y-99319263D01*
X74800226Y-99240210D01*
X74635056Y-99199500D01*
X74464944Y-99199500D01*
X74299773Y-99240210D01*
X74149150Y-99319263D01*
X74085773Y-99375411D01*
X74036003Y-99419504D01*
X74032227Y-99422849D01*
X73968994Y-99452570D01*
X73899730Y-99443386D01*
X73867773Y-99422849D01*
X73863997Y-99419504D01*
X73764676Y-99331513D01*
X73750849Y-99319263D01*
X73600226Y-99240210D01*
X73435056Y-99199500D01*
X73264944Y-99199500D01*
X73099773Y-99240210D01*
X72949150Y-99319263D01*
X72885773Y-99375411D01*
X72836003Y-99419504D01*
X72832227Y-99422849D01*
X72768994Y-99452570D01*
X72699730Y-99443386D01*
X72667773Y-99422849D01*
X72663997Y-99419504D01*
X72564676Y-99331513D01*
X72550849Y-99319263D01*
X72400226Y-99240210D01*
X72235056Y-99199500D01*
X72064944Y-99199500D01*
X71899773Y-99240210D01*
X71814126Y-99285162D01*
X71745618Y-99298888D01*
X71680565Y-99273396D01*
X71639620Y-99216780D01*
X71632500Y-99175366D01*
X71632500Y-98060000D01*
X73447530Y-98060000D01*
X73464016Y-98185225D01*
X73465333Y-98195224D01*
X73465333Y-98195225D01*
X73512735Y-98309665D01*
X73517528Y-98321235D01*
X73600558Y-98429442D01*
X73708765Y-98512472D01*
X73834775Y-98564667D01*
X73954267Y-98580398D01*
X73969999Y-98582470D01*
X73970000Y-98582470D01*
X73970001Y-98582470D01*
X73984093Y-98580614D01*
X74105225Y-98564667D01*
X74231235Y-98512472D01*
X74339442Y-98429442D01*
X74353891Y-98410611D01*
X74410317Y-98369411D01*
X74452265Y-98362100D01*
X75683504Y-98362100D01*
X75750543Y-98381785D01*
X75771185Y-98398419D01*
X77434503Y-100061738D01*
X77434505Y-100061739D01*
X77434506Y-100061740D01*
X77461230Y-100077169D01*
X77503394Y-100101514D01*
X77580224Y-100122099D01*
X77580228Y-100122100D01*
X77659772Y-100122100D01*
X80002095Y-100122100D01*
X80069134Y-100141785D01*
X80114889Y-100194589D01*
X80124833Y-100263747D01*
X80095808Y-100327303D01*
X80077586Y-100344472D01*
X80039887Y-100373400D01*
X80030558Y-100380558D01*
X79947527Y-100488766D01*
X79895333Y-100614774D01*
X79895333Y-100614775D01*
X79878180Y-100745066D01*
X79877530Y-100750000D01*
X79891634Y-100857132D01*
X79895333Y-100885224D01*
X79895333Y-100885225D01*
X79947109Y-101010225D01*
X79947528Y-101011235D01*
X80030558Y-101119442D01*
X80138765Y-101202472D01*
X80264775Y-101254667D01*
X80384267Y-101270398D01*
X80399999Y-101272470D01*
X80400000Y-101272470D01*
X80400001Y-101272470D01*
X80414093Y-101270614D01*
X80535225Y-101254667D01*
X80661235Y-101202472D01*
X80769442Y-101119442D01*
X80852472Y-101011235D01*
X80904667Y-100885225D01*
X80922470Y-100750000D01*
X80921820Y-100745066D01*
X80917207Y-100710023D01*
X80904667Y-100614775D01*
X80852472Y-100488765D01*
X80769442Y-100380558D01*
X80722416Y-100344474D01*
X80681216Y-100288048D01*
X80677061Y-100218302D01*
X80711274Y-100157381D01*
X80772991Y-100124629D01*
X80797905Y-100122100D01*
X84813504Y-100122100D01*
X84880543Y-100141785D01*
X84901185Y-100158419D01*
X85324503Y-100581738D01*
X85393394Y-100621514D01*
X85453164Y-100637528D01*
X85470228Y-100642100D01*
X91043504Y-100642100D01*
X91110543Y-100661785D01*
X91131185Y-100678419D01*
X91424206Y-100971440D01*
X91457691Y-101032763D01*
X91459464Y-101075304D01*
X91457530Y-101089995D01*
X91457530Y-101089999D01*
X91457530Y-101090000D01*
X91475138Y-101223747D01*
X91475333Y-101225224D01*
X91475333Y-101225225D01*
X91525248Y-101345732D01*
X91527528Y-101351235D01*
X91610558Y-101459442D01*
X91718765Y-101542472D01*
X91844775Y-101594667D01*
X91957008Y-101609443D01*
X91979999Y-101612470D01*
X91980000Y-101612470D01*
X91980001Y-101612470D01*
X91994093Y-101610614D01*
X92115225Y-101594667D01*
X92241235Y-101542472D01*
X92349442Y-101459442D01*
X92432472Y-101351235D01*
X92484667Y-101225225D01*
X92502470Y-101090000D01*
X92501430Y-101082104D01*
X92495725Y-101038766D01*
X92484667Y-100954775D01*
X92432472Y-100828765D01*
X92349442Y-100720558D01*
X92241235Y-100637528D01*
X92115225Y-100585333D01*
X92036246Y-100574935D01*
X91980001Y-100567530D01*
X91980000Y-100567530D01*
X91973693Y-100568360D01*
X91947628Y-100571791D01*
X91878593Y-100561023D01*
X91843766Y-100536532D01*
X91405496Y-100098261D01*
X91336605Y-100058485D01*
X91259775Y-100037900D01*
X91259772Y-100037900D01*
X88925357Y-100037900D01*
X88858318Y-100018215D01*
X88812563Y-99965411D01*
X88802619Y-99896253D01*
X88804282Y-99888145D01*
X88804666Y-99885226D01*
X88804667Y-99885225D01*
X88822470Y-99750000D01*
X88804667Y-99614775D01*
X88752472Y-99488765D01*
X88669442Y-99380558D01*
X88561235Y-99297528D01*
X88435225Y-99245333D01*
X88367612Y-99236431D01*
X88300001Y-99227530D01*
X88299999Y-99227530D01*
X88164775Y-99245333D01*
X88164771Y-99245334D01*
X88066448Y-99286061D01*
X88018996Y-99295500D01*
X86589622Y-99295500D01*
X86522583Y-99275815D01*
X86501941Y-99259181D01*
X83254366Y-96011606D01*
X83220881Y-95950283D01*
X83225865Y-95880591D01*
X83267737Y-95824658D01*
X83294596Y-95809363D01*
X83311235Y-95802472D01*
X83419442Y-95719442D01*
X83502472Y-95611235D01*
X83554667Y-95485225D01*
X83572470Y-95350000D01*
X83554667Y-95214775D01*
X83502472Y-95088765D01*
X83419442Y-94980558D01*
X83311235Y-94897528D01*
X83305291Y-94895066D01*
X83232162Y-94864775D01*
X83185225Y-94845333D01*
X83117612Y-94836431D01*
X83050001Y-94827530D01*
X83049999Y-94827530D01*
X82914775Y-94845333D01*
X82914774Y-94845333D01*
X82788766Y-94897527D01*
X82735024Y-94938765D01*
X82680558Y-94980558D01*
X82630727Y-95045500D01*
X82597526Y-95088768D01*
X82590633Y-95105408D01*
X82546790Y-95159810D01*
X82480496Y-95181872D01*
X82412797Y-95164591D01*
X82388393Y-95145632D01*
X82379072Y-95136311D01*
X82379070Y-95136309D01*
X82275433Y-95076474D01*
X82275432Y-95076473D01*
X82253602Y-95070624D01*
X82231773Y-95064775D01*
X82231771Y-95064774D01*
X82194047Y-95054666D01*
X82159836Y-95045499D01*
X82040164Y-95045499D01*
X82032568Y-95045499D01*
X82032552Y-95045500D01*
X78889622Y-95045500D01*
X78822583Y-95025815D01*
X78801941Y-95009181D01*
X76530819Y-92738059D01*
X76497334Y-92676736D01*
X76494500Y-92650378D01*
X76494500Y-92369014D01*
X76514185Y-92301975D01*
X76536271Y-92276200D01*
X76557773Y-92257150D01*
X76621004Y-92227430D01*
X76690267Y-92236612D01*
X76722225Y-92257149D01*
X76810538Y-92335388D01*
X76839147Y-92360733D01*
X76839149Y-92360735D01*
X76989773Y-92439789D01*
X76989775Y-92439790D01*
X77154944Y-92480500D01*
X77325056Y-92480500D01*
X77490225Y-92439790D01*
X77569692Y-92398081D01*
X77640849Y-92360736D01*
X77640850Y-92360734D01*
X77640852Y-92360734D01*
X77768183Y-92247929D01*
X77864818Y-92107930D01*
X77925140Y-91948872D01*
X77945645Y-91780000D01*
X77925140Y-91611128D01*
X77864818Y-91452070D01*
X77768183Y-91312071D01*
X77640852Y-91199266D01*
X77640849Y-91199263D01*
X77490226Y-91120210D01*
X77325056Y-91079500D01*
X77154944Y-91079500D01*
X76989773Y-91120210D01*
X76839150Y-91199263D01*
X76722227Y-91302849D01*
X76658994Y-91332570D01*
X76589730Y-91323386D01*
X76557773Y-91302849D01*
X76440849Y-91199263D01*
X76290226Y-91120210D01*
X76125056Y-91079500D01*
X75954944Y-91079500D01*
X75789773Y-91120210D01*
X75639150Y-91199263D01*
X75511816Y-91312072D01*
X75415182Y-91452068D01*
X75354860Y-91611125D01*
X75354859Y-91611130D01*
X75334355Y-91780000D01*
X75354859Y-91948869D01*
X75354860Y-91948874D01*
X75415182Y-92107931D01*
X75439999Y-92143884D01*
X75511817Y-92247929D01*
X75543727Y-92276199D01*
X75580854Y-92335388D01*
X75585500Y-92369014D01*
X75585500Y-92822551D01*
X75585499Y-92822569D01*
X75585499Y-92949838D01*
X75602167Y-93012040D01*
X75602167Y-93012042D01*
X75602168Y-93012042D01*
X75602168Y-93012043D01*
X75607129Y-93030558D01*
X75616473Y-93065432D01*
X75616474Y-93065433D01*
X75623730Y-93078001D01*
X75676309Y-93169070D01*
X75676311Y-93169072D01*
X75767995Y-93260756D01*
X75768001Y-93260761D01*
X78281968Y-95774728D01*
X78281978Y-95774739D01*
X78286308Y-95779069D01*
X78286309Y-95779070D01*
X78370930Y-95863691D01*
X78474569Y-95923527D01*
X78590164Y-95954500D01*
X81860378Y-95954500D01*
X81927417Y-95974185D01*
X81948059Y-95990819D01*
X83242387Y-97285147D01*
X83275872Y-97346470D01*
X83270888Y-97416162D01*
X83229016Y-97472095D01*
X83163552Y-97496512D01*
X83138520Y-97495767D01*
X83135225Y-97495333D01*
X83038533Y-97482603D01*
X83000001Y-97477530D01*
X82999999Y-97477530D01*
X82864775Y-97495333D01*
X82864774Y-97495333D01*
X82738766Y-97547527D01*
X82630558Y-97630558D01*
X82547527Y-97738766D01*
X82496698Y-97861479D01*
X82495333Y-97864775D01*
X82477530Y-98000000D01*
X82489216Y-98088766D01*
X82495333Y-98135224D01*
X82495333Y-98135225D01*
X82538220Y-98238765D01*
X82547528Y-98261235D01*
X82630558Y-98369442D01*
X82738765Y-98452472D01*
X82864775Y-98504667D01*
X82984267Y-98520398D01*
X82999999Y-98522470D01*
X83000000Y-98522470D01*
X83000001Y-98522470D01*
X83014093Y-98520614D01*
X83135225Y-98504667D01*
X83261235Y-98452472D01*
X83369442Y-98369442D01*
X83452472Y-98261235D01*
X83504667Y-98135225D01*
X83522470Y-98000000D01*
X83504667Y-97864775D01*
X83504665Y-97864771D01*
X83504232Y-97861479D01*
X83514997Y-97792444D01*
X83561377Y-97740188D01*
X83628645Y-97721302D01*
X83695446Y-97741782D01*
X83714852Y-97757612D01*
X85783459Y-99826219D01*
X85816944Y-99887542D01*
X85811960Y-99957234D01*
X85770088Y-100013167D01*
X85704624Y-100037584D01*
X85695778Y-100037900D01*
X85686496Y-100037900D01*
X85619457Y-100018215D01*
X85598815Y-100001581D01*
X85175496Y-99578261D01*
X85106605Y-99538485D01*
X85029775Y-99517900D01*
X85029772Y-99517900D01*
X77796496Y-99517900D01*
X77729457Y-99498215D01*
X77708815Y-99481581D01*
X76777235Y-98550000D01*
X77932530Y-98550000D01*
X77942270Y-98623985D01*
X77950333Y-98685224D01*
X77950333Y-98685225D01*
X77998826Y-98802299D01*
X78002528Y-98811235D01*
X78085558Y-98919442D01*
X78193765Y-99002472D01*
X78319775Y-99054667D01*
X78436839Y-99070079D01*
X78454999Y-99072470D01*
X78455000Y-99072470D01*
X78455001Y-99072470D01*
X78473161Y-99070079D01*
X78590225Y-99054667D01*
X78716235Y-99002472D01*
X78824442Y-98919442D01*
X78907472Y-98811235D01*
X78959667Y-98685225D01*
X78970887Y-98599999D01*
X79277530Y-98599999D01*
X79277530Y-98600000D01*
X79295333Y-98735224D01*
X79295333Y-98735225D01*
X79338220Y-98838765D01*
X79347528Y-98861235D01*
X79430558Y-98969442D01*
X79538765Y-99052472D01*
X79664775Y-99104667D01*
X79784267Y-99120398D01*
X79799999Y-99122470D01*
X79800000Y-99122470D01*
X79800001Y-99122470D01*
X79814834Y-99120517D01*
X79935225Y-99104667D01*
X80061235Y-99052472D01*
X80169442Y-98969442D01*
X80252472Y-98861235D01*
X80285439Y-98781644D01*
X80329279Y-98727241D01*
X80395573Y-98705176D01*
X80463273Y-98722455D01*
X80510884Y-98773592D01*
X80514561Y-98781645D01*
X80547526Y-98861232D01*
X80547527Y-98861233D01*
X80547528Y-98861235D01*
X80630558Y-98969442D01*
X80738765Y-99052472D01*
X80864775Y-99104667D01*
X80984267Y-99120398D01*
X80999999Y-99122470D01*
X81000000Y-99122470D01*
X81000001Y-99122470D01*
X81014834Y-99120517D01*
X81135225Y-99104667D01*
X81261235Y-99052472D01*
X81369442Y-98969442D01*
X81452472Y-98861235D01*
X81504667Y-98735225D01*
X81522470Y-98600000D01*
X81504667Y-98464775D01*
X81452472Y-98338765D01*
X81369442Y-98230558D01*
X81261235Y-98147528D01*
X81231530Y-98135224D01*
X81201150Y-98122640D01*
X81135225Y-98095333D01*
X81065634Y-98086171D01*
X81000001Y-98077530D01*
X80999999Y-98077530D01*
X80864775Y-98095333D01*
X80864774Y-98095333D01*
X80738766Y-98147527D01*
X80630558Y-98230558D01*
X80547527Y-98338766D01*
X80523715Y-98396252D01*
X80515287Y-98416603D01*
X80514561Y-98418355D01*
X80470720Y-98472758D01*
X80404426Y-98494823D01*
X80336727Y-98477544D01*
X80289116Y-98426407D01*
X80285439Y-98418355D01*
X80252472Y-98338765D01*
X80169442Y-98230558D01*
X80061235Y-98147528D01*
X80031530Y-98135224D01*
X80001150Y-98122640D01*
X79935225Y-98095333D01*
X79865634Y-98086171D01*
X79800001Y-98077530D01*
X79799999Y-98077530D01*
X79664775Y-98095333D01*
X79664774Y-98095333D01*
X79538766Y-98147527D01*
X79430558Y-98230558D01*
X79347527Y-98338766D01*
X79295333Y-98464774D01*
X79295333Y-98464775D01*
X79277530Y-98599999D01*
X78970887Y-98599999D01*
X78977470Y-98550000D01*
X78977144Y-98547527D01*
X78975026Y-98531440D01*
X78959667Y-98414775D01*
X78907472Y-98288765D01*
X78824442Y-98180558D01*
X78716235Y-98097528D01*
X78590225Y-98045333D01*
X78508618Y-98034589D01*
X78455001Y-98027530D01*
X78454999Y-98027530D01*
X78319775Y-98045333D01*
X78319774Y-98045333D01*
X78193766Y-98097527D01*
X78085558Y-98180558D01*
X78002527Y-98288766D01*
X77950333Y-98414774D01*
X77950333Y-98414775D01*
X77932856Y-98547527D01*
X77932530Y-98550000D01*
X76777235Y-98550000D01*
X76045496Y-97818261D01*
X75976605Y-97778485D01*
X75899775Y-97757900D01*
X75899772Y-97757900D01*
X74452265Y-97757900D01*
X74385226Y-97738215D01*
X74353892Y-97709389D01*
X74339442Y-97690558D01*
X74231235Y-97607528D01*
X74213058Y-97599999D01*
X74139287Y-97569442D01*
X74105225Y-97555333D01*
X73998841Y-97541327D01*
X73970001Y-97537530D01*
X73969999Y-97537530D01*
X73834775Y-97555333D01*
X73834774Y-97555333D01*
X73708766Y-97607527D01*
X73600558Y-97690558D01*
X73517527Y-97798766D01*
X73465333Y-97924774D01*
X73465333Y-97924775D01*
X73447754Y-98058302D01*
X73447530Y-98060000D01*
X71632500Y-98060000D01*
X71632500Y-92380140D01*
X72453411Y-92380140D01*
X72489951Y-92399317D01*
X72489950Y-92399317D01*
X72655006Y-92440000D01*
X72824994Y-92440000D01*
X72990044Y-92399318D01*
X73026587Y-92380139D01*
X72740001Y-92093553D01*
X72740000Y-92093553D01*
X72453411Y-92380140D01*
X71632500Y-92380140D01*
X71632500Y-91739999D01*
X72034859Y-91739999D01*
X72034859Y-91740000D01*
X72055348Y-91908751D01*
X72099989Y-92026457D01*
X72386447Y-91740000D01*
X72386447Y-91739999D01*
X72343661Y-91697213D01*
X72415000Y-91697213D01*
X72415000Y-91782787D01*
X72437149Y-91865445D01*
X72479936Y-91939554D01*
X72540446Y-92000064D01*
X72614555Y-92042851D01*
X72697213Y-92065000D01*
X72782787Y-92065000D01*
X72865445Y-92042851D01*
X72939554Y-92000064D01*
X73000064Y-91939554D01*
X73042851Y-91865445D01*
X73065000Y-91782787D01*
X73065000Y-91740000D01*
X73093553Y-91740000D01*
X73231416Y-91877863D01*
X73259677Y-91921573D01*
X73315182Y-92067931D01*
X73332868Y-92093553D01*
X73411817Y-92207929D01*
X73517505Y-92301560D01*
X73539150Y-92320736D01*
X73652335Y-92380140D01*
X73689775Y-92399790D01*
X73854944Y-92440500D01*
X74025056Y-92440500D01*
X74190225Y-92399790D01*
X74269692Y-92358081D01*
X74340849Y-92320736D01*
X74340850Y-92320734D01*
X74340852Y-92320734D01*
X74468183Y-92207929D01*
X74564818Y-92067930D01*
X74625140Y-91908872D01*
X74645645Y-91740000D01*
X74625140Y-91571128D01*
X74564818Y-91412070D01*
X74554666Y-91397363D01*
X74495793Y-91312071D01*
X74468183Y-91272071D01*
X74340852Y-91159266D01*
X74340849Y-91159263D01*
X74190226Y-91080210D01*
X74025056Y-91039500D01*
X73854944Y-91039500D01*
X73689773Y-91080210D01*
X73539150Y-91159263D01*
X73411816Y-91272072D01*
X73315182Y-91412068D01*
X73259678Y-91558424D01*
X73231418Y-91602134D01*
X73093553Y-91740000D01*
X73065000Y-91740000D01*
X73065000Y-91697213D01*
X73042851Y-91614555D01*
X73000064Y-91540446D01*
X72939554Y-91479936D01*
X72865445Y-91437149D01*
X72782787Y-91415000D01*
X72697213Y-91415000D01*
X72614555Y-91437149D01*
X72540446Y-91479936D01*
X72479936Y-91540446D01*
X72437149Y-91614555D01*
X72415000Y-91697213D01*
X72343661Y-91697213D01*
X72099989Y-91453541D01*
X72099988Y-91453542D01*
X72055349Y-91571248D01*
X72034859Y-91739999D01*
X71632500Y-91739999D01*
X71632500Y-91099859D01*
X72453411Y-91099859D01*
X72740000Y-91386447D01*
X72740001Y-91386447D01*
X73026587Y-91099860D01*
X73026586Y-91099859D01*
X72990046Y-91080682D01*
X72824994Y-91040000D01*
X72655006Y-91040000D01*
X72489953Y-91080682D01*
X72489946Y-91080684D01*
X72453412Y-91099858D01*
X72453411Y-91099859D01*
X71632500Y-91099859D01*
X71632500Y-90278500D01*
X71652185Y-90211461D01*
X71704989Y-90165706D01*
X71756500Y-90154500D01*
X79462038Y-90154500D01*
X79529077Y-90174185D01*
G37*
%TD.AperFunction*%
%TA.AperFunction,Conductor*%
G36*
X150718130Y-101867776D02*
G01*
X150775994Y-101906938D01*
X150803472Y-101970942D01*
X150815348Y-102068748D01*
X150815349Y-102068751D01*
X150875630Y-102227696D01*
X150895243Y-102256111D01*
X150917125Y-102322465D01*
X150899659Y-102390117D01*
X150848391Y-102437586D01*
X150793192Y-102450550D01*
X149507576Y-102450550D01*
X149430743Y-102471137D01*
X149388547Y-102495500D01*
X149388546Y-102495500D01*
X149361859Y-102510907D01*
X149361858Y-102510908D01*
X149077395Y-102795370D01*
X149016072Y-102828854D01*
X148973531Y-102830627D01*
X148950004Y-102827530D01*
X148949998Y-102827530D01*
X148816631Y-102845088D01*
X148747596Y-102834322D01*
X148695340Y-102787942D01*
X148676455Y-102720673D01*
X148696936Y-102653873D01*
X148712760Y-102634473D01*
X149440215Y-101907019D01*
X149501538Y-101873534D01*
X149527896Y-101870700D01*
X150631169Y-101870700D01*
X150631172Y-101870700D01*
X150648283Y-101866115D01*
X150718130Y-101867776D01*
G37*
%TD.AperFunction*%
%TA.AperFunction,Conductor*%
G36*
X159280022Y-100597185D02*
G01*
X159300664Y-100613819D01*
X159648910Y-100962065D01*
X159723590Y-101005181D01*
X159806884Y-101027500D01*
X159893116Y-101027500D01*
X162412983Y-101027500D01*
X162480022Y-101047185D01*
X162500664Y-101063819D01*
X163098910Y-101662065D01*
X163173589Y-101705181D01*
X163256884Y-101727500D01*
X163343115Y-101727500D01*
X165008037Y-101727500D01*
X165075076Y-101747185D01*
X165120831Y-101799989D01*
X165130775Y-101869147D01*
X165122599Y-101898948D01*
X165117865Y-101910378D01*
X165095333Y-101964774D01*
X165095333Y-101964775D01*
X165078384Y-102093517D01*
X165077530Y-102100000D01*
X165091990Y-102209836D01*
X165096394Y-102243282D01*
X165093899Y-102243610D01*
X165092537Y-102300844D01*
X165053375Y-102358706D01*
X164989147Y-102386211D01*
X164974425Y-102387088D01*
X157305684Y-102387088D01*
X157238645Y-102367403D01*
X157218003Y-102350769D01*
X156401672Y-101534438D01*
X156368187Y-101473115D01*
X156373171Y-101403423D01*
X156415043Y-101347490D01*
X156434218Y-101336570D01*
X156434198Y-101336535D01*
X156441230Y-101332475D01*
X156441232Y-101332472D01*
X156441235Y-101332472D01*
X156549442Y-101249442D01*
X156632472Y-101141235D01*
X156684667Y-101015225D01*
X156702470Y-100880000D01*
X156684667Y-100744775D01*
X156684664Y-100744768D01*
X156682563Y-100736924D01*
X156685034Y-100736261D01*
X156678927Y-100679491D01*
X156710198Y-100617010D01*
X156770284Y-100581354D01*
X156800958Y-100577500D01*
X159212983Y-100577500D01*
X159280022Y-100597185D01*
G37*
%TD.AperFunction*%
%TA.AperFunction,Conductor*%
G36*
X152314981Y-101101785D02*
G01*
X152360736Y-101154589D01*
X152370680Y-101223747D01*
X152341655Y-101287303D01*
X152305568Y-101315896D01*
X152299150Y-101319263D01*
X152171816Y-101432072D01*
X152075182Y-101572068D01*
X152075182Y-101572069D01*
X152019677Y-101718425D01*
X151991416Y-101762135D01*
X151825000Y-101928551D01*
X151825000Y-101857213D01*
X151802851Y-101774555D01*
X151760064Y-101700446D01*
X151699554Y-101639936D01*
X151625445Y-101597149D01*
X151542787Y-101575000D01*
X151471447Y-101575000D01*
X151786586Y-101259860D01*
X151781244Y-101224760D01*
X151790616Y-101155522D01*
X151835933Y-101102342D01*
X151902808Y-101082104D01*
X151903832Y-101082100D01*
X152247942Y-101082100D01*
X152314981Y-101101785D01*
G37*
%TD.AperFunction*%
%TA.AperFunction,Conductor*%
G36*
X166744361Y-98821785D02*
G01*
X166790116Y-98874589D01*
X166800060Y-98943747D01*
X166797097Y-98958193D01*
X166795333Y-98964773D01*
X166795333Y-98964775D01*
X166790370Y-99002472D01*
X166777856Y-99097527D01*
X166777530Y-99100000D01*
X166788210Y-99181125D01*
X166795333Y-99235224D01*
X166795333Y-99235225D01*
X166820230Y-99295333D01*
X166847528Y-99361235D01*
X166930558Y-99469442D01*
X167038765Y-99552472D01*
X167164775Y-99604667D01*
X167164780Y-99604667D01*
X167168207Y-99605586D01*
X167170779Y-99607153D01*
X167172284Y-99607777D01*
X167172186Y-99608011D01*
X167227869Y-99641947D01*
X167258401Y-99704793D01*
X167250110Y-99774169D01*
X167223800Y-99813043D01*
X166000664Y-101036181D01*
X165939341Y-101069666D01*
X165912983Y-101072500D01*
X163487017Y-101072500D01*
X163419978Y-101052815D01*
X163399336Y-101036181D01*
X162801091Y-100437936D01*
X162801090Y-100437935D01*
X162726410Y-100394819D01*
X162726411Y-100394819D01*
X162688851Y-100384755D01*
X162643116Y-100372500D01*
X162643114Y-100372500D01*
X162504096Y-100372500D01*
X162437057Y-100352815D01*
X162391302Y-100300011D01*
X162381358Y-100230853D01*
X162410383Y-100167297D01*
X162416415Y-100160819D01*
X162488815Y-100088419D01*
X162550138Y-100054934D01*
X162576496Y-100052100D01*
X164839769Y-100052100D01*
X164839772Y-100052100D01*
X164862602Y-100045982D01*
X164916605Y-100031514D01*
X164927875Y-100025007D01*
X164985494Y-99991740D01*
X166138815Y-98838419D01*
X166200138Y-98804934D01*
X166226496Y-98802100D01*
X166677322Y-98802100D01*
X166744361Y-98821785D01*
G37*
%TD.AperFunction*%
%TA.AperFunction,Conductor*%
G36*
X121752422Y-99071785D02*
G01*
X121798177Y-99124589D01*
X121808121Y-99193747D01*
X121779096Y-99257303D01*
X121773069Y-99263775D01*
X121628584Y-99408260D01*
X121495633Y-99541211D01*
X121434310Y-99574696D01*
X121407952Y-99577530D01*
X121399999Y-99577530D01*
X121264775Y-99595333D01*
X121264774Y-99595333D01*
X121138766Y-99647527D01*
X121030558Y-99730558D01*
X120947527Y-99838766D01*
X120895333Y-99964774D01*
X120895333Y-99964775D01*
X120881629Y-100068869D01*
X120877530Y-100100000D01*
X120894757Y-100230853D01*
X120895333Y-100235224D01*
X120895333Y-100235225D01*
X120927226Y-100312223D01*
X120947528Y-100361235D01*
X121030558Y-100469442D01*
X121138765Y-100552472D01*
X121264775Y-100604667D01*
X121384267Y-100620398D01*
X121399999Y-100622470D01*
X121400000Y-100622470D01*
X121400001Y-100622470D01*
X121414093Y-100620614D01*
X121535225Y-100604667D01*
X121661235Y-100552472D01*
X121769442Y-100469442D01*
X121852472Y-100361235D01*
X121904667Y-100235225D01*
X121922470Y-100100000D01*
X121922470Y-100099999D01*
X121922470Y-100092046D01*
X121942155Y-100025007D01*
X121958789Y-100004365D01*
X122439336Y-99523819D01*
X122500659Y-99490334D01*
X122527017Y-99487500D01*
X126322983Y-99487500D01*
X126390022Y-99507185D01*
X126410664Y-99523819D01*
X126637935Y-99751090D01*
X126698910Y-99812065D01*
X126773590Y-99855181D01*
X126856884Y-99877500D01*
X127045904Y-99877500D01*
X127112943Y-99897185D01*
X127158698Y-99949989D01*
X127168642Y-100019147D01*
X127139617Y-100082703D01*
X127133585Y-100089181D01*
X126361185Y-100861581D01*
X126299862Y-100895066D01*
X126273504Y-100897900D01*
X120676496Y-100897900D01*
X120609457Y-100878215D01*
X120588815Y-100861581D01*
X119385496Y-99658261D01*
X119316605Y-99618485D01*
X119239775Y-99597900D01*
X119239772Y-99597900D01*
X98108205Y-99597900D01*
X98041166Y-99578215D01*
X98008736Y-99544203D01*
X98007420Y-99545214D01*
X98002472Y-99538766D01*
X98002472Y-99538765D01*
X97919442Y-99430558D01*
X97811235Y-99347528D01*
X97685225Y-99295333D01*
X97685223Y-99295332D01*
X97677716Y-99292223D01*
X97678429Y-99290500D01*
X97627587Y-99259512D01*
X97597056Y-99196666D01*
X97605350Y-99127290D01*
X97649834Y-99073411D01*
X97716385Y-99052135D01*
X97719339Y-99052100D01*
X121685383Y-99052100D01*
X121752422Y-99071785D01*
G37*
%TD.AperFunction*%
%TA.AperFunction,Conductor*%
G36*
X143957443Y-99652685D02*
G01*
X144003198Y-99705489D01*
X144013142Y-99774647D01*
X143984117Y-99838203D01*
X143978085Y-99844681D01*
X143111185Y-100711581D01*
X143049862Y-100745066D01*
X143023504Y-100747900D01*
X140466496Y-100747900D01*
X140399457Y-100728215D01*
X140378815Y-100711581D01*
X139511916Y-99844681D01*
X139478431Y-99783358D01*
X139483415Y-99713666D01*
X139525287Y-99657733D01*
X139590751Y-99633316D01*
X139599597Y-99633000D01*
X143890404Y-99633000D01*
X143957443Y-99652685D01*
G37*
%TD.AperFunction*%
%TA.AperFunction,Conductor*%
G36*
X158340543Y-96271785D02*
G01*
X158361185Y-96288419D01*
X159414503Y-97341738D01*
X159414505Y-97341739D01*
X159414506Y-97341740D01*
X159436832Y-97354630D01*
X159483394Y-97381514D01*
X159552390Y-97400000D01*
X159560228Y-97402100D01*
X159560231Y-97402100D01*
X160321304Y-97402100D01*
X160388343Y-97421785D01*
X160434098Y-97474589D01*
X160444042Y-97543747D01*
X160415017Y-97607303D01*
X160408985Y-97613781D01*
X160242085Y-97780681D01*
X160180762Y-97814166D01*
X160154404Y-97817000D01*
X156035296Y-97817000D01*
X155968257Y-97797315D01*
X155922502Y-97744511D01*
X155912357Y-97676814D01*
X155922470Y-97600000D01*
X155922470Y-97599999D01*
X155915562Y-97547528D01*
X155904667Y-97464775D01*
X155852472Y-97338765D01*
X155769442Y-97230558D01*
X155661235Y-97147528D01*
X155535225Y-97095333D01*
X155465998Y-97086219D01*
X155400001Y-97077530D01*
X155399999Y-97077530D01*
X155264775Y-97095333D01*
X155264774Y-97095333D01*
X155138766Y-97147527D01*
X155030558Y-97230558D01*
X154947527Y-97338766D01*
X154895333Y-97464774D01*
X154895333Y-97464775D01*
X154877530Y-97599999D01*
X154877530Y-97600000D01*
X154887643Y-97676814D01*
X154876878Y-97745850D01*
X154830498Y-97798106D01*
X154764704Y-97817000D01*
X154745596Y-97817000D01*
X154678557Y-97797315D01*
X154657915Y-97780681D01*
X154295496Y-97418261D01*
X154226605Y-97378485D01*
X154149775Y-97357900D01*
X154149772Y-97357900D01*
X154144873Y-97357900D01*
X154077834Y-97338215D01*
X154032079Y-97285411D01*
X154022135Y-97216253D01*
X154051160Y-97152697D01*
X154069386Y-97135525D01*
X154096427Y-97114775D01*
X154129442Y-97089442D01*
X154212472Y-96981235D01*
X154264667Y-96855225D01*
X154282470Y-96720000D01*
X154282396Y-96719441D01*
X154279222Y-96695333D01*
X154264667Y-96584775D01*
X154212472Y-96458765D01*
X154210438Y-96456114D01*
X154206963Y-96451585D01*
X154181770Y-96386415D01*
X154195809Y-96317971D01*
X154244624Y-96267982D01*
X154305340Y-96252100D01*
X158273504Y-96252100D01*
X158340543Y-96271785D01*
G37*
%TD.AperFunction*%
%TA.AperFunction,Conductor*%
G36*
X138756974Y-94240885D02*
G01*
X138802729Y-94293689D01*
X138812673Y-94362847D01*
X138804497Y-94392651D01*
X138795333Y-94414774D01*
X138795333Y-94414775D01*
X138777856Y-94547527D01*
X138777530Y-94550000D01*
X138793320Y-94669938D01*
X138795333Y-94685224D01*
X138795333Y-94685225D01*
X138834203Y-94779067D01*
X138847528Y-94811235D01*
X138930558Y-94919442D01*
X139038765Y-95002472D01*
X139164775Y-95054667D01*
X139284267Y-95070398D01*
X139299999Y-95072470D01*
X139300000Y-95072470D01*
X139300001Y-95072470D01*
X139314093Y-95070614D01*
X139435225Y-95054667D01*
X139561235Y-95002472D01*
X139669442Y-94919442D01*
X139683891Y-94900611D01*
X139740317Y-94859411D01*
X139782265Y-94852100D01*
X142847847Y-94852100D01*
X142914886Y-94871785D01*
X142960641Y-94924589D01*
X142970585Y-94993747D01*
X142962408Y-95023553D01*
X142945333Y-95064774D01*
X142945333Y-95064775D01*
X142927530Y-95199999D01*
X142927530Y-95200000D01*
X142945333Y-95335224D01*
X142945333Y-95335225D01*
X142989452Y-95441739D01*
X142997528Y-95461235D01*
X143080558Y-95569442D01*
X143131335Y-95608405D01*
X143172538Y-95664832D01*
X143176693Y-95734578D01*
X143170410Y-95754232D01*
X143145334Y-95814771D01*
X143145333Y-95814775D01*
X143131016Y-95923525D01*
X143127530Y-95950000D01*
X143144620Y-96079813D01*
X143145333Y-96085224D01*
X143145333Y-96085225D01*
X143197527Y-96211234D01*
X143197528Y-96211235D01*
X143200244Y-96214775D01*
X143202345Y-96217512D01*
X143227540Y-96282681D01*
X143213502Y-96351126D01*
X143164689Y-96401117D01*
X143103970Y-96417000D01*
X142745596Y-96417000D01*
X142678557Y-96397315D01*
X142657915Y-96380681D01*
X142185496Y-95908261D01*
X142116605Y-95868485D01*
X142039775Y-95847900D01*
X142039772Y-95847900D01*
X134089772Y-95847900D01*
X134011129Y-95847900D01*
X133993391Y-95845565D01*
X133993282Y-95846394D01*
X133985225Y-95845333D01*
X133898351Y-95833895D01*
X133850001Y-95827530D01*
X133849999Y-95827530D01*
X133714775Y-95845333D01*
X133714774Y-95845333D01*
X133588766Y-95897527D01*
X133480558Y-95980558D01*
X133397527Y-96088766D01*
X133345333Y-96214774D01*
X133345333Y-96214775D01*
X133327856Y-96347527D01*
X133327530Y-96350000D01*
X133341849Y-96458765D01*
X133345333Y-96485224D01*
X133345333Y-96485225D01*
X133386567Y-96584774D01*
X133397528Y-96611235D01*
X133480558Y-96719442D01*
X133588765Y-96802472D01*
X133714775Y-96854667D01*
X133850000Y-96872470D01*
X133860820Y-96871045D01*
X133929854Y-96881809D01*
X133982111Y-96928188D01*
X134000998Y-96995456D01*
X133991569Y-97041436D01*
X133965332Y-97104777D01*
X133949451Y-97225411D01*
X133947530Y-97240000D01*
X133965333Y-97375225D01*
X133967938Y-97381513D01*
X133978639Y-97407349D01*
X133986106Y-97476818D01*
X133954831Y-97539297D01*
X133894741Y-97574949D01*
X133864077Y-97578800D01*
X125451896Y-97578800D01*
X125384857Y-97559115D01*
X125364215Y-97542481D01*
X124749130Y-96927396D01*
X124715645Y-96866073D01*
X124713872Y-96823528D01*
X124716970Y-96800000D01*
X124699167Y-96664775D01*
X124646972Y-96538765D01*
X124563942Y-96430558D01*
X124455735Y-96347528D01*
X124448451Y-96344511D01*
X124400355Y-96324589D01*
X124329725Y-96295333D01*
X124262112Y-96286431D01*
X124194501Y-96277530D01*
X124194499Y-96277530D01*
X124059275Y-96295333D01*
X124059274Y-96295333D01*
X123933266Y-96347527D01*
X123842727Y-96417000D01*
X123825058Y-96430558D01*
X123810608Y-96449388D01*
X123754183Y-96490589D01*
X123712235Y-96497900D01*
X96526496Y-96497900D01*
X96459457Y-96478215D01*
X96438815Y-96461581D01*
X95904630Y-95927396D01*
X95871145Y-95866073D01*
X95869372Y-95823528D01*
X95872470Y-95800000D01*
X95854667Y-95664775D01*
X95854664Y-95664768D01*
X95852903Y-95658193D01*
X95854566Y-95588343D01*
X95893729Y-95530481D01*
X95957957Y-95502977D01*
X95972678Y-95502100D01*
X110673888Y-95502100D01*
X110673891Y-95502100D01*
X110696721Y-95495982D01*
X110750724Y-95481514D01*
X110750726Y-95481513D01*
X110819613Y-95441740D01*
X111261353Y-95000000D01*
X133327530Y-95000000D01*
X133345333Y-95135225D01*
X133397528Y-95261235D01*
X133480558Y-95369442D01*
X133588765Y-95452472D01*
X133714775Y-95504667D01*
X133834267Y-95520398D01*
X133849999Y-95522470D01*
X133850000Y-95522470D01*
X133850001Y-95522470D01*
X133864093Y-95520614D01*
X133985225Y-95504667D01*
X134111235Y-95452472D01*
X134219442Y-95369442D01*
X134302472Y-95261235D01*
X134354667Y-95135225D01*
X134372470Y-95000000D01*
X134354667Y-94864775D01*
X134302472Y-94738765D01*
X134219442Y-94630558D01*
X134111235Y-94547528D01*
X134103782Y-94544441D01*
X134033246Y-94515224D01*
X133985225Y-94495333D01*
X133917612Y-94486431D01*
X133850001Y-94477530D01*
X133849999Y-94477530D01*
X133714775Y-94495333D01*
X133714774Y-94495333D01*
X133588766Y-94547527D01*
X133480558Y-94630558D01*
X133397527Y-94738766D01*
X133345333Y-94864774D01*
X133345333Y-94864775D01*
X133332168Y-94964775D01*
X133327530Y-95000000D01*
X111261353Y-95000000D01*
X112003834Y-94257519D01*
X112065157Y-94224034D01*
X112091515Y-94221200D01*
X138689935Y-94221200D01*
X138756974Y-94240885D01*
G37*
%TD.AperFunction*%
%TA.AperFunction,Conductor*%
G36*
X141890543Y-96471785D02*
G01*
X141911185Y-96488419D01*
X142383603Y-96960838D01*
X142383605Y-96960839D01*
X142383606Y-96960840D01*
X142410330Y-96976269D01*
X142452494Y-97000614D01*
X142529324Y-97021199D01*
X142529328Y-97021200D01*
X142966258Y-97021200D01*
X143033297Y-97040885D01*
X143079052Y-97093689D01*
X143089196Y-97161384D01*
X143088136Y-97169441D01*
X143078847Y-97240000D01*
X143077530Y-97250000D01*
X143094844Y-97381514D01*
X143095333Y-97385224D01*
X143095333Y-97385225D01*
X143104497Y-97407349D01*
X143111964Y-97476819D01*
X143080689Y-97539297D01*
X143020599Y-97574949D01*
X142989935Y-97578800D01*
X135075923Y-97578800D01*
X135008884Y-97559115D01*
X134963129Y-97506311D01*
X134953185Y-97437153D01*
X134961361Y-97407349D01*
X134964405Y-97399999D01*
X134974667Y-97375225D01*
X134992470Y-97240000D01*
X134974667Y-97104775D01*
X134922472Y-96978765D01*
X134839442Y-96870558D01*
X134731235Y-96787528D01*
X134605225Y-96735333D01*
X134537612Y-96726431D01*
X134470001Y-96717530D01*
X134470000Y-96717530D01*
X134459173Y-96718955D01*
X134390138Y-96708187D01*
X134337884Y-96661805D01*
X134319001Y-96594536D01*
X134328432Y-96548561D01*
X134335284Y-96532019D01*
X134336683Y-96528643D01*
X134380526Y-96474241D01*
X134446821Y-96452179D01*
X134451242Y-96452100D01*
X141823504Y-96452100D01*
X141890543Y-96471785D01*
G37*
%TD.AperFunction*%
%TA.AperFunction,Conductor*%
G36*
X169090543Y-96421785D02*
G01*
X169111185Y-96438419D01*
X169758984Y-97086219D01*
X169792469Y-97147542D01*
X169787485Y-97217234D01*
X169745613Y-97273167D01*
X169680149Y-97297584D01*
X169671303Y-97297900D01*
X167343555Y-97297900D01*
X167276516Y-97278215D01*
X167255874Y-97261581D01*
X167023444Y-97029151D01*
X166989959Y-96967828D01*
X166994943Y-96898136D01*
X167023444Y-96853789D01*
X167199704Y-96677530D01*
X167438815Y-96438419D01*
X167500138Y-96404934D01*
X167526496Y-96402100D01*
X169023504Y-96402100D01*
X169090543Y-96421785D01*
G37*
%TD.AperFunction*%
%TA.AperFunction,Conductor*%
G36*
X148088343Y-95821785D02*
G01*
X148134098Y-95874589D01*
X148144042Y-95943747D01*
X148115017Y-96007303D01*
X148108985Y-96013781D01*
X147742085Y-96380681D01*
X147680762Y-96414166D01*
X147654404Y-96417000D01*
X144196030Y-96417000D01*
X144128991Y-96397315D01*
X144083236Y-96344511D01*
X144073292Y-96275353D01*
X144097655Y-96217512D01*
X144102472Y-96211235D01*
X144154667Y-96085225D01*
X144172470Y-95950000D01*
X144171454Y-95942282D01*
X144182222Y-95873247D01*
X144228603Y-95820992D01*
X144294394Y-95802100D01*
X148021304Y-95802100D01*
X148088343Y-95821785D01*
G37*
%TD.AperFunction*%
%TA.AperFunction,Conductor*%
G36*
X102114256Y-92755185D02*
G01*
X102154602Y-92797498D01*
X102191041Y-92860612D01*
X102349950Y-93059877D01*
X102536783Y-93233232D01*
X102747366Y-93376805D01*
X102747371Y-93376807D01*
X102747372Y-93376808D01*
X102747373Y-93376809D01*
X102842194Y-93422472D01*
X102976992Y-93487387D01*
X102976993Y-93487387D01*
X102976996Y-93487389D01*
X103220542Y-93562513D01*
X103472565Y-93600500D01*
X103727435Y-93600500D01*
X103979458Y-93562513D01*
X104223004Y-93487389D01*
X104435735Y-93384943D01*
X104452626Y-93376809D01*
X104452626Y-93376808D01*
X104452634Y-93376805D01*
X104663217Y-93233232D01*
X104850050Y-93059877D01*
X105008959Y-92860612D01*
X105045397Y-92797499D01*
X105095962Y-92749285D01*
X105152783Y-92735500D01*
X125347217Y-92735500D01*
X125414256Y-92755185D01*
X125454602Y-92797498D01*
X125491041Y-92860612D01*
X125649950Y-93059877D01*
X125836783Y-93233232D01*
X126047366Y-93376805D01*
X126056657Y-93381279D01*
X126108517Y-93428101D01*
X126126831Y-93495528D01*
X126105784Y-93562152D01*
X126052059Y-93606821D01*
X126002857Y-93617000D01*
X111875243Y-93617000D01*
X111798413Y-93637585D01*
X111729522Y-93677361D01*
X110545304Y-94861581D01*
X110483981Y-94895066D01*
X110457623Y-94897900D01*
X105952153Y-94897900D01*
X105885114Y-94878215D01*
X105839359Y-94825411D01*
X105829415Y-94756253D01*
X105837592Y-94726447D01*
X105854667Y-94685225D01*
X105872470Y-94550000D01*
X105872144Y-94547527D01*
X105869208Y-94525224D01*
X105854667Y-94414775D01*
X105802472Y-94288765D01*
X105719442Y-94180558D01*
X105611235Y-94097528D01*
X105485225Y-94045333D01*
X105415998Y-94036219D01*
X105350001Y-94027530D01*
X105349998Y-94027530D01*
X105221562Y-94044439D01*
X105205377Y-94045500D01*
X88339622Y-94045500D01*
X88272583Y-94025815D01*
X88251941Y-94009181D01*
X87320761Y-93078001D01*
X87320759Y-93077998D01*
X87229072Y-92986311D01*
X87229070Y-92986309D01*
X87195429Y-92966886D01*
X87147214Y-92916320D01*
X87133991Y-92847713D01*
X87159959Y-92782848D01*
X87216874Y-92742320D01*
X87257430Y-92735500D01*
X102047217Y-92735500D01*
X102114256Y-92755185D01*
G37*
%TD.AperFunction*%
%TA.AperFunction,Conductor*%
G36*
X148714256Y-92755185D02*
G01*
X148754602Y-92797498D01*
X148791041Y-92860612D01*
X148949950Y-93059877D01*
X149136783Y-93233232D01*
X149347366Y-93376805D01*
X149347369Y-93376806D01*
X149347370Y-93376807D01*
X149420823Y-93412180D01*
X149472682Y-93459002D01*
X149490995Y-93526429D01*
X149469947Y-93593053D01*
X149416221Y-93637722D01*
X149367021Y-93647900D01*
X148960615Y-93647900D01*
X148893576Y-93628215D01*
X148872934Y-93611581D01*
X148646297Y-93384943D01*
X148577406Y-93345167D01*
X148500576Y-93324582D01*
X148500573Y-93324582D01*
X142613090Y-93324582D01*
X142533546Y-93324582D01*
X142533542Y-93324582D01*
X142456712Y-93345167D01*
X142387821Y-93384943D01*
X141998339Y-93774427D01*
X141937016Y-93807912D01*
X141910658Y-93810746D01*
X140389342Y-93810746D01*
X140322303Y-93791061D01*
X140301665Y-93774431D01*
X140204594Y-93677360D01*
X140176635Y-93661217D01*
X140135705Y-93637585D01*
X140058875Y-93617000D01*
X140058872Y-93617000D01*
X139035296Y-93617000D01*
X138968257Y-93597315D01*
X138922502Y-93544511D01*
X138912357Y-93476814D01*
X138922470Y-93400000D01*
X138922470Y-93399999D01*
X138919417Y-93376808D01*
X138904667Y-93264775D01*
X138852472Y-93138765D01*
X138769442Y-93030558D01*
X138674718Y-92957874D01*
X138633518Y-92901448D01*
X138629363Y-92831702D01*
X138663576Y-92770781D01*
X138725293Y-92738029D01*
X138750207Y-92735500D01*
X148647217Y-92735500D01*
X148714256Y-92755185D01*
G37*
%TD.AperFunction*%
%TA.AperFunction,Conductor*%
G36*
X137721443Y-93152685D02*
G01*
X137742085Y-93169319D01*
X137845369Y-93272603D01*
X137878854Y-93333926D01*
X137880628Y-93376466D01*
X137877530Y-93400001D01*
X137887643Y-93476814D01*
X137876878Y-93545850D01*
X137830498Y-93598106D01*
X137764704Y-93617000D01*
X130764952Y-93617000D01*
X130697913Y-93597315D01*
X130652158Y-93544511D01*
X130642214Y-93475353D01*
X130650389Y-93445552D01*
X130654667Y-93435225D01*
X130672470Y-93300000D01*
X130669372Y-93276470D01*
X130680137Y-93207437D01*
X130704641Y-93172591D01*
X130707929Y-93169305D01*
X130769257Y-93135830D01*
X130795597Y-93133000D01*
X137654404Y-93133000D01*
X137721443Y-93152685D01*
G37*
%TD.AperFunction*%
%TA.AperFunction,Conductor*%
G36*
X96663892Y-90174185D02*
G01*
X96709647Y-90226989D01*
X96719591Y-90296147D01*
X96711414Y-90325953D01*
X96695333Y-90364774D01*
X96695333Y-90364775D01*
X96677530Y-90499999D01*
X96677530Y-90500000D01*
X96695333Y-90635224D01*
X96695333Y-90635225D01*
X96747528Y-90761236D01*
X96777273Y-90800000D01*
X96822773Y-90859297D01*
X96827160Y-90865013D01*
X96852355Y-90930182D01*
X96838317Y-90998627D01*
X96789503Y-91048617D01*
X96728785Y-91064500D01*
X81852783Y-91064500D01*
X81785744Y-91044815D01*
X81745397Y-91002501D01*
X81708959Y-90939388D01*
X81550050Y-90740123D01*
X81363217Y-90566768D01*
X81152634Y-90423195D01*
X81152630Y-90423193D01*
X81152627Y-90423191D01*
X81152626Y-90423190D01*
X81084161Y-90390220D01*
X81032301Y-90343398D01*
X81013988Y-90275971D01*
X81035036Y-90209347D01*
X81088762Y-90164679D01*
X81137962Y-90154500D01*
X96596853Y-90154500D01*
X96663892Y-90174185D01*
G37*
%TD.AperFunction*%
%TA.AperFunction,Conductor*%
G36*
X111017531Y-90174185D02*
G01*
X111063286Y-90226989D01*
X111073230Y-90296147D01*
X111048868Y-90353986D01*
X111037528Y-90368763D01*
X110985333Y-90494774D01*
X110985333Y-90494775D01*
X110978063Y-90549999D01*
X110967530Y-90630000D01*
X110985333Y-90765225D01*
X111019412Y-90847500D01*
X111038279Y-90893047D01*
X111045748Y-90962517D01*
X111014473Y-91024996D01*
X110954384Y-91060648D01*
X110923718Y-91064500D01*
X105152783Y-91064500D01*
X105085744Y-91044815D01*
X105045397Y-91002501D01*
X105008959Y-90939388D01*
X104850050Y-90740123D01*
X104663217Y-90566768D01*
X104452634Y-90423195D01*
X104452630Y-90423193D01*
X104452627Y-90423191D01*
X104452626Y-90423190D01*
X104384161Y-90390220D01*
X104332301Y-90343398D01*
X104313988Y-90275971D01*
X104335036Y-90209347D01*
X104388762Y-90164679D01*
X104437962Y-90154500D01*
X110950492Y-90154500D01*
X111017531Y-90174185D01*
G37*
%TD.AperFunction*%
%TD*%
M02*
