ISO-10303-21;
HEADER;
/* Generated by software containing ST-Developer
 * from STEP Tools, Inc. (www.steptools.com) 
 */
/* OPTION: using custom renumber hook */

FILE_DESCRIPTION(
/* description */ ('STEP AP242',
'CAx-IF Rec.Pracs.---Representation and Presentation of Product Manufa
cturing Information (PMI)---4.0---2014-10-13',
'CAx-IF Rec.Pracs.---3D Tessellated Geometry---0.4---2014-09-14','2;1'),

/* implementation_level */ '2;1');

FILE_NAME(
/* name */ '677184d55b077a3bf770d3c9',
/* time_stamp */ '2024-12-29T17:20:21Z',
/* author */ (''),
/* organization */ (''),
/* preprocessor_version */ 'ST-DEVELOPER v20',
/* originating_system */ 'ONSHAPE BY PTC INC, 1.191',
/* authorisation */ '  ');

FILE_SCHEMA (('AP242_MANAGED_MODEL_BASED_3D_ENGINEERING_MIM_LF { 1 0 10303 442 1 1 4 }'));
ENDSEC;

DATA;
#10=SHAPE_REPRESENTATION_RELATIONSHIP('','',#231,#11);
#11=ADVANCED_BREP_SHAPE_REPRESENTATION('',(#229),#329);
#12=LINE('',#297,#24);
#13=LINE('',#300,#25);
#14=LINE('',#302,#26);
#15=LINE('',#304,#27);
#16=LINE('',#306,#28);
#17=LINE('',#308,#29);
#18=LINE('',#310,#30);
#19=LINE('',#312,#31);
#20=LINE('',#314,#32);
#21=LINE('',#316,#33);
#22=LINE('',#318,#34);
#23=LINE('',#319,#35);
#24=VECTOR('',#259,1.);
#25=VECTOR('',#260,1.);
#26=VECTOR('',#261,1.);
#27=VECTOR('',#262,1.);
#28=VECTOR('',#265,1.);
#29=VECTOR('',#266,1.);
#30=VECTOR('',#267,1.);
#31=VECTOR('',#270,1.);
#32=VECTOR('',#271,1.);
#33=VECTOR('',#272,1.);
#34=VECTOR('',#275,1.);
#35=VECTOR('',#276,1.);
#36=PLANE('',#236);
#37=PLANE('',#237);
#38=PLANE('',#238);
#39=PLANE('',#239);
#40=PLANE('',#240);
#41=PLANE('',#241);
#42=PLANE('',#242);
#43=PLANE('',#246);
#44=ORIENTED_EDGE('',*,*,#76,.T.);
#45=ORIENTED_EDGE('',*,*,#77,.F.);
#46=ORIENTED_EDGE('',*,*,#76,.F.);
#47=ORIENTED_EDGE('',*,*,#78,.F.);
#48=ORIENTED_EDGE('',*,*,#79,.F.);
#49=ORIENTED_EDGE('',*,*,#80,.T.);
#50=ORIENTED_EDGE('',*,*,#81,.T.);
#51=ORIENTED_EDGE('',*,*,#82,.T.);
#52=ORIENTED_EDGE('',*,*,#83,.F.);
#53=ORIENTED_EDGE('',*,*,#84,.F.);
#54=ORIENTED_EDGE('',*,*,#79,.T.);
#55=ORIENTED_EDGE('',*,*,#85,.T.);
#56=ORIENTED_EDGE('',*,*,#86,.F.);
#57=ORIENTED_EDGE('',*,*,#87,.F.);
#58=ORIENTED_EDGE('',*,*,#83,.T.);
#59=ORIENTED_EDGE('',*,*,#88,.F.);
#60=ORIENTED_EDGE('',*,*,#81,.F.);
#61=ORIENTED_EDGE('',*,*,#89,.T.);
#62=ORIENTED_EDGE('',*,*,#86,.T.);
#63=ORIENTED_EDGE('',*,*,#80,.F.);
#64=ORIENTED_EDGE('',*,*,#84,.T.);
#65=ORIENTED_EDGE('',*,*,#87,.T.);
#66=ORIENTED_EDGE('',*,*,#89,.F.);
#67=ORIENTED_EDGE('',*,*,#77,.T.);
#68=ORIENTED_EDGE('',*,*,#90,.F.);
#69=ORIENTED_EDGE('',*,*,#78,.T.);
#70=ORIENTED_EDGE('',*,*,#88,.T.);
#71=ORIENTED_EDGE('',*,*,#85,.F.);
#72=ORIENTED_EDGE('',*,*,#82,.F.);
#73=ORIENTED_EDGE('',*,*,#91,.F.);
#74=ORIENTED_EDGE('',*,*,#90,.T.);
#75=ORIENTED_EDGE('',*,*,#91,.T.);
#76=EDGE_CURVE('',#92,#92,#104,.T.);
#77=EDGE_CURVE('',#93,#93,#105,.T.);
#78=EDGE_CURVE('',#94,#95,#12,.T.);
#79=EDGE_CURVE('',#96,#94,#13,.T.);
#80=EDGE_CURVE('',#96,#97,#14,.T.);
#81=EDGE_CURVE('',#97,#95,#15,.T.);
#82=EDGE_CURVE('',#94,#98,#16,.T.);
#83=EDGE_CURVE('',#99,#98,#17,.T.);
#84=EDGE_CURVE('',#96,#99,#18,.T.);
#85=EDGE_CURVE('',#98,#100,#19,.T.);
#86=EDGE_CURVE('',#101,#100,#20,.T.);
#87=EDGE_CURVE('',#99,#101,#21,.T.);
#88=EDGE_CURVE('',#95,#100,#22,.T.);
#89=EDGE_CURVE('',#97,#101,#23,.T.);
#90=EDGE_CURVE('',#102,#102,#106,.T.);
#91=EDGE_CURVE('',#103,#103,#107,.T.);
#92=VERTEX_POINT('',#292);
#93=VERTEX_POINT('',#294);
#94=VERTEX_POINT('',#298);
#95=VERTEX_POINT('',#299);
#96=VERTEX_POINT('',#301);
#97=VERTEX_POINT('',#303);
#98=VERTEX_POINT('',#307);
#99=VERTEX_POINT('',#309);
#100=VERTEX_POINT('',#313);
#101=VERTEX_POINT('',#315);
#102=VERTEX_POINT('',#323);
#103=VERTEX_POINT('',#326);
#104=CIRCLE('',#234,0.0015);
#105=CIRCLE('',#235,0.0015);
#106=CIRCLE('',#243,0.0015);
#107=CIRCLE('',#245,0.0015);
#108=EDGE_LOOP('',(#44));
#109=EDGE_LOOP('',(#45));
#110=EDGE_LOOP('',(#46));
#111=EDGE_LOOP('',(#47,#48,#49,#50));
#112=EDGE_LOOP('',(#51,#52,#53,#54));
#113=EDGE_LOOP('',(#55,#56,#57,#58));
#114=EDGE_LOOP('',(#59,#60,#61,#62));
#115=EDGE_LOOP('',(#63,#64,#65,#66));
#116=EDGE_LOOP('',(#67));
#117=EDGE_LOOP('',(#68));
#118=EDGE_LOOP('',(#69,#70,#71,#72));
#119=EDGE_LOOP('',(#73));
#120=EDGE_LOOP('',(#74));
#121=EDGE_LOOP('',(#75));
#122=FACE_BOUND('',#108,.T.);
#123=FACE_BOUND('',#109,.T.);
#124=FACE_BOUND('',#110,.T.);
#125=FACE_BOUND('',#111,.T.);
#126=FACE_BOUND('',#112,.T.);
#127=FACE_BOUND('',#113,.T.);
#128=FACE_BOUND('',#114,.T.);
#129=FACE_BOUND('',#115,.T.);
#130=FACE_BOUND('',#116,.T.);
#131=FACE_BOUND('',#117,.T.);
#132=FACE_BOUND('',#118,.T.);
#133=FACE_BOUND('',#119,.T.);
#134=FACE_BOUND('',#120,.T.);
#135=FACE_BOUND('',#121,.T.);
#136=CYLINDRICAL_SURFACE('',#233,0.0015);
#137=CYLINDRICAL_SURFACE('',#244,0.0015);
#138=OVER_RIDING_STYLED_ITEM('',(#161),#148,#159);
#139=OVER_RIDING_STYLED_ITEM('',(#162),#149,#159);
#140=OVER_RIDING_STYLED_ITEM('',(#163),#150,#159);
#141=OVER_RIDING_STYLED_ITEM('',(#164),#151,#159);
#142=OVER_RIDING_STYLED_ITEM('',(#165),#152,#159);
#143=OVER_RIDING_STYLED_ITEM('',(#166),#153,#159);
#144=OVER_RIDING_STYLED_ITEM('',(#167),#154,#159);
#145=OVER_RIDING_STYLED_ITEM('',(#168),#155,#159);
#146=OVER_RIDING_STYLED_ITEM('',(#169),#156,#159);
#147=OVER_RIDING_STYLED_ITEM('',(#170),#157,#159);
#148=ADVANCED_FACE('',(#122,#123),#136,.F.);
#149=ADVANCED_FACE('',(#124),#36,.T.);
#150=ADVANCED_FACE('',(#125),#37,.T.);
#151=ADVANCED_FACE('',(#126),#38,.F.);
#152=ADVANCED_FACE('',(#127),#39,.F.);
#153=ADVANCED_FACE('',(#128),#40,.T.);
#154=ADVANCED_FACE('',(#129),#41,.T.);
#155=ADVANCED_FACE('',(#130,#131,#132),#42,.F.);
#156=ADVANCED_FACE('',(#133,#134),#137,.F.);
#157=ADVANCED_FACE('',(#135),#43,.T.);
#158=CLOSED_SHELL('',(#148,#149,#150,#151,#152,#153,#154,#155,#156,#157));
#159=STYLED_ITEM('',(#160),#229);
#160=PRESENTATION_STYLE_ASSIGNMENT((#171));
#161=PRESENTATION_STYLE_ASSIGNMENT((#172));
#162=PRESENTATION_STYLE_ASSIGNMENT((#173));
#163=PRESENTATION_STYLE_ASSIGNMENT((#174));
#164=PRESENTATION_STYLE_ASSIGNMENT((#175));
#165=PRESENTATION_STYLE_ASSIGNMENT((#176));
#166=PRESENTATION_STYLE_ASSIGNMENT((#177));
#167=PRESENTATION_STYLE_ASSIGNMENT((#178));
#168=PRESENTATION_STYLE_ASSIGNMENT((#179));
#169=PRESENTATION_STYLE_ASSIGNMENT((#180));
#170=PRESENTATION_STYLE_ASSIGNMENT((#181));
#171=SURFACE_STYLE_USAGE(.BOTH.,#182);
#172=SURFACE_STYLE_USAGE(.BOTH.,#183);
#173=SURFACE_STYLE_USAGE(.BOTH.,#184);
#174=SURFACE_STYLE_USAGE(.BOTH.,#185);
#175=SURFACE_STYLE_USAGE(.BOTH.,#186);
#176=SURFACE_STYLE_USAGE(.BOTH.,#187);
#177=SURFACE_STYLE_USAGE(.BOTH.,#188);
#178=SURFACE_STYLE_USAGE(.BOTH.,#189);
#179=SURFACE_STYLE_USAGE(.BOTH.,#190);
#180=SURFACE_STYLE_USAGE(.BOTH.,#191);
#181=SURFACE_STYLE_USAGE(.BOTH.,#192);
#182=SURFACE_SIDE_STYLE('',(#193));
#183=SURFACE_SIDE_STYLE('',(#194));
#184=SURFACE_SIDE_STYLE('',(#195));
#185=SURFACE_SIDE_STYLE('',(#196));
#186=SURFACE_SIDE_STYLE('',(#197));
#187=SURFACE_SIDE_STYLE('',(#198));
#188=SURFACE_SIDE_STYLE('',(#199));
#189=SURFACE_SIDE_STYLE('',(#200));
#190=SURFACE_SIDE_STYLE('',(#201));
#191=SURFACE_SIDE_STYLE('',(#202));
#192=SURFACE_SIDE_STYLE('',(#203));
#193=SURFACE_STYLE_FILL_AREA(#204);
#194=SURFACE_STYLE_FILL_AREA(#205);
#195=SURFACE_STYLE_FILL_AREA(#206);
#196=SURFACE_STYLE_FILL_AREA(#207);
#197=SURFACE_STYLE_FILL_AREA(#208);
#198=SURFACE_STYLE_FILL_AREA(#209);
#199=SURFACE_STYLE_FILL_AREA(#210);
#200=SURFACE_STYLE_FILL_AREA(#211);
#201=SURFACE_STYLE_FILL_AREA(#212);
#202=SURFACE_STYLE_FILL_AREA(#213);
#203=SURFACE_STYLE_FILL_AREA(#214);
#204=FILL_AREA_STYLE('',(#215));
#205=FILL_AREA_STYLE('',(#216));
#206=FILL_AREA_STYLE('',(#217));
#207=FILL_AREA_STYLE('',(#218));
#208=FILL_AREA_STYLE('',(#219));
#209=FILL_AREA_STYLE('',(#220));
#210=FILL_AREA_STYLE('',(#221));
#211=FILL_AREA_STYLE('',(#222));
#212=FILL_AREA_STYLE('',(#223));
#213=FILL_AREA_STYLE('',(#224));
#214=FILL_AREA_STYLE('',(#225));
#215=FILL_AREA_STYLE_COLOUR('',#226);
#216=FILL_AREA_STYLE_COLOUR('',#227);
#217=FILL_AREA_STYLE_COLOUR('',#227);
#218=FILL_AREA_STYLE_COLOUR('',#228);
#219=FILL_AREA_STYLE_COLOUR('',#228);
#220=FILL_AREA_STYLE_COLOUR('',#228);
#221=FILL_AREA_STYLE_COLOUR('',#228);
#222=FILL_AREA_STYLE_COLOUR('',#228);
#223=FILL_AREA_STYLE_COLOUR('',#228);
#224=FILL_AREA_STYLE_COLOUR('',#227);
#225=FILL_AREA_STYLE_COLOUR('',#227);
#226=COLOUR_RGB('',0.615686274509804,0.811764705882353,0.929411764705882);
#227=COLOUR_RGB('',0.980392156862745,0.796078431372549,0.262745098039216);
#228=COLOUR_RGB('',0.262745098039216,0.282352941176471,0.301960784313725);
#229=MANIFOLD_SOLID_BREP('Part 1',#158);
#230=SHAPE_DEFINITION_REPRESENTATION(#334,#231);
#231=SHAPE_REPRESENTATION('Part 1',(#232),#329);
#232=AXIS2_PLACEMENT_3D('',#289,#247,#248);
#233=AXIS2_PLACEMENT_3D('',#290,#249,#250);
#234=AXIS2_PLACEMENT_3D('',#291,#251,#252);
#235=AXIS2_PLACEMENT_3D('',#293,#253,#254);
#236=AXIS2_PLACEMENT_3D('',#295,#255,#256);
#237=AXIS2_PLACEMENT_3D('',#296,#257,#258);
#238=AXIS2_PLACEMENT_3D('',#305,#263,#264);
#239=AXIS2_PLACEMENT_3D('',#311,#268,#269);
#240=AXIS2_PLACEMENT_3D('',#317,#273,#274);
#241=AXIS2_PLACEMENT_3D('',#320,#277,#278);
#242=AXIS2_PLACEMENT_3D('',#321,#279,#280);
#243=AXIS2_PLACEMENT_3D('',#322,#281,#282);
#244=AXIS2_PLACEMENT_3D('',#324,#283,#284);
#245=AXIS2_PLACEMENT_3D('',#325,#285,#286);
#246=AXIS2_PLACEMENT_3D('',#327,#287,#288);
#247=DIRECTION('',(0.,0.,1.));
#248=DIRECTION('',(1.,0.,0.));
#249=DIRECTION('',(0.,0.,-1.));
#250=DIRECTION('',(-1.,0.,0.));
#251=DIRECTION('',(0.,0.,1.));
#252=DIRECTION('',(-1.,0.,0.));
#253=DIRECTION('',(0.,0.,1.));
#254=DIRECTION('',(-1.,0.,0.));
#255=DIRECTION('',(0.,0.,-1.));
#256=DIRECTION('',(1.,0.,0.));
#257=DIRECTION('',(9.91270557701033E-17,-1.,0.));
#258=DIRECTION('',(1.,9.91270557701033E-17,0.));
#259=DIRECTION('',(-1.,-9.91270557701033E-17,0.));
#260=DIRECTION('',(0.,0.,-1.));
#261=DIRECTION('',(-1.,-9.91270557701033E-17,0.));
#262=DIRECTION('',(0.,0.,-1.));
#263=DIRECTION('',(-1.,0.,0.));
#264=DIRECTION('',(0.,0.,1.));
#265=DIRECTION('',(0.,1.,0.));
#266=DIRECTION('',(0.,0.,-1.));
#267=DIRECTION('',(0.,1.,0.));
#268=DIRECTION('',(9.91270557701033E-17,-1.,0.));
#269=DIRECTION('',(1.,9.91270557701033E-17,0.));
#270=DIRECTION('',(-1.,-9.91270557701033E-17,0.));
#271=DIRECTION('',(0.,0.,-1.));
#272=DIRECTION('',(-1.,-9.91270557701033E-17,0.));
#273=DIRECTION('',(-1.,0.,0.));
#274=DIRECTION('',(0.,0.,1.));
#275=DIRECTION('',(0.,1.,0.));
#276=DIRECTION('',(0.,1.,0.));
#277=DIRECTION('',(0.,0.,1.));
#278=DIRECTION('',(1.,0.,0.));
#279=DIRECTION('',(0.,0.,1.));
#280=DIRECTION('',(1.,0.,0.));
#281=DIRECTION('',(0.,0.,-1.));
#282=DIRECTION('',(-1.,0.,0.));
#283=DIRECTION('',(0.,0.,-1.));
#284=DIRECTION('',(-1.,0.,0.));
#285=DIRECTION('',(0.,0.,-1.));
#286=DIRECTION('',(-1.,0.,0.));
#287=DIRECTION('',(0.,0.,-1.));
#288=DIRECTION('',(1.,0.,0.));
#289=CARTESIAN_POINT('',(0.,0.,0.));
#290=CARTESIAN_POINT('',(0.013,-0.0045,2.54E-5));
#291=CARTESIAN_POINT('',(0.013,-0.0045,2.54E-5));
#292=CARTESIAN_POINT('',(0.0115,-0.0045,2.54E-5));
#293=CARTESIAN_POINT('',(0.013,-0.0045,0.));
#294=CARTESIAN_POINT('',(0.0115,-0.0045,0.));
#295=CARTESIAN_POINT('',(0.,0.,2.54E-5));
#296=CARTESIAN_POINT('',(0.,-0.011,0.0018));
#297=CARTESIAN_POINT('',(0.,-0.011,0.));
#298=CARTESIAN_POINT('',(0.0175,-0.011,0.));
#299=CARTESIAN_POINT('',(-0.0175,-0.011,0.));
#300=CARTESIAN_POINT('',(0.0175,-0.011,0.0018));
#301=CARTESIAN_POINT('',(0.0175,-0.011,0.0018));
#302=CARTESIAN_POINT('',(0.,-0.011,0.0018));
#303=CARTESIAN_POINT('',(-0.0175,-0.011,0.0018));
#304=CARTESIAN_POINT('',(-0.0175,-0.011,0.0018));
#305=CARTESIAN_POINT('',(0.0175,2.60208521396521E-18,0.0018));
#306=CARTESIAN_POINT('',(0.0175,2.60208521396521E-18,0.));
#307=CARTESIAN_POINT('',(0.0175,0.011,0.));
#308=CARTESIAN_POINT('',(0.0175,0.011,0.0018));
#309=CARTESIAN_POINT('',(0.0175,0.011,0.0018));
#310=CARTESIAN_POINT('',(0.0175,2.60208521396521E-18,0.0018));
#311=CARTESIAN_POINT('',(0.,0.011,0.0018));
#312=CARTESIAN_POINT('',(0.,0.011,0.));
#313=CARTESIAN_POINT('',(-0.0175,0.011,0.));
#314=CARTESIAN_POINT('',(-0.0175,0.011,0.0018));
#315=CARTESIAN_POINT('',(-0.0175,0.011,0.0018));
#316=CARTESIAN_POINT('',(0.,0.011,0.0018));
#317=CARTESIAN_POINT('',(-0.0175,-1.7347234759768E-18,0.0018));
#318=CARTESIAN_POINT('',(-0.0175,-1.7347234759768E-18,0.));
#319=CARTESIAN_POINT('',(-0.0175,-1.7347234759768E-18,0.0018));
#320=CARTESIAN_POINT('',(0.,0.,0.0018));
#321=CARTESIAN_POINT('',(0.,0.,0.));
#322=CARTESIAN_POINT('',(0.013,0.0045,0.));
#323=CARTESIAN_POINT('',(0.0115,0.0045,0.));
#324=CARTESIAN_POINT('',(0.013,0.0045,2.54E-5));
#325=CARTESIAN_POINT('',(0.013,0.0045,2.54E-5));
#326=CARTESIAN_POINT('',(0.0115,0.0045,2.54E-5));
#327=CARTESIAN_POINT('',(0.,0.,2.54E-5));
#328=MECHANICAL_DESIGN_GEOMETRIC_PRESENTATION_REPRESENTATION('',(#159,#138,
#139,#140,#141,#142,#143,#144,#145,#146,#147),#329);
#329=(
GEOMETRIC_REPRESENTATION_CONTEXT(3)
GLOBAL_UNCERTAINTY_ASSIGNED_CONTEXT((#330))
GLOBAL_UNIT_ASSIGNED_CONTEXT((#333,#332,#331))
REPRESENTATION_CONTEXT('Part 1','TOP_LEVEL_ASSEMBLY_PART')
);
#330=UNCERTAINTY_MEASURE_WITH_UNIT(LENGTH_MEASURE(1.E-8),#333,
'DISTANCE_ACCURACY_VALUE','Maximum Tolerance applied to model');
#331=(
NAMED_UNIT(*)
SI_UNIT($,.STERADIAN.)
SOLID_ANGLE_UNIT()
);
#332=(
NAMED_UNIT(*)
PLANE_ANGLE_UNIT()
SI_UNIT($,.RADIAN.)
);
#333=(
LENGTH_UNIT()
NAMED_UNIT(*)
SI_UNIT($,.METRE.)
);
#334=PRODUCT_DEFINITION_SHAPE('','',#335);
#335=PRODUCT_DEFINITION('','',#337,#336);
#336=PRODUCT_DEFINITION_CONTEXT('',#343,'design');
#337=PRODUCT_DEFINITION_FORMATION_WITH_SPECIFIED_SOURCE('','',#339,
 .NOT_KNOWN.);
#338=PRODUCT_RELATED_PRODUCT_CATEGORY('','',(#339));
#339=PRODUCT('Part 1','Part 1','Part 1',(#341));
#340=PRODUCT_CATEGORY('','');
#341=PRODUCT_CONTEXT('',#343,'mechanical');
#342=APPLICATION_PROTOCOL_DEFINITION('international standard',
'ap242_managed_model_based_3d_engineering',2011,#343);
#343=APPLICATION_CONTEXT('managed model based 3d engineering');
ENDSEC;
END-ISO-10303-21;
